<svg width="98" height="112" viewBox="0 0 98 112" fill="none" xmlns="http://www.w3.org/2000/svg">
<path fill-rule="evenodd" clip-rule="evenodd" d="M49.0692 11.4933C46.3661 11.8087 44.3033 14.0039 44.1109 16.7732C44.0289 17.9655 44.0541 18.0475 46.7604 25.0086C52.9142 40.8421 54.4061 44.6554 54.6553 45.1916C55.264 46.4911 56.1156 47.7118 57.1849 48.8094C58.005 49.6515 58.5443 50.1026 59.4559 50.7145C61.0613 51.7868 61.8593 52.0833 68.1046 53.9316C74.1889 55.7326 77.5134 56.9312 80.3805 58.3537C84.0929 60.1957 86.6825 62.29 88.3195 64.7786C89.496 66.5638 90.5369 69.7621 90.9879 72.9824C91.1646 74.2409 91.1677 77.0228 90.9911 78.1614C90.6094 80.6311 89.8461 82.7002 88.6791 84.4317C88.0577 85.3527 88.2753 85.1982 89.1774 84.0753C91.7323 80.8992 94.3345 75.471 95.6624 70.5474C97.2678 64.5893 97.4886 58.1928 96.2901 52.1369C93.9591 40.3438 86.5153 30.1687 76.0309 24.444C75.3717 24.0844 72.8642 22.7692 69.4608 20.9997C68.9436 20.7316 68.2402 20.3626 67.8964 20.1828C67.5526 20.003 66.8492 19.634 66.3319 19.3659C65.8146 19.0978 64.329 18.3219 63.0295 17.6469C61.73 16.9688 60.276 16.2118 59.7965 15.9626C58.3393 15.2025 57.3615 14.6915 56.6329 14.3099C53.2611 12.5467 51.8354 11.8308 51.4286 11.7077C51.0027 11.5784 49.9177 11.4113 49.6465 11.4333C49.5897 11.4333 49.331 11.4649 49.0692 11.4933Z" fill="url(#paint0_radial_346_4447)"/>
<path d="M56.4189 70.6076C56.2328 70.718 55.971 70.8788 55.8354 70.964C55.7029 71.0491 55.4032 71.2352 55.1761 71.374C54.334 71.8913 52.0945 73.2696 50.1705 74.4587C48.9057 75.2378 48.7196 75.3545 47.111 76.3512C46.5369 76.7076 45.9282 77.0829 45.7547 77.1839C45.5812 77.288 44.8463 77.739 44.1208 78.19C43.3954 78.6411 42.1274 79.4233 41.3042 79.9279C40.481 80.4326 39.0111 81.341 38.0365 81.9434C37.0619 82.5458 35.7781 83.3375 35.1851 83.7002C34.5922 84.0629 34.0465 84.4131 33.9676 84.4793C33.8541 84.5771 28.5835 87.8416 25.9372 89.4533C23.928 90.6771 21.6034 91.494 19.2251 91.8157C18.118 91.964 16.0205 91.9671 14.9166 91.8157C11.9233 91.412 9.16338 90.2954 6.80092 88.5323C5.8736 87.8416 4.12936 86.0973 3.46383 85.1953C1.89306 83.0726 0.874275 80.7985 0.347532 78.2216C0.227674 77.6286 0.110966 77.1271 0.0920414 77.1082C0.041575 77.0577 0.133047 77.9535 0.290754 79.1236C0.457924 80.3411 0.814342 82.1011 1.19599 83.6088C4.15774 95.2632 12.5856 104.741 23.9974 109.252C27.284 110.551 30.599 111.368 34.2073 111.769C35.5636 111.92 39.3991 111.98 40.8153 111.873C47.3034 111.381 52.9525 109.472 58.7466 105.81C59.2639 105.486 60.2322 104.874 60.9009 104.451C61.5696 104.028 62.4149 103.495 62.7777 103.262C63.1404 103.029 63.5788 102.754 63.7523 102.65C63.9258 102.546 64.2696 102.331 64.5156 102.171C64.7648 102.01 65.8277 101.338 66.8781 100.676L71.0825 98.0198L72.5271 97.1083L72.5776 97.0768L72.7353 96.9758L72.811 96.9285L73.874 96.2567L77.5485 93.9353C82.2293 90.9957 83.6234 89.9611 85.7998 87.8321C86.705 86.9458 88.0739 85.4287 88.1402 85.2363C88.1528 85.1984 88.3957 84.8231 88.6795 84.4036C89.8308 82.7004 90.5973 80.6155 90.9789 78.1553C91.1555 77.0167 91.1524 74.2348 90.9758 72.9763C90.632 70.5413 89.856 67.7815 89.017 66.0247C87.6418 63.1418 84.7148 60.5239 80.5071 58.4138C79.3464 57.8303 78.1447 57.2973 78.0122 57.3067C77.9491 57.3099 74.0348 59.7039 69.3099 62.6246C64.5881 65.5452 60.4909 68.0811 60.2039 68.2609C59.9168 68.4375 59.4248 68.7403 59.1094 68.9296L56.4189 70.6076Z" fill="url(#paint1_radial_346_4447)"/>
<path d="M0.0283862 56.5904L0.0473103 76.9406L0.312263 78.1234C1.1355 81.8169 2.56433 84.4821 5.04349 86.9581C6.21053 88.1219 7.10315 88.8221 8.36796 89.5728C11.0427 91.1562 13.9224 91.9384 17.0766 91.9352C20.379 91.9321 23.2398 91.1089 26.1826 89.3079C26.681 89.0051 28.6271 87.8065 30.5101 86.6427L33.9324 84.5294V60.3848V36.2402V48.9909C33.9324 34.8984 33.9071 26.5306 33.8598 25.8714C33.5791 21.7458 31.8538 17.9515 28.952 15.0844C28.0625 14.2044 27.2992 13.6146 25.0345 12.0565C23.9053 11.2806 21.8425 9.85805 20.4452 8.89605C19.0511 7.93405 16.7517 6.3507 15.3355 5.37608C13.9193 4.40147 11.9038 3.01051 10.8503 2.28507C8.6613 0.774257 8.48782 0.670174 7.82545 0.433617C6.96437 0.124516 6.05281 0.0109654 5.18227 0.105588C2.65264 0.379995 0.627674 2.20622 0.10093 4.68849C0.0189224 5.07329 0.00315242 10.2145 0.00315242 38.1124V36.2434H0L0.0283862 56.5904Z" fill="url(#paint2_linear_346_4447)"/>
<defs>
<radialGradient id="paint0_radial_346_4447" cx="0" cy="0" r="1" gradientUnits="userSpaceOnUse" gradientTransform="translate(93.7309 68.7081) rotate(-130.909) scale(75.7938 54.5371)">
<stop stop-color="#717171"/>
<stop offset="1" stop-color="#1E1E1E"/>
</radialGradient>
<radialGradient id="paint1_radial_346_4447" cx="0" cy="0" r="1" gradientUnits="userSpaceOnUse" gradientTransform="translate(12.7264 96.3281) rotate(-23.195) scale(81.9826 136.625)">
<stop stop-color="#717171"/>
<stop offset="1" stop-color="#1E1E1E"/>
</radialGradient>
<linearGradient id="paint2_linear_346_4447" x1="16.9725" y1="-34.7691" x2="16.9725" y2="91.9321" gradientUnits="userSpaceOnUse">
<stop stop-color="#717171"/>
<stop offset="1" stop-color="#1E1E1E"/>
</linearGradient>
</defs>
</svg>
