<svg width="18" height="17" viewBox="0 0 18 17" fill="none" xmlns="http://www.w3.org/2000/svg">
<g clip-path="url(#clip0_53_321)">
<path d="M11.8239 4.25016V12.396C11.8239 13.9614 10.556 15.2293 8.99056 15.2293C7.42514 15.2293 6.15723 13.9614 6.15723 12.396V3.54183C6.15723 2.56433 6.95056 1.771 7.92806 1.771C8.90556 1.771 9.69889 2.56433 9.69889 3.54183V10.9793C9.69889 11.1672 9.62427 11.3474 9.49143 11.4802C9.35859 11.613 9.17842 11.6877 8.99056 11.6877C8.8027 11.6877 8.62253 11.613 8.48969 11.4802C8.35686 11.3474 8.28223 11.1672 8.28223 10.9793V4.25016H7.21973V10.9793C7.21973 11.9568 8.01306 12.7502 8.99056 12.7502C9.96806 12.7502 10.7614 11.9568 10.7614 10.9793V3.54183C10.7614 1.97641 9.49348 0.708496 7.92806 0.708496C6.36264 0.708496 5.09473 1.97641 5.09473 3.54183V12.396C5.09473 14.5493 6.84077 16.2918 8.99056 16.2918C11.1404 16.2918 12.8864 14.5493 12.8864 12.396V4.25016H11.8239Z" fill="#1E1E1E"/>
</g>
<defs>
<clipPath id="clip0_53_321">
<rect width="17" height="17" fill="white" transform="translate(0.136719)"/>
</clipPath>
</defs>
</svg>
