<svg width="7" height="8" viewBox="0 0 7 8" fill="none" xmlns="http://www.w3.org/2000/svg">
<path d="M6.70866 4.00033C6.70866 5.77224 5.27224 7.20866 3.50033 7.20866H3.49448H3.4886H3.48269H3.47675H3.47078H3.46478H3.45875H3.45269H3.4466H3.44048H3.43433H3.42816H3.42195H3.41572H3.40946H3.40317H3.39685H3.39051H3.38413H3.37773H3.3713H3.36485H3.35836H3.35185H3.34532H3.33875H3.33216H3.32555H3.3189H3.31224H3.30554H3.29882H3.29208H3.28531H3.27851H3.27169H3.26485H3.25798H3.25108H3.24416H3.23722H3.23025H3.22326H3.21625H3.20921H3.20215H3.19507H3.18796H3.18083H3.17368H3.1665H3.15931H3.15209H3.14484H3.13758H3.1303H3.12299H3.11566H3.10831H3.10094H3.09355H3.08614H3.07871H3.07125H3.06378H3.05629H3.04878H3.04124H3.03369H3.02612H3.01853H3.01092H3.00329H2.99565H2.98798H2.9803H2.97259H2.96487H2.95714H2.94938H2.94161H2.93382H2.92601H2.91818H2.91034H2.90248H2.89461H2.88672H2.87881H2.87088H2.86294H2.85499H2.84702H2.83903H2.83103H2.82301H2.81498H2.80693H2.79887H2.79079H2.7827H2.7746H2.76648H2.75835H2.7502H2.74205H2.73387H2.72569H2.71749H2.70928H2.70106H2.69282H2.68457H2.67631H2.66804H2.65975H2.65146H2.64315H2.63483H2.6265H2.61816H2.60981H2.60145H2.59307H2.58469H2.5763H2.56789H2.55948H2.55106H2.54263H2.53418H2.52573H2.51727H2.5088H2.50033H2.49184H2.48335H2.47484H2.46633H2.45782H2.44929H2.44076H2.43222H2.42367H2.41511H2.40655H2.39798H2.38941H2.38083H2.37224H2.36364H2.35504H2.34644H2.33783H2.32921H2.32059H2.31196H2.30333H2.2947H2.28606H2.27741H2.26876H2.26011H2.25145H2.24279H2.23412H2.22546H2.21678H2.20811H2.19943H2.19075H2.18207H2.17338H2.1647H2.15601H2.14732H2.13862H2.12993H2.12123H2.11253H2.10384H2.09514H2.08644H2.07774H2.06903H2.06033H2.05163H2.04293H2.03423H2.02553H2.01683H2.00813H1.99943H1.99073H1.98203H1.97334H1.96464H1.95595H1.94726H1.93857H1.92988H1.9212H1.91252H1.90384H1.89517H1.88649H1.87782H1.86916H1.86049H1.85183H1.84318H1.83453H1.82588H1.81724H1.8086H1.79997H1.79134H1.78271H1.77409H1.76548H1.75687H1.74827H1.73967H1.73108H1.7225H1.71392H1.70535H1.69678H1.68822H1.67967H1.67113H1.66259H1.65406H1.64554H1.63703H1.62852H1.62002H1.61153H1.60305H1.59458H1.58611H1.57766H1.56921H1.56078H1.55235H1.54393H1.53552H1.52712H1.51874H1.51036H1.50199H1.49363H1.48529H1.47695H1.46863H1.46031H1.45201H1.44372H1.43545H1.42718H1.41892H1.41068H1.40245H1.39424H1.38603H1.37784H1.36966H1.3615H1.35334H1.34521H1.33708H1.32897H1.32087H1.31279H1.30472H1.29667H1.28863H1.2806H1.2726H1.2646H1.25662H1.24866H1.24071H1.23278H1.22486H1.21696H1.20908H1.20121H1.19336H1.18553H1.17772H1.16992H1.16213H1.15437H1.14662H1.13889H1.13118H1.12349H1.11582H1.10816H1.10052H1.0929H1.08531H1.07772H1.07016H1.06262H1.0551H1.0476H1.04011H1.03265H1.02521H1.01779H1.01039H1.00301H0.995649H0.988311H0.980994H0.973698H0.966424H0.959172H0.951942H0.944734H0.937548H0.930385H0.923244H0.916126H0.909031H0.901959H0.89491H0.887884H0.880882H0.873904H0.86695H0.86002H0.853114H0.846232H0.839375H0.832543H0.825735H0.818953H0.812196H0.805464H0.798758H0.792077H0.785422H0.778794H0.772191H0.765615H0.759066H0.752543H0.746047H0.739578H0.733136H0.726721H0.720334H0.713975H0.707644H0.70134H0.695065H0.688818H0.6826H0.67641H0.670249H0.664117H0.658015H0.651941H0.645897H0.639883H0.633898H0.627944H0.62202H0.616126H0.610262H0.604429H0.598627H0.592856H0.587116H0.581407H0.57573H0.570084H0.564471H0.558889H0.553339H0.547822H0.542337H0.536884H0.531465H0.526078H0.520724H0.515404H0.510117H0.504864H0.499645H0.494459H0.489308H0.48419H0.479108H0.474059H0.469046H0.464068H0.459124H0.454216H0.449343H0.444506H0.439705H0.434939H0.430209H0.425516H0.420859H0.416239H0.411656H0.407109H0.402599H0.398127H0.393692H0.389294H0.384935H0.380613H0.376329H0.372083H0.367876H0.363708H0.359578H0.355486H0.351434H0.347421H0.343448H0.339514H0.33562H0.331765H0.327951H0.324176H0.320442H0.316749H0.313096H0.309484H0.305913H0.302384H0.298895H0.295448H0.292043H0.291992V7.20821V7.2047V7.20114V7.19754V7.1939V7.19021V7.18648V7.18271V7.17889V7.17504V7.17113V7.16719V7.16321V7.15918V7.15511V7.151V7.14684V7.14265V7.13842V7.13414V7.12982V7.12547V7.12107V7.11663V7.11215V7.10764V7.10308V7.09848V7.09385V7.08917V7.08446V7.07971V7.07492V7.07009V7.06522V7.06032V7.05538V7.0504V7.04538V7.04032V7.03523V7.0301V7.02494V7.01974V7.0145V7.00922V7.00391V6.99857V6.99319V6.98777V6.98232V6.97683V6.97131V6.96576V6.96017V6.95454V6.94888V6.94319V6.93746V6.9317V6.92591V6.92009V6.91423V6.90834V6.90241V6.89645V6.89047V6.88444V6.87839V6.87231V6.86619V6.86004V6.85387V6.84766V6.84142V6.83515V6.82885V6.82251V6.81615V6.80976V6.80334V6.79689V6.79041V6.78391V6.77737V6.7708V6.76421V6.75759V6.75094V6.74426V6.73755V6.73082V6.72406V6.71727V6.71045V6.70361V6.69674V6.68984V6.68292V6.67597V6.669V6.662V6.65498V6.64792V6.64085V6.63375V6.62662V6.61947V6.6123V6.6051V6.59788V6.59063V6.58336V6.57606V6.56875V6.56141V6.55404V6.54666V6.53925V6.53182V6.52436V6.51689V6.50939V6.50187V6.49433V6.48677V6.47918V6.47158V6.46396V6.45631V6.44864V6.44096V6.43325V6.42553V6.41778V6.41002V6.40223V6.39443V6.38661V6.37877V6.37091V6.36303V6.35513V6.34722V6.33929V6.33134V6.32337V6.31539V6.30739V6.29937V6.29133V6.28328V6.27521V6.26713V6.25903V6.25092V6.24278V6.23464V6.22648V6.2183V6.21011V6.2019V6.19368V6.18545V6.1772V6.16894V6.16066V6.15237V6.14407V6.13575V6.12742V6.11908V6.11072V6.10235V6.09397V6.08558V6.07718V6.06876V6.06034V6.0519V6.04345V6.03499V6.02652V6.01803V6.00954V6.00104V5.99253V5.984V5.97547V5.96693V5.95838V5.94982V5.94125V5.93267V5.92409V5.91549V5.90689V5.89828V5.88966V5.88103V5.8724V5.86376V5.85511V5.84646V5.83779V5.82913V5.82045V5.81177V5.80308V5.79439V5.78569V5.77699V5.76828V5.75957V5.75085V5.74212V5.7334V5.72466V5.71593V5.70719V5.69844V5.68969V5.68094V5.67219V5.66343V5.65467V5.64591V5.63714V5.62838V5.61961V5.61083V5.60206V5.59329V5.58451V5.57573V5.56695V5.55817V5.54939V5.54061V5.53183V5.52305V5.51427V5.50549V5.49671V5.48793V5.47915V5.47038V5.4616V5.45283V5.44405V5.43528V5.42651V5.41774V5.40898V5.40022V5.39146V5.3827V5.37395V5.3652V5.35645V5.34771V5.33897V5.33023V5.3215V5.31277V5.30405V5.29533V5.28662V5.27791V5.26921V5.26051V5.25182V5.24313V5.23446V5.22578V5.21712V5.20846V5.1998V5.19115V5.18252V5.17388V5.16526V5.15664V5.14803V5.13943V5.13084V5.12225V5.11368V5.10511V5.09655V5.088V5.07946V5.07093V5.06241V5.0539V5.0454V5.03691V5.02843V5.01996V5.01151V5.00306V4.99462V4.9862V4.97779V4.96938V4.96099V4.95262V4.94425V4.9359V4.92756V4.91923V4.91092V4.90262V4.89433V4.88606V4.8778V4.86955V4.86132V4.8531V4.8449V4.83671V4.82854V4.82038V4.81224V4.80411V4.796V4.7879V4.77982V4.77176V4.76371V4.75568V4.74766V4.73967V4.73169V4.72372V4.71578V4.70785V4.69994V4.69205V4.68417V4.67632V4.66848V4.66066V4.65286V4.64508V4.63732V4.62958V4.62186V4.61416V4.60648V4.59881V4.59117V4.58355V4.57595V4.56837V4.56082V4.55328V4.54577V4.53827V4.5308V4.52335V4.51593V4.50852V4.50114V4.49378V4.48645V4.47913V4.47185V4.46458V4.45734V4.45012V4.44293V4.43576V4.42861V4.42149V4.4144V4.40733V4.40028V4.39326V4.38627V4.3793V4.37236V4.36544V4.35855V4.35169V4.34485V4.33804V4.33126V4.3245V4.31777V4.31107V4.3044V4.29776V4.29114V4.28455V4.27799V4.27146V4.26496V4.25849V4.25204V4.24563V4.23924V4.23289V4.22657V4.22027V4.21401V4.20777V4.20157V4.1954V4.18926V4.18315V4.17707V4.17103V4.16501V4.15903V4.15308V4.14716V4.14128V4.13543V4.12961V4.12382V4.11807V4.11235V4.10666V4.10101V4.0954V4.08981V4.08426V4.07875V4.07327V4.06783V4.06242V4.05705V4.05171V4.04641V4.04114V4.03591V4.03072V4.02556V4.02044V4.01535V4.01031V4.0053V4.00033C0.291992 2.22841 1.72841 0.791992 3.50033 0.791992C5.27224 0.791992 6.70866 2.22841 6.70866 4.00033Z" stroke="white" stroke-width="0.25" stroke-linecap="round" stroke-linejoin="round"/>
</svg>
