<svg width="181" height="142" viewBox="0 0 181 142" fill="none" xmlns="http://www.w3.org/2000/svg">
<path d="M134.516 80.0794C152.89 80.0794 167.785 65.2444 167.785 46.9445C167.785 28.6446 152.89 13.8096 134.516 13.8096C116.143 13.8096 101.248 28.6446 101.248 46.9445C101.248 65.2444 116.143 80.0794 134.516 80.0794Z" fill="#E9E9E9"/>
<path d="M167.955 75.2565V70.2113C167.955 69.735 167.861 69.2633 167.678 68.8231C167.495 68.383 167.227 67.9831 166.889 67.6463C166.551 67.3095 166.149 67.0422 165.707 66.86C165.265 66.6777 164.792 66.5838 164.313 66.5838H154.243C153.277 66.5838 152.35 66.2016 151.667 65.5214C150.984 64.8411 150.6 63.9184 150.6 62.9563V57.9111C150.6 55.9077 155.016 54.2836 157.027 54.2836H157.433C158.399 54.2836 159.325 53.9014 160.008 53.2211C160.691 52.5409 161.075 51.6182 161.075 50.6561V45.6109C161.075 44.6488 160.691 43.7262 160.008 43.0459C159.325 42.3656 158.399 41.9834 157.433 41.9834H34.3789C33.9006 41.9834 33.427 42.0772 32.9851 42.2595C32.5432 42.4418 32.1417 42.709 31.8035 43.0459C31.4653 43.3827 31.197 43.7826 31.014 44.2227C30.831 44.6628 30.7368 45.1345 30.7368 45.6109V50.6561C30.7368 51.1325 30.831 51.6042 31.014 52.0443C31.197 52.4844 31.4653 52.8843 31.8035 53.2211C32.1417 53.558 32.5432 53.8252 32.9851 54.0075C33.427 54.1898 33.9006 54.2836 34.3789 54.2836C34.8572 54.2836 35.3308 54.3774 35.7727 54.5597C36.2145 54.742 36.6161 55.0092 36.9543 55.3461C37.2925 55.6829 37.5607 56.0828 37.7438 56.5229C37.9268 56.963 38.021 57.4347 38.021 57.9111V62.9563C38.021 63.9184 37.6373 64.8411 36.9543 65.5214C36.2712 66.2016 35.3448 66.5838 34.3789 66.5838H20.2945C19.3285 66.5838 18.4021 66.966 17.7191 67.6463C17.0361 68.3266 16.6523 69.2493 16.6523 70.2113V75.2565C16.6523 76.2186 17.0361 77.1413 17.7191 77.8216C18.4021 78.5019 19.3285 78.884 20.2945 78.884H25.821C26.2993 78.884 26.7729 78.9779 27.2148 79.1602C27.6566 79.3425 28.0581 79.6097 28.3964 79.9465C28.7346 80.2834 29.0028 80.6832 29.1859 81.1234C29.3689 81.5635 29.4631 82.0352 29.4631 82.5115V87.5568C29.4631 88.5188 29.0794 89.4415 28.3964 90.1218C27.7133 90.8021 26.7869 91.1843 25.821 91.1843H25.8076C24.8417 91.1843 23.9153 91.5665 23.2322 92.2467C22.5492 92.927 22.1655 93.8497 22.1655 94.8118V99.857C22.1655 100.819 22.5492 101.742 23.2323 102.422C23.9153 103.102 24.8417 103.484 25.8076 103.484H26.6072C27.5731 103.484 28.4995 103.867 29.1826 104.547C29.8656 105.227 30.2493 106.15 30.2493 107.112V112.157C30.2493 112.634 30.1551 113.105 29.9721 113.545C29.789 113.985 29.5208 114.385 29.1826 114.722C28.8444 115.059 28.4429 115.326 28.001 115.509C27.5591 115.691 27.0855 115.785 26.6072 115.785H21.8387C20.8727 115.785 19.9463 116.167 19.2633 116.847C18.5803 117.527 18.1966 118.45 18.1966 119.412V124.457C18.1966 125.419 18.5803 126.342 19.2633 127.022C19.9463 127.703 20.8727 128.085 21.8387 128.085H156.604C157.57 128.085 158.496 127.703 159.179 127.022C159.862 126.342 160.246 125.419 160.246 124.457V119.412C160.246 118.45 159.862 117.527 159.179 116.847C158.496 116.167 157.57 115.785 156.604 115.785H153.446C152.968 115.785 152.494 115.691 152.052 115.509C151.61 115.326 151.209 115.059 150.87 114.722C150.532 114.385 150.264 113.985 150.081 113.545C149.898 113.105 149.804 112.634 149.804 112.157V107.112C149.804 106.15 150.187 105.227 150.87 104.547C151.554 103.867 152.48 103.484 153.446 103.484H160.892C161.858 103.484 162.784 103.102 163.467 102.422C164.15 101.742 164.534 100.819 164.534 99.857V94.8118C164.534 94.3354 164.44 93.8637 164.257 93.4236C164.074 92.9835 163.805 92.5836 163.467 92.2467C163.129 91.9099 162.728 91.6427 162.286 91.4604C161.844 91.2781 161.37 91.1843 160.892 91.1843H158.633C158.155 91.1843 157.681 91.0904 157.239 90.9081C156.797 90.7258 156.396 90.4586 156.058 90.1218C155.72 89.785 155.451 89.3851 155.268 88.945C155.085 88.5049 154.991 88.0331 154.991 87.5568V82.5115C154.991 81.5495 155.375 80.6268 156.058 79.9465C156.741 79.2662 157.667 78.884 158.633 78.884H164.313C164.792 78.884 165.265 78.7902 165.707 78.6079C166.149 78.4256 166.551 78.1584 166.889 77.8216C167.227 77.4847 167.495 77.0848 167.678 76.6447C167.861 76.2046 167.955 75.7329 167.955 75.2565Z" fill="#E9E9E9"/>
<path d="M131.027 46.6876C116.837 46.4485 102.692 42.4161 89.8609 34.8877C77.0416 42.4161 62.8961 46.4485 48.7038 46.6876C45.8115 77.4395 55.156 114.443 89.8609 128.19C124.578 114.443 133.887 77.4395 131.027 46.6876Z" fill="#1E1E1E"/>
<path d="M121.361 54.8718C110.503 54.6888 99.6797 51.6033 89.8617 45.8428C80.0526 51.6033 69.2289 54.6888 58.3693 54.8718C56.1562 78.4023 63.3064 106.716 89.8617 117.235C116.426 106.716 123.549 78.4023 121.361 54.8718Z" fill="#E9E9E9"/>
<path d="M135.337 66.1292C146.587 66.1292 155.706 57.0465 155.706 45.8424C155.706 34.6384 146.587 25.5557 135.337 25.5557C124.088 25.5557 114.969 34.6384 114.969 45.8424C114.969 57.0465 124.088 66.1292 135.337 66.1292Z" fill="#CBCBCB"/>
<path d="M135.926 53.7887H125.216C125.009 53.7887 124.806 53.7345 124.627 53.6315C124.448 53.5285 124.299 53.3804 124.196 53.2021C124.093 53.0238 124.038 52.8215 124.038 52.6156C124.038 52.4096 124.093 52.2073 124.196 52.029L129.551 42.7907L134.906 33.5524C135.01 33.374 135.158 33.226 135.337 33.123C135.517 33.02 135.72 32.9658 135.926 32.9658C136.133 32.9658 136.336 33.02 136.515 33.123C136.694 33.226 136.843 33.374 136.946 33.5524L142.302 42.7907L147.657 52.029C147.76 52.2073 147.815 52.4096 147.815 52.6156C147.815 52.8215 147.76 53.0238 147.657 53.2021C147.554 53.3805 147.405 53.5285 147.226 53.6315C147.047 53.7345 146.844 53.7887 146.637 53.7887L135.926 53.7887Z" fill="#FCE833"/>
<path d="M136.515 38.5117C136.515 38.1875 136.252 37.9248 135.926 37.9248C135.601 37.9248 135.337 38.1875 135.337 38.5117V47.2603C135.337 47.5844 135.601 47.8471 135.926 47.8471C136.252 47.8471 136.515 47.5844 136.515 47.2603V38.5117Z" fill="#717171"/>
<path d="M137.329 50.7897C137.406 50.018 136.84 49.3305 136.065 49.2541C135.291 49.1777 134.6 49.7413 134.524 50.513C134.447 51.2846 135.013 51.9721 135.788 52.0485C136.562 52.1249 137.253 51.5613 137.329 50.7897Z" fill="#717171"/>
<path d="M84.6057 76.7681V69.6419C84.6058 68.9273 84.748 68.2198 85.0241 67.5603C85.3003 66.9008 85.7049 66.3023 86.2146 65.7994C86.7243 65.2965 87.329 64.8992 87.9938 64.6304C88.6585 64.3615 89.3702 64.2266 90.0876 64.2333H90.6842C91.4017 64.2263 92.1135 64.3611 92.7784 64.6298C93.4432 64.8985 94.0481 65.2958 94.5578 65.7988C95.0676 66.3017 95.4722 66.9003 95.7482 67.56C96.0243 68.2196 96.1663 68.9272 96.1661 69.6419V72.0425C96.1674 72.2035 96.2319 72.3575 96.3459 72.4717C96.4599 72.5858 96.6142 72.6509 96.7758 72.653L99.6627 72.6661C99.7434 72.6664 99.8234 72.6508 99.8981 72.6203C99.9728 72.5898 100.041 72.5448 100.098 72.4881C100.155 72.4314 100.201 72.364 100.232 72.2898C100.263 72.2155 100.279 72.1359 100.279 72.0555V70.0391C100.279 68.8021 100.035 67.5772 99.5592 66.4344C99.0838 65.2916 98.3868 64.2535 97.508 63.3793C96.6293 62.5051 95.5862 61.812 94.4383 61.3397C93.2904 60.8675 92.0602 60.6253 90.8183 60.627H89.9535C88.7119 60.6259 87.4822 60.8685 86.3347 61.341C85.1873 61.8136 84.1446 62.5067 83.2663 63.3808C82.3879 64.2549 81.6912 65.2929 81.2159 66.4354C80.7405 67.5778 80.496 68.8024 80.4961 70.0391V76.9586L84.6057 76.7681Z" fill="#666666"/>
<path d="M101.644 97.2593C102.367 97.2576 103.059 96.9709 103.57 96.462C104.081 95.953 104.369 95.2633 104.371 94.5436V79.0985C104.369 78.3788 104.081 77.6891 103.57 77.1802C103.059 76.6713 102.367 76.3846 101.644 76.3828H79.13C78.4074 76.3846 77.7149 76.6713 77.2039 77.1802C76.6929 77.6891 76.4051 78.3788 76.4033 79.0985V94.5436C76.4051 95.2633 76.6929 95.953 77.2039 96.462C77.7149 96.9709 78.4074 97.2576 79.13 97.2593H101.644Z" fill="white"/>
<path d="M90.387 81.6807C89.6129 81.6833 88.8713 81.9908 88.3241 82.536C87.7768 83.0813 87.4683 83.82 87.4658 84.5909C87.4792 85.0287 87.5932 85.4575 87.7991 85.8445C88.005 86.2315 88.2973 86.5663 88.6534 86.8231V90.238C88.6534 90.696 88.8361 91.1351 89.1612 91.459C89.4863 91.7828 89.9272 91.9647 90.387 91.9647C90.8468 91.9647 91.2877 91.7828 91.6128 91.459C91.9379 91.1351 92.1206 90.696 92.1206 90.238V86.8231C92.4762 86.5657 92.7681 86.2308 92.9739 85.844C93.1797 85.4571 93.2941 85.0285 93.3082 84.5909C93.3057 83.82 92.9972 83.0813 92.45 82.536C91.9027 81.9908 91.1611 81.6833 90.387 81.6807Z" fill="#666666"/>
<path d="M34.877 73.4199H43.3201" stroke="#1E1E1E" stroke-opacity="0.63" stroke-width="3" stroke-miterlimit="10"/>
<path d="M34.877 75.8428H43.3201" stroke="#1E1E1E" stroke-opacity="0.63" stroke-width="3" stroke-miterlimit="10"/>
<path d="M34.877 78.2666H43.3201" stroke="#1E1E1E" stroke-opacity="0.63" stroke-width="3" stroke-miterlimit="10"/>
<path d="M153.182 21.5664H161.625" stroke="#1E1E1E" stroke-opacity="0.63" stroke-width="3" stroke-miterlimit="10"/>
<path d="M153.182 23.9902H161.625" stroke="#1E1E1E" stroke-opacity="0.63" stroke-width="3" stroke-miterlimit="10"/>
<path d="M153.182 26.4141H161.625" stroke="#1E1E1E" stroke-opacity="0.63" stroke-width="3" stroke-miterlimit="10"/>
<path d="M137.336 82.6104H145.779" stroke="#1E1E1E" stroke-opacity="0.63" stroke-width="3" stroke-miterlimit="10"/>
<path d="M137.336 85.0342H145.779" stroke="#1E1E1E" stroke-opacity="0.63" stroke-width="3" stroke-miterlimit="10"/>
<path d="M137.336 87.458H145.779" stroke="#1E1E1E" stroke-opacity="0.63" stroke-width="3" stroke-miterlimit="10"/>
<path d="M63.7284 38.0825C66.0998 38.0825 68.0223 36.1678 68.0223 33.8059C68.0223 31.444 66.0998 29.5293 63.7284 29.5293C61.357 29.5293 59.4346 31.444 59.4346 33.8059C59.4346 36.1678 61.357 38.0825 63.7284 38.0825Z" fill="#1E1E1E" fill-opacity="0.63"/>
<path d="M64.803 27.3791C66.0382 27.3791 67.0396 26.3817 67.0396 25.1514C67.0396 23.9212 66.0382 22.9238 64.803 22.9238C63.5678 22.9238 62.5664 23.9212 62.5664 25.1514C62.5664 26.3817 63.5678 27.3791 64.803 27.3791Z" fill="#1E1E1E" fill-opacity="0.63"/>
<path d="M72.675 26.6734C73.3876 26.6734 73.9653 26.0981 73.9653 25.3885C73.9653 24.6788 73.3876 24.1035 72.675 24.1035C71.9624 24.1035 71.3848 24.6788 71.3848 25.3885C71.3848 26.0981 71.9624 26.6734 72.675 26.6734Z" fill="#1E1E1E" fill-opacity="0.63"/>
<path d="M73.4414 35.5991C75.1494 35.5991 76.5341 34.22 76.5341 32.5188C76.5341 30.8176 75.1494 29.4385 73.4414 29.4385C71.7333 29.4385 70.3486 30.8176 70.3486 32.5188C70.3486 34.22 71.7333 35.5991 73.4414 35.5991Z" fill="#1E1E1E" fill-opacity="0.63"/>
<path d="M125.336 123.13C127.707 123.13 129.63 121.216 129.63 118.854C129.63 116.492 127.707 114.577 125.336 114.577C122.964 114.577 121.042 116.492 121.042 118.854C121.042 121.216 122.964 123.13 125.336 123.13Z" fill="#1E1E1E" fill-opacity="0.63"/>
<path d="M119.331 114.734C120.567 114.734 121.568 113.736 121.568 112.506C121.568 111.276 120.567 110.278 119.331 110.278C118.096 110.278 117.095 111.276 117.095 112.506C117.095 113.736 118.096 114.734 119.331 114.734Z" fill="#1E1E1E" fill-opacity="0.63"/>
<path d="M124.538 107.906C125.251 107.906 125.829 107.331 125.829 106.621C125.829 105.911 125.251 105.336 124.538 105.336C123.826 105.336 123.248 105.911 123.248 106.621C123.248 107.331 123.826 107.906 124.538 107.906Z" fill="#1E1E1E" fill-opacity="0.63"/>
<path d="M130.539 113.665C132.247 113.665 133.632 112.285 133.632 110.584C133.632 108.883 132.247 107.504 130.539 107.504C128.831 107.504 127.446 108.883 127.446 110.584C127.446 112.285 128.831 113.665 130.539 113.665Z" fill="#1E1E1E" fill-opacity="0.63"/>
<path d="M42.8729 116.4C45.2444 116.4 47.1668 114.485 47.1668 112.123C47.1668 109.761 45.2444 107.847 42.8729 107.847C40.5015 107.847 38.5791 109.761 38.5791 112.123C38.5791 114.485 40.5015 116.4 42.8729 116.4Z" fill="#1E1E1E" fill-opacity="0.63"/>
<path d="M36.8684 108.003C38.1037 108.003 39.105 107.006 39.105 105.775C39.105 104.545 38.1037 103.548 36.8684 103.548C35.6332 103.548 34.6318 104.545 34.6318 105.775C34.6318 107.006 35.6332 108.003 36.8684 108.003Z" fill="#1E1E1E" fill-opacity="0.63"/>
<path d="M42.0754 101.174C42.788 101.174 43.3657 100.599 43.3657 99.8894C43.3657 99.1798 42.788 98.6045 42.0754 98.6045C41.3628 98.6045 40.7852 99.1798 40.7852 99.8894C40.7852 100.599 41.3628 101.174 42.0754 101.174Z" fill="#1E1E1E" fill-opacity="0.63"/>
<path d="M48.0761 106.933C49.7842 106.933 51.1689 105.554 51.1689 103.853C51.1689 102.152 49.7842 100.772 48.0761 100.772C46.3681 100.772 44.9834 102.152 44.9834 103.853C44.9834 105.554 46.3681 106.933 48.0761 106.933Z" fill="#1E1E1E" fill-opacity="0.63"/>
</svg>
