<svg width="25" height="25" viewBox="0 0 25 25" fill="none" xmlns="http://www.w3.org/2000/svg">
<path d="M22.7988 6.46314L22.7988 17.0656C22.803 17.5898 22.5994 18.0943 22.2325 18.4687C21.8657 18.843 21.3654 19.0568 20.8413 19.0631L22.7988 6.46314ZM22.7988 6.46314C22.8008 5.94547 22.6009 5.44739 22.2416 5.07468M22.7988 6.46314L22.2416 5.07468M11.202 6.57859L11.2085 6.58186C11.5277 6.74252 11.7951 6.99003 11.98 7.29591C12.1646 7.60147 12.2594 7.9529 12.2533 8.30985L12.2533 18.6569L12.2533 18.8189L12.0967 18.7779C9.70574 18.1511 7.24325 17.8392 4.77159 17.8498L4.76953 17.8498C4.56329 17.8473 4.36637 17.7635 4.22157 17.6166C4.07679 17.4698 3.99581 17.2717 3.99621 17.0655M11.202 6.57859L4.12121 6.46314M11.202 6.57859L11.1951 6.57609C9.13552 5.82434 6.94029 5.51642 4.75336 5.67251C4.54991 5.68118 4.35761 5.768 4.21654 5.91494C4.07501 6.06237 3.99605 6.25887 3.99621 6.46324M11.202 6.57859L4.12121 6.46314M3.99621 17.0655C3.99621 17.0655 3.99621 17.0654 3.99621 17.0654L4.12121 17.0656L3.99621 17.0656L3.99621 17.0655ZM3.99621 17.0655L3.99621 6.46324M3.99621 6.46324L4.12121 6.46314M3.99621 6.46324L3.99621 6.46314L4.12121 6.46314M20.8188 17.8565L20.8166 17.8565C18.3455 17.8436 15.8831 18.152 13.4914 18.7739L13.335 18.8146L13.335 18.653L13.335 8.30991C13.3289 7.9533 13.4233 7.60216 13.6074 7.29667C13.7917 6.99086 14.0584 6.74317 14.377 6.58198L14.3884 6.57621L14.3886 6.57682C16.1513 5.90031 18.0326 5.58721 19.9194 5.65634L19.92 5.65634C20.2528 5.65634 20.563 5.65634 20.8328 5.67247M20.8188 17.8565L21.4671 6.46314L21.5921 6.46323C21.5923 6.2586 21.5131 6.06187 21.3712 5.9144C21.2297 5.76727 21.0367 5.68059 20.8328 5.67247M20.8188 17.8565C20.9216 17.8552 21.0232 17.8337 21.1177 17.7932C21.2122 17.7527 21.2978 17.694 21.3696 17.6205C21.4414 17.5469 21.498 17.4599 21.5362 17.3644C21.5743 17.2692 21.5933 17.1675 21.5921 17.0649M20.8188 17.8565L21.5921 17.0649M20.8328 5.67247C20.8332 5.6725 20.8337 5.67252 20.8341 5.67255L20.8266 5.79732L20.8314 5.67241C20.8318 5.67243 20.8323 5.67245 20.8328 5.67247ZM21.5921 17.0649L21.5921 17.0656L21.4671 17.0656L21.5921 17.0641C21.5921 17.0644 21.5921 17.0647 21.5921 17.0649ZM22.2416 5.07468C21.8824 4.70198 21.3919 4.48399 20.8745 4.46702L22.2416 5.07468ZM20.8658 4.59171L20.8658 4.5918L20.8704 4.59195C21.3553 4.60786 21.8149 4.81215 22.1516 5.16144C22.4884 5.51073 22.6756 5.97751 22.6738 6.46266L22.6738 6.46314L22.6738 17.0656L22.6738 17.0667C22.6778 17.5577 22.487 18.0304 22.1433 18.3812C21.7995 18.7319 21.3308 18.9322 20.8397 18.9381L20.8392 18.9381C20.0015 18.9521 18.554 19.0022 17.0664 19.1699C15.5832 19.3372 14.0433 19.623 13.0311 20.1159L13.03 20.1164C12.9571 20.1528 12.8766 20.1716 12.7951 20.1712C12.7159 20.1706 12.6379 20.1522 12.5668 20.1173L12.5666 20.1172C11.5543 19.6244 10.0145 19.3385 8.53129 19.1713C7.04366 19.0035 5.59612 18.9535 4.75849 18.9394L4.75791 18.9394C4.26684 18.9335 3.79812 18.7333 3.45439 18.3825C3.11065 18.0317 2.91989 17.5591 2.92389 17.068H2.92389L2.92389 17.067L2.9239 6.46447L2.92389 6.4639C2.92167 5.97875 3.10865 5.51183 3.44513 5.16231C3.7816 4.81278 4.24107 4.60818 4.72596 4.59195L4.72596 4.59203L4.73043 4.59172C7.09373 4.42776 9.46464 4.77357 11.6826 5.6057C12.0852 5.80919 12.433 6.10638 12.6968 6.47232L12.7981 6.61287L12.8995 6.4724C13.1636 6.10665 13.5114 5.80946 13.9138 5.60566C16.1312 4.77166 18.5025 4.4258 20.8658 4.59171Z" fill="#BDBDBD" stroke="white" stroke-width="0.25"/>
</svg>
