<svg width="19" height="18" viewBox="0 0 19 18" fill="none" xmlns="http://www.w3.org/2000/svg">
<path d="M12.079 10.138C12.079 11.5801 10.9162 12.7491 9.48178 12.7491C8.04735 12.7491 6.88451 11.5801 6.88451 10.138C6.88451 8.69603 8.04735 7.52704 9.48178 7.52704C10.9162 7.52704 12.079 8.69603 12.079 10.138Z" stroke="#1E1E1E" stroke-linejoin="round"/>
<path d="M6.37048 1.77463L5.63148 2.889C5.33266 3.33961 4.82793 3.61052 4.28724 3.61052V3.61052C2.37467 3.61052 0.824219 5.16918 0.824219 7.09187V13.1842C0.824219 15.1069 2.37467 16.6656 4.28724 16.6656H14.6763C16.5889 16.6656 18.1393 15.1069 18.1393 13.1842V7.09187C18.1393 5.16918 16.5889 3.61052 14.6763 3.61052V3.61052C14.1356 3.61052 13.6309 3.33961 13.3321 2.889L12.5931 1.77463C12.2719 1.29038 11.7313 0.999512 11.1524 0.999512H7.81119C7.23225 0.999512 6.69162 1.29038 6.37048 1.77463Z" stroke="#1E1E1E" stroke-linejoin="round"/>
<circle cx="9.06965" cy="3.47297" r="0.82453" fill="#1E1E1E"/>
</svg>
