<svg width="18" height="18" viewBox="0 0 18 18" fill="none" xmlns="http://www.w3.org/2000/svg">
<path d="M9.75043 15.7527H5.99887C3.92694 15.7527 2.2473 14.0731 2.2473 12.0011V5.99863C2.2473 3.9267 3.92694 2.24707 5.99887 2.24707H12.0014C14.0733 2.24707 15.7529 3.9267 15.7529 5.99863V9.7502" stroke="#1E1E1E" stroke-width="0.75" stroke-linecap="round" stroke-linejoin="round"/>
<path d="M10.9112 7.09028C11.9658 8.14523 11.9656 9.85532 10.9108 10.91C9.85598 11.9648 8.14588 11.9648 7.09105 10.91C6.03622 9.85532 6.03603 8.14523 7.09063 7.09028C7.59722 6.58353 8.28439 6.29883 9.00093 6.29883C9.71747 6.29883 10.4046 6.58353 10.9112 7.09028" stroke="#1E1E1E" stroke-width="0.75" stroke-linecap="round" stroke-linejoin="round"/>
<path d="M12.752 14.6222H16.5035" stroke="#1E1E1E" stroke-width="0.75" stroke-linecap="round" stroke-linejoin="round"/>
<path d="M14.6271 16.4986V12.7471" stroke="#1E1E1E" stroke-width="0.75" stroke-linecap="round" stroke-linejoin="round"/>
</svg>
