<svg width="101" height="83" viewBox="0 0 101 83" fill="none" xmlns="http://www.w3.org/2000/svg">
<g clip-path="url(#clip0_335_265)">
<path d="M22.5292 72.7969L22.5288 72.7974C22.2211 72.6102 21.8709 72.5144 21.514 72.5144C21.3243 72.5144 21.1349 72.5419 20.954 72.5972L20.9506 72.5982C15.8994 74.1222 11.1523 75.5434 7.72533 76.5672L5.92591 77.1048L6.48431 75.3117L10.5378 62.2955L22.5292 72.7969ZM22.5292 72.7969C28.2115 76.2474 34.7465 78.0714 41.426 78.0714C61.5586 78.0714 77.9338 61.6643 77.9338 41.5C77.9338 21.3357 61.5586 4.92857 41.426 4.92857C21.2933 4.92857 4.91816 21.3358 4.91816 41.504C4.91816 48.2926 6.79184 54.9246 10.3357 60.6777L10.336 60.6782C10.6328 61.1594 10.7072 61.7486 10.5381 62.2945L22.5292 72.7969ZM97.5336 64.3581L97.389 64.664L97.4599 64.9948L99.9572 76.6602L99.9573 76.6606C100.089 77.2761 99.918 77.9181 99.4986 78.3855C99.0757 78.8546 98.4578 79.0919 97.8378 79.0256L97.8363 79.0254L83.4004 77.5037L83.1742 77.4799L82.96 77.5562C80.206 78.5374 77.3211 79.0357 74.3693 79.0357C70.384 79.0357 66.4598 78.1055 62.9217 76.3352L62.4333 76.0909L61.9638 76.3696C55.9409 79.9447 48.9202 82 41.426 82C34.4664 82 27.6484 80.2102 21.6243 76.8149L21.2529 76.6056L20.8448 76.7285C16.1981 78.1284 11.8866 79.4201 8.72635 80.3649C7.14626 80.8372 5.85405 81.2228 4.95174 81.4918L3.90357 81.804L3.62299 81.8874C3.55345 81.9081 3.52524 81.9164 3.52635 81.9161L3.52633 81.916L3.51556 81.9192C3.33292 81.9737 3.14534 82 2.95918 82C2.44266 82 1.93893 81.7949 1.56501 81.4151L1.56462 81.4147C1.05681 80.8994 0.873103 80.1435 1.08913 79.4496L6.4054 62.3814L6.53482 61.9659L6.31896 61.588C2.83511 55.489 1.00019 48.5734 1.00019 41.5C1.00019 19.1683 19.1386 1 41.426 1C58.88 1 73.7904 12.1405 79.436 27.7034L79.6212 28.2139L80.1502 28.3365C85.4325 29.561 90.231 32.4577 93.803 36.6145L94.5614 35.9627L93.803 36.6145C97.7992 41.2644 100 47.2106 100 53.3571C100 57.1598 99.1492 60.9405 97.5336 64.3581ZM93.4128 64.8054L93.4124 64.8055C93.3158 64.3543 93.3803 63.8846 93.594 63.4786L93.5944 63.4779C95.2444 60.3377 96.0822 56.931 96.0822 53.3611C96.0822 44.3045 90.626 36.4597 82.5714 33.2056L80.8923 32.5272L81.2126 34.3096C81.6322 36.6449 81.8517 39.048 81.8517 41.504C81.8517 53.8726 76.286 64.9635 67.5298 72.4003L66.1471 73.5747L67.8783 74.1168C69.9684 74.7713 72.1562 75.1111 74.3693 75.1111C77.0707 75.1111 79.7085 74.618 82.2092 73.6483L82.2094 73.6482C82.4991 73.5358 82.8125 73.4939 83.1215 73.5266L83.1218 73.5266L94.1884 74.6926L95.5595 74.837L95.271 73.4888L93.4128 64.8054Z" fill="#5A5A5A" stroke="white" stroke-width="2"/>
<path d="M41.4258 29.6307H25.6445C24.5651 29.6307 23.6855 28.7521 23.6855 27.6664C23.6855 26.5807 24.5651 25.7021 25.6445 25.7021H41.4258C42.5052 25.7021 43.3848 26.5807 43.3848 27.6664C43.3848 28.7521 42.5052 29.6307 41.4258 29.6307Z" fill="#5A5A5A" stroke="white" stroke-width="2"/>
<path d="M25.6445 39.5356H57.207C58.2864 39.5356 59.166 40.4142 59.166 41.4999C59.166 42.5856 58.2864 43.4642 57.207 43.4642H25.6445C24.5651 43.4642 23.6855 42.5856 23.6855 41.4999C23.6855 40.4142 24.5651 39.5356 25.6445 39.5356Z" fill="#5A5A5A" stroke="white" stroke-width="2"/>
<path d="M25.6445 53.3691H57.207C58.2864 53.3691 59.166 54.2477 59.166 55.3334C59.166 56.4191 58.2864 57.2977 57.207 57.2977H25.6445C24.5651 57.2977 23.6855 56.4191 23.6855 55.3334C23.6855 54.2477 24.5651 53.3691 25.6445 53.3691Z" fill="#5A5A5A" stroke="white" stroke-width="2"/>
</g>
<defs>
<clipPath id="clip0_335_265">
<rect width="101" height="83" fill="white"/>
</clipPath>
</defs>
</svg>
