<svg width="15" height="15" viewBox="0 0 15 15" fill="none" xmlns="http://www.w3.org/2000/svg">
<path d="M12.5397 12.6225H11.6997V5.06251C11.7038 5.00127 11.6873 4.9404 11.6528 4.88964C11.6183 4.83888 11.5678 4.80116 11.5093 4.78251L9.45969 3.92571V12.6225H8.89969V2.82251C8.89969 2.74825 8.87019 2.67703 8.81768 2.62452C8.76517 2.57201 8.69395 2.54251 8.61969 2.54251H3.57969C3.50543 2.54251 3.43421 2.57201 3.3817 2.62452C3.32919 2.67703 3.29969 2.74825 3.29969 2.82251V12.6225H2.45969C2.38543 12.6225 2.31421 12.652 2.2617 12.7045C2.20919 12.757 2.17969 12.8283 2.17969 12.9025C2.17969 12.9768 2.20919 13.048 2.2617 13.1005C2.31421 13.153 2.38543 13.1825 2.45969 13.1825H12.5397C12.6139 13.1825 12.6852 13.153 12.7377 13.1005C12.7902 13.048 12.8197 12.9768 12.8197 12.9025C12.8197 12.8283 12.7902 12.757 12.7377 12.7045C12.6852 12.652 12.6139 12.6225 12.5397 12.6225ZM10.2997 5.90251H10.8597C10.9339 5.90251 11.0052 5.93201 11.0577 5.98452C11.1102 6.03703 11.1397 6.10825 11.1397 6.18251C11.1383 6.25632 11.1083 6.32671 11.0561 6.37891C11.0039 6.43112 10.9335 6.46108 10.8597 6.46251H10.2997C10.2259 6.46108 10.1555 6.43112 10.1033 6.37891C10.0511 6.32671 10.0211 6.25632 10.0197 6.18251C10.0197 6.10825 10.0492 6.03703 10.1017 5.98452C10.1542 5.93201 10.2254 5.90251 10.2997 5.90251ZM10.2997 7.58251H10.8597C10.9339 7.58251 11.0052 7.61201 11.0577 7.66452C11.1102 7.71703 11.1397 7.78825 11.1397 7.86251C11.1397 7.93677 11.1102 8.00799 11.0577 8.0605C11.0052 8.11301 10.9339 8.14251 10.8597 8.14251H10.2997C10.2254 8.14251 10.1542 8.11301 10.1017 8.0605C10.0492 8.00799 10.0197 7.93677 10.0197 7.86251C10.0197 7.78825 10.0492 7.71703 10.1017 7.66452C10.1542 7.61201 10.2254 7.58251 10.2997 7.58251ZM10.2997 9.26251H10.8597C10.9335 9.26394 11.0039 9.2939 11.0561 9.34611C11.1083 9.39831 11.1383 9.4687 11.1397 9.54251C11.1397 9.61677 11.1102 9.68799 11.0577 9.7405C11.0052 9.79301 10.9339 9.82251 10.8597 9.82251H10.2997C10.2254 9.82251 10.1542 9.79301 10.1017 9.7405C10.0492 9.68799 10.0197 9.61677 10.0197 9.54251C10.0211 9.4687 10.0511 9.39831 10.1033 9.34611C10.1555 9.2939 10.2259 9.26394 10.2997 9.26251ZM10.2997 10.9425H10.8597C10.9339 10.9425 11.0052 10.972 11.0577 11.0245C11.1102 11.077 11.1397 11.1483 11.1397 11.2225C11.1397 11.2968 11.1102 11.368 11.0577 11.4205C11.0052 11.473 10.9339 11.5025 10.8597 11.5025H10.2997C10.2254 11.5025 10.1542 11.473 10.1017 11.4205C10.0492 11.368 10.0197 11.2968 10.0197 11.2225C10.0197 11.1483 10.0492 11.077 10.1017 11.0245C10.1542 10.972 10.2254 10.9425 10.2997 10.9425ZM6.65969 4.22251H7.21969C7.29395 4.22251 7.36517 4.25201 7.41768 4.30452C7.47019 4.35703 7.49969 4.42825 7.49969 4.50251C7.49969 4.57677 7.47019 4.64799 7.41768 4.7005C7.36517 4.75301 7.29395 4.78251 7.21969 4.78251H6.65969C6.58543 4.78251 6.51421 4.75301 6.4617 4.7005C6.40919 4.64799 6.37969 4.57677 6.37969 4.50251C6.37969 4.42825 6.40919 4.35703 6.4617 4.30452C6.51421 4.25201 6.58543 4.22251 6.65969 4.22251ZM6.65969 5.90251H7.21969C7.29395 5.90251 7.36517 5.93201 7.41768 5.98452C7.47019 6.03703 7.49969 6.10825 7.49969 6.18251C7.49969 6.25677 7.47019 6.32799 7.41768 6.3805C7.36517 6.43301 7.29395 6.46251 7.21969 6.46251H6.65969C6.58543 6.46251 6.51421 6.43301 6.4617 6.3805C6.40919 6.32799 6.37969 6.25677 6.37969 6.18251C6.37969 6.10825 6.40919 6.03703 6.4617 5.98452C6.51421 5.93201 6.58543 5.90251 6.65969 5.90251ZM6.65969 7.58251H7.21969C7.29395 7.58251 7.36517 7.61201 7.41768 7.66452C7.47019 7.71703 7.49969 7.78825 7.49969 7.86251C7.49969 7.93677 7.47019 8.00799 7.41768 8.0605C7.36517 8.11301 7.29395 8.14251 7.21969 8.14251H6.65969C6.58543 8.14251 6.51421 8.11301 6.4617 8.0605C6.40919 8.00799 6.37969 7.93677 6.37969 7.86251C6.37969 7.78825 6.40919 7.71703 6.4617 7.66452C6.51421 7.61201 6.58543 7.58251 6.65969 7.58251ZM6.65969 9.26251H7.21969C7.29395 9.26251 7.36517 9.29201 7.41768 9.34452C7.47019 9.39703 7.49969 9.46825 7.49969 9.54251C7.49969 9.61677 7.47019 9.68799 7.41768 9.7405C7.36517 9.79301 7.29395 9.82251 7.21969 9.82251H6.65969C6.58543 9.82251 6.51421 9.79301 6.4617 9.7405C6.40919 9.68799 6.37969 9.61677 6.37969 9.54251C6.37969 9.46825 6.40919 9.39703 6.4617 9.34452C6.51421 9.29201 6.58543 9.26251 6.65969 9.26251ZM4.94609 4.22251H5.53969C5.61395 4.22251 5.68517 4.25201 5.73768 4.30452C5.79019 4.35703 5.81969 4.42825 5.81969 4.50251C5.81969 4.57677 5.79019 4.64799 5.73768 4.7005C5.68517 4.75301 5.61395 4.78251 5.53969 4.78251H4.97969C4.90543 4.78251 4.83421 4.75301 4.7817 4.7005C4.72919 4.64799 4.69969 4.57677 4.69969 4.50251C4.69969 4.42825 4.72919 4.35703 4.7817 4.30452C4.83421 4.25201 4.90543 4.22251 4.97969 4.22251H4.94609ZM4.94609 5.90251H5.53969C5.61395 5.90251 5.68517 5.93201 5.73768 5.98452C5.79019 6.03703 5.81969 6.10825 5.81969 6.18251C5.81969 6.25677 5.79019 6.32799 5.73768 6.3805C5.68517 6.43301 5.61395 6.46251 5.53969 6.46251H4.97969C4.90543 6.46251 4.83421 6.43301 4.7817 6.3805C4.72919 6.32799 4.69969 6.25677 4.69969 6.18251C4.69969 6.10825 4.72919 6.03703 4.7817 5.98452C4.83421 5.93201 4.90543 5.90251 4.97969 5.90251H4.94609ZM4.94609 7.58251H5.53969C5.61395 7.58251 5.68517 7.61201 5.73768 7.66452C5.79019 7.71703 5.81969 7.78825 5.81969 7.86251C5.81969 7.93677 5.79019 8.00799 5.73768 8.0605C5.68517 8.11301 5.61395 8.14251 5.53969 8.14251H4.97969C4.90543 8.14251 4.83421 8.11301 4.7817 8.0605C4.72919 8.00799 4.69969 7.93677 4.69969 7.86251C4.69969 7.78825 4.72919 7.71703 4.7817 7.66452C4.83421 7.61201 4.90543 7.58251 4.97969 7.58251H4.94609ZM4.94609 9.26251H5.53969C5.61395 9.26251 5.68517 9.29201 5.73768 9.34452C5.79019 9.39703 5.81969 9.46825 5.81969 9.54251C5.81969 9.61677 5.79019 9.68799 5.73768 9.7405C5.68517 9.79301 5.61395 9.82251 5.53969 9.82251H4.97969C4.90543 9.82251 4.83421 9.79301 4.7817 9.7405C4.72919 9.68799 4.69969 9.61677 4.69969 9.54251C4.69969 9.46825 4.72919 9.39703 4.7817 9.34452C4.83421 9.29201 4.90543 9.26251 4.97969 9.26251H4.94609ZM6.37969 12.6225V11.5025H5.81969V12.6225H5.25969V11.2057C5.26397 11.1344 5.29536 11.0674 5.34741 11.0185C5.39946 10.9696 5.46825 10.9424 5.53969 10.9425H6.65969C6.73395 10.9425 6.80517 10.972 6.85768 11.0245C6.91019 11.077 6.93969 11.1483 6.93969 11.2225V12.6225H6.37969Z" fill="#1E1E1E"/>
</svg>
