<svg width="22" height="22" viewBox="0 0 22 22" fill="none" xmlns="http://www.w3.org/2000/svg">
<path d="M17.3659 8.24661L17.0553 17.6459C17.0289 18.4509 16.6898 19.2139 16.11 19.7729C15.5302 20.332 14.7554 20.6431 13.9499 20.6402H8.04969C7.24479 20.6431 6.4704 20.3324 5.8907 19.774C5.31099 19.2156 4.97154 18.4534 4.94429 17.649L4.63375 8.24661C4.62696 8.04071 4.70224 7.84055 4.84303 7.69015C4.98382 7.53975 5.17858 7.45144 5.38448 7.44465C5.59038 7.43785 5.79055 7.51313 5.94095 7.65392C6.09135 7.79471 6.17966 7.98947 6.18645 8.19537L6.49699 17.597C6.51245 17.9983 6.68284 18.3781 6.97237 18.6564C7.2619 18.9348 7.64804 19.0902 8.04969 19.0899H13.9499C14.3521 19.0901 14.7387 18.9344 15.0283 18.6553C15.3179 18.3763 15.488 17.9958 15.5026 17.5939L15.8132 8.19537C15.82 7.98947 15.9083 7.79471 16.0587 7.65392C16.2091 7.51313 16.4092 7.43785 16.6151 7.44465C16.821 7.45144 17.0158 7.53975 17.1566 7.69015C17.2974 7.84055 17.3727 8.04071 17.3659 8.24661ZM18.393 5.11871C18.393 5.32461 18.3112 5.52207 18.1656 5.66767C18.02 5.81326 17.8225 5.89505 17.6166 5.89505H4.38377C4.17787 5.89505 3.9804 5.81326 3.83481 5.66767C3.68922 5.52207 3.60742 5.32461 3.60742 5.11871C3.60742 4.91281 3.68922 4.71534 3.83481 4.56975C3.9804 4.42415 4.17787 4.34236 4.38377 4.34236H6.79045C7.03644 4.34302 7.27387 4.25214 7.45654 4.0874C7.63922 3.92266 7.75407 3.69585 7.77874 3.45111C7.83603 2.87699 8.10501 2.34476 8.53327 1.95812C8.96153 1.57148 9.5184 1.35813 10.0954 1.35963H11.9043C12.4812 1.35813 13.0381 1.57148 13.4664 1.95812C13.8946 2.34476 14.1636 2.87699 14.2209 3.45111C14.2456 3.69585 14.3604 3.92266 14.5431 4.0874C14.7258 4.25214 14.9632 4.34302 15.2092 4.34236H17.6159C17.8218 4.34236 18.0192 4.42415 18.1648 4.56975C18.3104 4.71534 18.3922 4.91281 18.3922 5.11871H18.393ZM9.12648 4.34236H12.8747C12.7727 4.10925 12.706 3.86225 12.6767 3.60948C12.6575 3.41812 12.5679 3.24071 12.4253 3.11162C12.2828 2.98253 12.0974 2.91096 11.905 2.91077H10.0961C9.90382 2.91096 9.7184 2.98253 9.57583 3.11162C9.43326 3.24071 9.34369 3.41812 9.32445 3.60948C9.29498 3.86229 9.22877 4.1093 9.12648 4.34236ZM9.90827 16.1048V9.49421C9.90827 9.28831 9.82647 9.09084 9.68088 8.94525C9.53529 8.79965 9.33782 8.71786 9.13192 8.71786C8.92602 8.71786 8.72855 8.79965 8.58296 8.94525C8.43736 9.09084 8.35557 9.28831 8.35557 9.49421V16.1079C8.35557 16.3138 8.43736 16.5113 8.58296 16.6569C8.72855 16.8025 8.92602 16.8843 9.13192 16.8843C9.33782 16.8843 9.53529 16.8025 9.68088 16.6569C9.82647 16.5113 9.90827 16.3138 9.90827 16.1079V16.1048ZM13.6456 16.1048V9.49421C13.6456 9.28831 13.5638 9.09084 13.4182 8.94525C13.2726 8.79965 13.0752 8.71786 12.8693 8.71786C12.6634 8.71786 12.4659 8.79965 12.3203 8.94525C12.1747 9.09084 12.0929 9.28831 12.0929 9.49421V16.1079C12.0929 16.3138 12.1747 16.5113 12.3203 16.6569C12.4659 16.8025 12.6634 16.8843 12.8693 16.8843C13.0752 16.8843 13.2726 16.8025 13.4182 16.6569C13.5638 16.5113 13.6456 16.3138 13.6456 16.1079V16.1048Z" fill="#FE0101"/>
</svg>
