<svg width="113" height="53" viewBox="0 0 113 53" fill="none" xmlns="http://www.w3.org/2000/svg">
<rect x="30.5" y="0.5" width="52" height="52" rx="10.7368" fill="#1E1E1E" fill-opacity="0.16"/>
<rect x="39.5" y="9" width="35" height="35" rx="12" fill="#1E1E1E"/>
<path d="M61.9154 24.7136L61.6803 31.829C61.6603 32.4384 61.4036 33.016 60.9647 33.4392C60.5258 33.8625 59.9392 34.098 59.3295 34.0958H54.8629C54.2536 34.098 53.6673 33.8628 53.2285 33.4401C52.7896 33.0174 52.5327 32.4403 52.512 31.8314L52.277 24.7136C52.2718 24.5577 52.3288 24.4062 52.4354 24.2923C52.542 24.1785 52.6894 24.1116 52.8453 24.1065C53.0011 24.1013 53.1527 24.1583 53.2665 24.2649C53.3804 24.3715 53.4472 24.5189 53.4524 24.6748L53.6875 31.792C53.6992 32.0958 53.8282 32.3833 54.0473 32.594C54.2665 32.8048 54.5588 32.9224 54.8629 32.9222H59.3295C59.6339 32.9224 59.9266 32.8044 60.1458 32.5932C60.3651 32.3819 60.4938 32.0939 60.5049 31.7896L60.74 24.6748C60.7451 24.5189 60.812 24.3715 60.9258 24.2649C61.0397 24.1583 61.1912 24.1013 61.3471 24.1065C61.503 24.1116 61.6504 24.1785 61.757 24.2923C61.8636 24.4062 61.9206 24.5577 61.9154 24.7136ZM62.693 22.3457C62.693 22.5016 62.631 22.6511 62.5208 22.7613C62.4106 22.8715 62.2611 22.9334 62.1052 22.9334H52.0877C51.9318 22.9334 51.7824 22.8715 51.6721 22.7613C51.5619 22.6511 51.5 22.5016 51.5 22.3457C51.5 22.1898 51.5619 22.0403 51.6721 21.9301C51.7824 21.8199 51.9318 21.758 52.0877 21.758H53.9096C54.0958 21.7585 54.2756 21.6897 54.4139 21.565C54.5521 21.4403 54.6391 21.2686 54.6578 21.0833C54.7011 20.6487 54.9048 20.2458 55.229 19.9531C55.5532 19.6604 55.9747 19.4989 56.4115 19.5H57.7809C58.2176 19.4989 58.6392 19.6604 58.9634 19.9531C59.2876 20.2458 59.4912 20.6487 59.5346 21.0833C59.5533 21.2686 59.6402 21.4403 59.7785 21.565C59.9168 21.6897 60.0965 21.7585 60.2828 21.758H62.1047C62.2605 21.758 62.41 21.8199 62.5202 21.9301C62.6305 22.0403 62.6924 22.1898 62.6924 22.3457H62.693ZM55.678 21.758H58.5155C58.4383 21.5815 58.3878 21.3945 58.3656 21.2032C58.3511 21.0583 58.2833 20.924 58.1753 20.8263C58.0674 20.7286 57.9271 20.6744 57.7815 20.6743H56.4121C56.2665 20.6744 56.1261 20.7286 56.0182 20.8263C55.9103 20.924 55.8425 21.0583 55.8279 21.2032C55.8056 21.3946 55.7555 21.5816 55.678 21.758ZM56.2699 30.6624V25.658C56.2699 25.5022 56.2079 25.3527 56.0977 25.2425C55.9875 25.1323 55.838 25.0703 55.6822 25.0703C55.5263 25.0703 55.3768 25.1323 55.2666 25.2425C55.1564 25.3527 55.0944 25.5022 55.0944 25.658V30.6648C55.0944 30.8206 55.1564 30.9701 55.2666 31.0803C55.3768 31.1905 55.5263 31.2525 55.6822 31.2525C55.838 31.2525 55.9875 31.1905 56.0977 31.0803C56.2079 30.9701 56.2699 30.8206 56.2699 30.6648V30.6624ZM59.0991 30.6624V25.658C59.0991 25.5022 59.0372 25.3527 58.927 25.2425C58.8168 25.1323 58.6673 25.0703 58.5114 25.0703C58.3555 25.0703 58.206 25.1323 58.0958 25.2425C57.9856 25.3527 57.9237 25.5022 57.9237 25.658V30.6648C57.9237 30.8206 57.9856 30.9701 58.0958 31.0803C58.206 31.1905 58.3555 31.2525 58.5114 31.2525C58.6673 31.2525 58.8168 31.1905 58.927 31.0803C59.0372 30.9701 59.0991 30.8206 59.0991 30.6648V30.6624Z" fill="white"/>
</svg>
