<svg width="9" height="8" viewBox="0 0 9 8" fill="none" xmlns="http://www.w3.org/2000/svg">
<g clip-path="url(#clip0_68_1411)">
<path d="M7.45295 1.29199H1.54688C1.33975 1.29223 1.14117 1.37461 0.994708 1.52108C0.848246 1.66754 0.765861 1.86611 0.765625 2.07324V5.92637C0.765861 6.13349 0.848246 6.33207 0.994708 6.47853C1.14117 6.625 1.33975 6.70738 1.54688 6.70762H7.45294C7.66007 6.70738 7.85864 6.625 8.0051 6.47853C8.15157 6.33207 8.23395 6.13349 8.23419 5.92637V2.07324C8.23396 1.86611 8.15158 1.66753 8.00512 1.52107C7.85866 1.37461 7.66008 1.29222 7.45295 1.29199ZM6.06389 3.99874L7.9217 2.54065V5.80218L6.06389 3.99874ZM1.54688 1.60449H7.45294C7.57721 1.60463 7.69636 1.65406 7.78424 1.74194C7.87212 1.82982 7.92155 1.94897 7.92169 2.07324V2.1434L4.91528 4.50305C4.80536 4.58887 4.66989 4.63542 4.53044 4.63531C4.39099 4.6352 4.25559 4.58842 4.14581 4.50243L1.07812 2.1428V2.07324C1.07827 1.94897 1.1277 1.82982 1.21557 1.74194C1.30345 1.65406 1.4226 1.60463 1.54688 1.60449ZM2.99122 4.00855L1.07812 5.80848V2.53705L2.99122 4.00855ZM7.45295 6.39512H1.54688C1.46685 6.39507 1.38817 6.37454 1.31832 6.33549C1.24847 6.29643 1.18979 6.24015 1.14784 6.17199L3.24213 4.20168L3.95434 4.74949C4.11906 4.87815 4.32208 4.94802 4.53108 4.94796C4.74009 4.94791 4.94307 4.87794 5.10772 4.7492L5.81583 4.19355L7.85278 6.17074C7.81092 6.23924 7.75217 6.29584 7.68216 6.33513C7.61215 6.37441 7.53323 6.39507 7.45295 6.39512Z" fill="white"/>
</g>
<defs>
<clipPath id="clip0_68_1411">
<rect width="8" height="8" fill="white" transform="translate(0.5)"/>
</clipPath>
</defs>
</svg>
