<svg width="15" height="14" viewBox="0 0 15 14" fill="none" xmlns="http://www.w3.org/2000/svg">
<path d="M3.0793 2.27866C3.0241 2.22959 2.95856 2.19067 2.88644 2.16411C2.81431 2.13755 2.73701 2.12389 2.65894 2.12389C2.58087 2.12389 2.50356 2.13755 2.43144 2.16411C2.35931 2.19067 2.29378 2.22959 2.23857 2.27866C2.12709 2.37776 2.06445 2.51217 2.06445 2.65232C2.06445 2.79246 2.12709 2.92687 2.23857 3.02597L5.57188 5.98891C5.36099 6.33763 5.28212 6.73747 5.34695 7.12917C5.41178 7.52086 5.61687 7.88357 5.93182 8.16352C6.24676 8.44347 6.6548 8.62577 7.09546 8.6834C7.53612 8.74103 7.98594 8.67092 8.37825 8.48346L11.7116 11.4464C11.7666 11.4957 11.8321 11.5349 11.9042 11.5616C11.9764 11.5883 12.0538 11.6021 12.1319 11.6021C12.2101 11.6021 12.2875 11.5883 12.3596 11.5616C12.4318 11.5349 12.4972 11.4957 12.5523 11.4464C12.6078 11.3975 12.6518 11.3393 12.6819 11.2751C12.7119 11.211 12.7274 11.1422 12.7274 11.0727C12.7274 11.0033 12.7119 10.9345 12.6819 10.8703C12.6518 10.8062 12.6078 10.748 12.5523 10.6991L3.0793 2.27866ZM7.39543 7.65194C7.15989 7.65194 6.934 7.56877 6.76745 7.42073C6.6009 7.27269 6.50734 7.07189 6.50734 6.86253V6.82569L7.43095 7.64668L7.39543 7.65194Z" fill="#A7A7A7"/>
<path d="M7.52588 9.49389C4.98001 9.54652 3.3104 7.60456 2.78939 6.86251C3.16029 6.33659 3.60605 5.85546 4.1156 5.43103L3.25119 4.68898C2.58295 5.24866 2.01047 5.89228 1.55198 6.59937C1.50001 6.67937 1.47266 6.77012 1.47266 6.86251C1.47266 6.95489 1.50001 7.04564 1.55198 7.12564C1.92498 7.69929 3.92022 10.5464 7.40747 10.5464H7.55548C8.21122 10.5292 8.85847 10.4098 9.46784 10.1938L8.53238 9.36232C8.20341 9.43925 7.86583 9.48337 7.52588 9.49389ZM13.2393 6.59937C12.8604 6.0152 10.7704 3.08384 7.23577 3.17857C6.58003 3.19586 5.93278 3.3152 5.32341 3.53117L6.25887 4.36269C6.58783 4.28576 6.92542 4.24164 7.26537 4.23112C9.80532 4.17323 11.4749 6.12046 12.0019 6.86251C11.6218 7.38999 11.166 7.8712 10.646 8.29398L11.5401 9.03603C12.2167 8.47782 12.7972 7.83413 13.263 7.12564C13.3114 7.0438 13.3347 6.95207 13.3305 6.85968C13.3263 6.76729 13.2949 6.67751 13.2393 6.59937Z" fill="#A7A7A7"/>
</svg>
