<svg width="15" height="15" viewBox="0 0 15 15" fill="none" xmlns="http://www.w3.org/2000/svg">
<path fill-rule="evenodd" clip-rule="evenodd" d="M5.00462 5.38752C5.00462 4.73111 5.26757 4.10158 5.73562 3.63743C6.20368 3.17328 6.83849 2.91252 7.50042 2.91252C8.16235 2.91252 8.79716 3.17328 9.26521 3.63743C9.73327 4.10158 9.99622 4.73111 9.99622 5.38752C9.99622 6.04393 9.73327 6.67345 9.26521 7.13761C8.79716 7.60176 8.16235 7.86252 7.50042 7.86252C6.83849 7.86252 6.20368 7.60176 5.73562 7.13761C5.26757 6.67345 5.00462 6.04393 5.00462 5.38752ZM2.78613 13.0875C2.78613 11.8476 3.28282 10.6585 4.16692 9.78179C5.05102 8.90506 6.25011 8.41252 7.50042 8.41252C8.75072 8.41252 9.94982 8.90506 10.8339 9.78179C11.718 10.6585 12.2147 11.8476 12.2147 13.0875C12.2147 13.1605 12.1855 13.2304 12.1335 13.282C12.0815 13.3335 12.0109 13.3625 11.9374 13.3625H3.06344C2.9899 13.3625 2.91936 13.3335 2.86736 13.282C2.81535 13.2304 2.78613 13.1605 2.78613 13.0875ZM3.06344 2.63752C3.06344 2.56458 3.09266 2.49464 3.14467 2.44306C3.19667 2.39149 3.26721 2.36252 3.34075 2.36252H5.00462V2.91252H3.61807V4.56252H3.06344V2.63752ZM11.3828 2.91252H9.99622V2.36252H11.6601C11.7336 2.36252 11.8042 2.39149 11.8562 2.44306C11.9082 2.49464 11.9374 2.56458 11.9374 2.63752V4.56252H11.3828V2.91252ZM3.61807 7.86252V6.21252H3.06344V8.13752C3.06344 8.21045 3.09266 8.2804 3.14467 8.33197C3.19667 8.38354 3.26721 8.41252 3.34075 8.41252H5.00462V7.86252H3.61807ZM11.3828 7.86252V6.21252H11.9374V8.13752C11.9374 8.21045 11.9082 8.2804 11.8562 8.33197C11.8042 8.38354 11.7336 8.41252 11.6601 8.41252H9.99622V7.86252H11.3828Z" fill="#1E1E1E"/>
</svg>
