<svg width="21" height="21" viewBox="0 0 21 21" fill="none" xmlns="http://www.w3.org/2000/svg">
<g clip-path="url(#clip0_619_3122)">
<path d="M16.3549 0.966797H4.64508C2.35581 0.966797 0.5 2.82261 0.5 5.11187V16.8217C0.5 19.111 2.35581 20.9668 4.64508 20.9668H16.3549C18.6442 20.9668 20.5 19.111 20.5 16.8217V5.11187C20.5 2.82261 18.6442 0.966797 16.3549 0.966797Z" fill="#1E1E1E"/>
<path d="M11.2974 16.6108V11.258H13.0942L13.3637 9.17186H11.2974V7.83995C11.2974 7.23601 11.4652 6.82441 12.3313 6.82441H13.436V4.95912C12.9013 4.90256 12.3639 4.87515 11.8263 4.87704C10.2335 4.87704 9.14315 5.84917 9.14315 7.63456V9.17186H7.3418V11.258H9.14315V16.6108H11.2974Z" fill="#FDFDFD"/>
</g>
<defs>
<clipPath id="clip0_619_3122">
<rect width="20" height="20" fill="white" transform="translate(0.5 0.966797)"/>
</clipPath>
</defs>
</svg>
