<svg width="20" height="19" viewBox="0 0 20 19" fill="none" xmlns="http://www.w3.org/2000/svg">
<path fill-rule="evenodd" clip-rule="evenodd" d="M17.8863 2.66503H16.7329C16.5293 2.08782 16.1516 1.58799 15.6519 1.23444C15.1522 0.880898 14.5552 0.69104 13.9431 0.69104C13.3311 0.69104 12.734 0.880898 12.2344 1.23444C11.7347 1.58799 11.357 2.08782 11.1534 2.66503H2.11372C1.85227 2.66503 1.60153 2.76889 1.41666 2.95376C1.23179 3.13863 1.12793 3.38937 1.12793 3.65081C1.12793 3.91226 1.23179 4.163 1.41666 4.34787C1.60153 4.53274 1.85227 4.6366 2.11372 4.6366H11.1534C11.357 5.21381 11.7347 5.71363 12.2344 6.06718C12.734 6.42073 13.3311 6.61059 13.9431 6.61059C14.5552 6.61059 15.1522 6.42073 15.6519 6.06718C16.1516 5.71363 16.5293 5.21381 16.7329 4.6366H17.8863C18.1477 4.6366 18.3985 4.53274 18.5833 4.34787C18.7682 4.163 18.8721 3.91226 18.8721 3.65081C18.8721 3.38937 18.7682 3.13863 18.5833 2.95376C18.3985 2.76889 18.1477 2.66503 17.8863 2.66503ZM13.9431 4.6366C14.2046 4.6366 14.4553 4.53274 14.6402 4.34787C14.8251 4.163 14.9289 3.91226 14.9289 3.65081C14.9289 3.38937 14.8251 3.13863 14.6402 2.95376C14.4553 2.76889 14.2046 2.66503 13.9431 2.66503C13.6817 2.66503 13.431 2.76889 13.2461 2.95376C13.0612 3.13863 12.9574 3.38937 12.9574 3.65081C12.9574 3.91226 13.0612 4.163 13.2461 4.34787C13.431 4.53274 13.6817 4.6366 13.9431 4.6366ZM1.12793 9.56553C1.12793 9.30408 1.23179 9.05334 1.41666 8.86847C1.60153 8.6836 1.85227 8.57974 2.11372 8.57974H3.26708C3.47075 8.00253 3.84844 7.5027 4.3481 7.14916C4.84775 6.79561 5.44477 6.60575 6.05686 6.60575C6.66894 6.60575 7.26596 6.79561 7.76562 7.14916C8.26527 7.5027 8.64297 8.00253 8.84663 8.57974H17.8863C18.1477 8.57974 18.3985 8.6836 18.5833 8.86847C18.7682 9.05334 18.8721 9.30408 18.8721 9.56553C18.8721 9.82697 18.7682 10.0777 18.5833 10.2626C18.3985 10.4475 18.1477 10.5513 17.8863 10.5513H8.84663C8.64297 11.1285 8.26527 11.6283 7.76562 11.9819C7.26596 12.3354 6.66894 12.5253 6.05686 12.5253C5.44477 12.5253 4.84775 12.3354 4.3481 11.9819C3.84844 11.6283 3.47075 11.1285 3.26708 10.5513H2.11372C1.85227 10.5513 1.60153 10.4475 1.41666 10.2626C1.23179 10.0777 1.12793 9.82697 1.12793 9.56553ZM6.05686 10.5513C6.3183 10.5513 6.56904 10.4475 6.75391 10.2626C6.93878 10.0777 7.04264 9.82697 7.04264 9.56553C7.04264 9.30408 6.93878 9.05334 6.75391 8.86847C6.56904 8.6836 6.3183 8.57974 6.05686 8.57974C5.79541 8.57974 5.54467 8.6836 5.3598 8.86847C5.17493 9.05334 5.07107 9.30408 5.07107 9.56553C5.07107 9.82697 5.17493 10.0777 5.3598 10.2626C5.54467 10.4475 5.79541 10.5513 6.05686 10.5513ZM2.11372 14.4945C1.85227 14.4945 1.60153 14.5983 1.41666 14.7832C1.23179 14.9681 1.12793 15.2188 1.12793 15.4802C1.12793 15.7417 1.23179 15.9924 1.41666 16.1773C1.60153 16.3622 1.85227 16.466 2.11372 16.466H11.1534C11.357 17.0432 11.7347 17.5431 12.2344 17.8966C12.734 18.2502 13.3311 18.44 13.9431 18.44C14.5552 18.44 15.1522 18.2502 15.6519 17.8966C16.1516 17.5431 16.5293 17.0432 16.7329 16.466H17.8863C18.1477 16.466 18.3985 16.3622 18.5833 16.1773C18.7682 15.9924 18.8721 15.7417 18.8721 15.4802C18.8721 15.2188 18.7682 14.9681 18.5833 14.7832C18.3985 14.5983 18.1477 14.4945 17.8863 14.4945H16.7329C16.5293 13.9172 16.1516 13.4174 15.6519 13.0639C15.1522 12.7103 14.5552 12.5205 13.9431 12.5205C13.3311 12.5205 12.734 12.7103 12.2344 13.0639C11.7347 13.4174 11.357 13.9172 11.1534 14.4945H2.11372ZM14.9289 15.4802C14.9289 15.7417 14.8251 15.9924 14.6402 16.1773C14.4553 16.3622 14.2046 16.466 13.9431 16.466C13.6817 16.466 13.431 16.3622 13.2461 16.1773C13.0612 15.9924 12.9574 15.7417 12.9574 15.4802C12.9574 15.2188 13.0612 14.9681 13.2461 14.7832C13.431 14.5983 13.6817 14.4945 13.9431 14.4945C14.2046 14.4945 14.4553 14.5983 14.6402 14.7832C14.8251 14.9681 14.9289 15.2188 14.9289 15.4802Z" fill="#F9F9F9" stroke="#1E1E1E"/>
</svg>
