<svg width="112" height="144" viewBox="0 0 112 144" fill="none" xmlns="http://www.w3.org/2000/svg">
<path d="M91.8901 18.3488C91.3967 18.3488 90.9034 18.2063 90.4717 17.9213C78.6317 10.8675 68.3951 7.87501 56.1234 7.87501C43.9134 7.87501 32.3201 11.2238 21.7751 17.9213C20.2334 18.8475 18.3834 18.2063 17.5201 16.4963C17.1355 15.663 17.0492 14.6886 17.2798 13.7826C17.5105 12.8766 18.0396 12.1113 18.7534 11.6513C30.2234 4.45501 42.8034 0.750008 56.1234 0.750008C69.2584 0.750008 80.7284 4.09876 93.3084 11.58C94.8501 12.5063 95.4051 14.6438 94.6034 16.3538C94.3596 16.9477 93.9755 17.4501 93.4955 17.803C93.0155 18.1559 92.459 18.3451 91.8901 18.3488ZM3.58339 55.755C3.01496 55.7611 2.45617 55.5852 1.969 55.2467C1.48183 54.9083 1.08532 54.4205 0.823462 53.8376C0.561604 53.2546 0.444627 52.5992 0.485508 51.9441C0.526388 51.289 0.723527 50.6598 1.05506 50.1263C7.16006 40.1513 14.9301 32.3138 24.1801 26.8275C43.5434 15.285 68.3334 15.2138 87.7584 26.7563C97.0084 32.2425 104.778 40.0088 110.883 49.9125C111.12 50.2954 111.289 50.7287 111.38 51.1873C111.47 51.6459 111.482 52.1207 111.413 52.5844C111.344 53.0481 111.197 53.4915 110.979 53.889C110.761 54.2864 110.477 54.63 110.143 54.9C108.725 56.04 106.813 55.6838 105.827 54.045C100.426 45.2127 93.2532 38.0249 84.9217 33.0975C67.2234 22.6238 44.5917 22.6238 26.9551 33.1688C18.5684 38.1563 11.5384 45.2813 5.98839 54.2588C5.49506 55.2563 4.57006 55.755 3.58339 55.755ZM42.1251 141.754C41.7207 141.759 41.3197 141.667 40.948 141.483C40.5763 141.299 40.242 141.027 39.9667 140.685C34.6017 134.486 31.7034 130.496 27.5717 121.875C23.3167 113.111 21.0967 102.424 21.0967 90.9525C21.0967 69.7913 36.7601 52.5488 56.0001 52.5488C75.2401 52.5488 90.9034 69.7913 90.9034 90.9525C90.9034 92.9475 89.5467 94.515 87.8201 94.515C86.0934 94.515 84.7367 92.9475 84.7367 90.9525C84.7367 73.71 71.8484 59.6738 56.0001 59.6738C40.1517 59.6738 27.2634 73.71 27.2634 90.9525C27.2634 101.213 29.2367 110.689 32.9984 118.384C36.9451 126.578 39.6584 130.069 44.4067 135.626C45.5784 137.051 45.5784 139.26 44.4067 140.685C43.7284 141.398 42.9267 141.754 42.1251 141.754ZM86.4017 128.573C79.0634 128.573 72.5884 126.435 67.2851 122.231C58.0967 115.035 52.6084 103.35 52.6084 90.9525C52.6084 88.9575 53.9651 87.39 55.6917 87.39C57.4184 87.39 58.7751 88.9575 58.7751 90.9525C58.7751 100.999 63.2151 110.475 70.7384 116.318C75.1167 119.738 80.2351 121.376 86.4017 121.376C87.8817 121.376 90.3484 121.163 92.8151 120.664C94.4801 120.308 96.0834 121.59 96.3917 123.585C96.7001 125.509 95.5901 127.361 93.8634 127.718C90.3484 128.501 87.2651 128.573 86.4017 128.573ZM74.0067 143.25C73.7601 143.25 73.4517 143.179 73.2051 143.108C63.4001 139.973 56.9867 135.769 50.2651 128.145C46.0056 123.286 42.6281 117.493 40.3304 111.107C38.0326 104.72 36.8607 97.8687 36.8834 90.9525C36.8834 79.41 45.3934 70.005 55.8767 70.005C66.3601 70.005 74.8701 79.41 74.8701 90.9525C74.8701 98.5763 80.6051 104.775 87.6967 104.775C94.7884 104.775 100.523 98.5763 100.523 90.9525C100.523 64.0913 80.4817 42.2888 55.8151 42.2888C38.3017 42.2888 22.2684 53.5463 15.0534 71.0025C12.6484 76.7738 11.4151 83.5425 11.4151 90.9525C11.4151 96.51 11.8467 105.274 15.5467 116.674C16.1634 118.526 15.3617 120.593 13.7584 121.234C12.1551 121.946 10.3667 120.949 9.81173 119.168C6.84025 110.157 5.31478 100.595 5.31006 90.9525C5.31006 82.4025 6.72839 74.6363 9.50339 67.8675C17.7051 47.9888 35.8967 35.0925 55.8151 35.0925C83.8734 35.0925 106.69 60.1013 106.69 90.8813C106.69 102.424 98.1801 111.829 87.6967 111.829C77.2134 111.829 68.7034 102.424 68.7034 90.8813C68.7034 83.2575 62.9684 77.0588 55.8767 77.0588C48.7851 77.0588 43.0501 83.2575 43.0501 90.8813C43.0501 103.065 47.1201 114.465 54.5817 123.015C60.4401 129.713 66.0517 133.418 74.7467 136.196C76.4117 136.695 77.3367 138.69 76.9051 140.543C76.5967 142.181 75.3017 143.25 74.0067 143.25Z" fill="url(#paint0_linear_44_434)"/>
<defs>
<linearGradient id="paint0_linear_44_434" x1="55.9674" y1="0.750008" x2="55.9674" y2="143.25" gradientUnits="userSpaceOnUse">
<stop stop-color="#6B6B6B"/>
<stop offset="1" stop-color="#1E1E1E"/>
</linearGradient>
</defs>
</svg>
