<svg width="20" height="23" viewBox="0 0 20 23" fill="none" xmlns="http://www.w3.org/2000/svg">
<path fill-rule="evenodd" clip-rule="evenodd" d="M9.67176 2.55515C9.1401 2.61718 8.73437 3.04896 8.69653 3.59364C8.6804 3.82813 8.68536 3.84426 9.21764 5.21341C10.428 8.32765 10.7214 9.07767 10.7704 9.18313C10.8902 9.43872 11.0577 9.6788 11.268 9.89469C11.4293 10.0603 11.5354 10.149 11.7147 10.2694C12.0304 10.4803 12.1874 10.5386 13.4157 10.9022C14.6124 11.2564 15.2663 11.4921 15.8302 11.7719C16.5604 12.1342 17.0697 12.5461 17.3917 13.0356C17.6231 13.3867 17.8279 14.0158 17.9166 14.6492C17.9513 14.8967 17.9519 15.4439 17.9172 15.6678C17.8421 16.1536 17.692 16.5605 17.4624 16.9011C17.3402 17.0822 17.383 17.0518 17.5605 16.831C18.063 16.2063 18.5748 15.1386 18.836 14.1702C19.1517 12.9984 19.1952 11.7403 18.9594 10.5492C18.501 8.22963 17.0369 6.22833 14.9747 5.10237C14.8451 5.03164 14.3519 4.77295 13.6825 4.42493C13.5808 4.3722 13.4424 4.29961 13.3748 4.26425C13.3072 4.22889 13.1688 4.15631 13.0671 4.10358C12.9653 4.05085 12.6731 3.89824 12.4175 3.76548C12.162 3.6321 11.876 3.48321 11.7817 3.4342C11.495 3.2847 11.3027 3.1842 11.1594 3.10913C10.4962 2.76235 10.2158 2.62152 10.1358 2.59733C10.0521 2.57189 9.83864 2.53902 9.78529 2.54336C9.77412 2.54336 9.72325 2.54956 9.67176 2.55515Z" fill="url(#paint0_radial_347_4735)"/>
<path d="M11.1176 14.1818C11.0809 14.2035 11.0295 14.2351 11.0028 14.2519C10.9767 14.2686 10.9178 14.3052 10.8731 14.3325C10.7075 14.4343 10.267 14.7054 9.88859 14.9392C9.63982 15.0925 9.60321 15.1154 9.28682 15.3115C9.17391 15.3816 9.05418 15.4554 9.02006 15.4752C8.98594 15.4957 8.84139 15.5844 8.6987 15.6731C8.55602 15.7619 8.30663 15.9157 8.14471 16.015C7.98279 16.1142 7.69369 16.2929 7.502 16.4114C7.3103 16.5299 7.05781 16.6856 6.94118 16.7569C6.82455 16.8283 6.71722 16.8971 6.70171 16.9101C6.67938 16.9294 5.64273 17.5715 5.12223 17.8885C4.72705 18.1292 4.26984 18.2898 3.80207 18.3531C3.58432 18.3823 3.17177 18.3829 2.95464 18.3531C2.3659 18.2737 1.82307 18.0541 1.35841 17.7073C1.17602 17.5715 0.832952 17.2284 0.702052 17.051C0.393105 16.6335 0.192724 16.1862 0.0891212 15.6793C0.0655469 15.5627 0.0425922 15.4641 0.03887 15.4604C0.0289439 15.4504 0.0469352 15.6266 0.077954 15.8568C0.110834 16.0962 0.180936 16.4424 0.256002 16.7389C0.838535 19.0312 2.49618 20.8954 4.7407 21.7825C5.38713 22.0381 6.03915 22.1988 6.74886 22.2776C7.01562 22.3073 7.77 22.3191 8.04855 22.298C9.32466 22.2012 10.4358 21.8259 11.5754 21.1057C11.6771 21.0418 11.8676 20.9214 11.9991 20.8383C12.1306 20.7552 12.2969 20.6503 12.3682 20.6044C12.4396 20.5585 12.5258 20.5045 12.5599 20.4841C12.594 20.4636 12.6617 20.4214 12.7101 20.3898C12.7591 20.3581 12.9681 20.226 13.1747 20.0957L14.0017 19.5734L14.2858 19.3941L14.2957 19.3879L14.3268 19.368L14.3416 19.3587L14.5507 19.2266L15.2735 18.77C16.1941 18.1918 16.4683 17.9883 16.8964 17.5696C17.0744 17.3953 17.3436 17.0969 17.3567 17.059C17.3592 17.0516 17.4069 16.9778 17.4628 16.8953C17.6892 16.5603 17.8399 16.1502 17.915 15.6663C17.9498 15.4424 17.9491 14.8952 17.9144 14.6477C17.8468 14.1688 17.6942 13.6259 17.5291 13.2804C17.2587 12.7134 16.6829 12.1985 15.8554 11.7834C15.6271 11.6687 15.3907 11.5638 15.3646 11.5657C15.3522 11.5663 14.5824 12.0372 13.653 12.6116C12.7243 13.1861 11.9185 13.6849 11.862 13.7202C11.8055 13.755 11.7088 13.8145 11.6467 13.8517L11.1176 14.1818Z" fill="url(#paint1_radial_347_4735)"/>
<path d="M0.026091 11.425L0.0298131 15.4276L0.0819254 15.6602C0.243844 16.3867 0.524874 16.9109 1.01249 17.3979C1.24203 17.6268 1.4176 17.7645 1.66637 17.9121C2.19245 18.2236 2.75885 18.3774 3.37923 18.3768C4.02876 18.3762 4.59144 18.2143 5.17025 17.86C5.26827 17.8005 5.65104 17.5647 6.02141 17.3358L6.69452 16.9202L6.69452 12.1713L6.69452 7.42237L6.69452 9.93026C6.69452 7.15846 6.68955 5.51264 6.68025 5.38298C6.62503 4.57154 6.28569 3.82524 5.71494 3.26133C5.54 3.08825 5.38987 2.97224 4.94444 2.66578C4.72234 2.51317 4.31661 2.23338 4.04179 2.04417C3.76758 1.85496 3.31533 1.54354 3.03678 1.35184C2.75823 1.16015 2.36181 0.886569 2.1546 0.743885C1.72406 0.446729 1.68994 0.426258 1.55966 0.37973C1.3903 0.318935 1.21101 0.296601 1.03979 0.315212C0.542244 0.369184 0.143962 0.728375 0.0403594 1.2166C0.0242296 1.29229 0.0211278 2.30348 0.0211278 7.79062L0.0211278 7.42299L0.0205078 7.42299L0.026091 11.425Z" fill="url(#paint2_linear_347_4735)"/>
<defs>
<radialGradient id="paint0_radial_347_4735" cx="0" cy="0" r="1" gradientUnits="userSpaceOnUse" gradientTransform="translate(18.4561 13.8085) rotate(-130.909) scale(14.9076 10.7267)">
<stop stop-color="#717171"/>
<stop offset="1" stop-color="white"/>
</radialGradient>
<radialGradient id="paint1_radial_347_4735" cx="0" cy="0" r="1" gradientUnits="userSpaceOnUse" gradientTransform="translate(2.52386 19.2406) rotate(-23.195) scale(16.1248 26.8722)">
<stop stop-color="#717171"/>
<stop offset="1" stop-color="white"/>
</radialGradient>
<linearGradient id="paint2_linear_347_4735" x1="3.35875" y1="-6.54414" x2="3.35875" y2="18.3762" gradientUnits="userSpaceOnUse">
<stop stop-color="#717171"/>
<stop offset="1" stop-color="white"/>
</linearGradient>
</defs>
</svg>
