<svg width="13" height="15" viewBox="0 0 13 15" fill="none" xmlns="http://www.w3.org/2000/svg">
<path d="M9.53164 3.47002C9.49109 3.47002 9.45055 3.45836 9.41507 3.43502C8.44195 2.85752 7.60061 2.61252 6.59202 2.61252C5.5885 2.61252 4.63565 2.88669 3.76897 3.43502C3.64226 3.51086 3.49022 3.45836 3.41926 3.31836C3.38765 3.25013 3.38056 3.17036 3.39952 3.09618C3.41847 3.02201 3.46196 2.95935 3.52063 2.92169C4.46333 2.33252 5.49727 2.02919 6.59202 2.02919C7.67157 2.02919 8.61428 2.30336 9.64821 2.91586C9.77492 2.99169 9.82053 3.16669 9.75465 3.30669C9.73461 3.35532 9.70304 3.39645 9.66359 3.42534C9.62414 3.45424 9.5784 3.46972 9.53164 3.47002ZM2.27382 6.53252C2.2271 6.53303 2.18118 6.51862 2.14114 6.49091C2.1011 6.4632 2.06851 6.42327 2.04699 6.37554C2.02546 6.32781 2.01585 6.27415 2.01921 6.22052C2.02257 6.16689 2.03877 6.11537 2.06602 6.07169C2.56778 5.25502 3.20639 4.61336 3.96664 4.16419C5.55809 3.21919 7.59555 3.21336 9.19206 4.15836C9.95231 4.60752 10.5909 5.24336 11.0927 6.05419C11.1121 6.08554 11.126 6.12101 11.1335 6.15856C11.1409 6.1961 11.1419 6.23498 11.1362 6.27294C11.1306 6.31091 11.1184 6.34721 11.1005 6.37975C11.0826 6.41229 11.0593 6.44042 11.0319 6.46252C10.9153 6.55586 10.7582 6.52669 10.6771 6.39252C10.2332 5.66941 9.64367 5.08094 8.95892 4.67752C7.50432 3.82002 5.64425 3.82002 4.19471 4.68336C3.50542 5.09169 2.92763 5.67502 2.47149 6.41002C2.43094 6.49169 2.35491 6.53252 2.27382 6.53252ZM5.44151 13.5734C5.40828 13.5738 5.37533 13.5663 5.34477 13.5512C5.31422 13.5361 5.28675 13.5139 5.26412 13.4859C4.82318 12.9784 4.58497 12.6517 4.24539 11.9459C3.89568 11.2284 3.71322 10.3534 3.71322 9.41419C3.71322 7.68169 5.00057 6.27002 6.58188 6.27002C8.1632 6.27002 9.45055 7.68169 9.45055 9.41419C9.45055 9.57752 9.33904 9.70586 9.19713 9.70586C9.05522 9.70586 8.94372 9.57752 8.94372 9.41419C8.94372 8.00252 7.88444 6.85336 6.58188 6.85336C5.27933 6.85336 4.22005 8.00252 4.22005 9.41419C4.22005 10.2542 4.38224 11.03 4.6914 11.66C5.01578 12.3309 5.23878 12.6167 5.62904 13.0717C5.72534 13.1884 5.72534 13.3692 5.62904 13.4859C5.57329 13.5442 5.5074 13.5734 5.44151 13.5734ZM9.08056 12.4942C8.47743 12.4942 7.94526 12.3192 7.50938 11.975C6.75421 11.3859 6.30313 10.4292 6.30313 9.41419C6.30313 9.25086 6.41463 9.12252 6.55654 9.12252C6.69845 9.12252 6.80996 9.25086 6.80996 9.41419C6.80996 10.2367 7.17488 11.0125 7.79321 11.4909C8.15306 11.7709 8.57373 11.905 9.08056 11.905C9.2022 11.905 9.40493 11.8875 9.60766 11.8467C9.74451 11.8175 9.87628 11.9225 9.90163 12.0859C9.92697 12.2434 9.83574 12.395 9.69383 12.4242C9.40493 12.4884 9.15152 12.4942 9.08056 12.4942ZM8.06183 13.6959C8.04156 13.6959 8.01622 13.69 7.99594 13.6842C7.19008 13.4275 6.66298 13.0834 6.11053 12.4592C5.76045 12.0613 5.48286 11.5871 5.29401 11.0643C5.10516 10.5414 5.00884 9.98042 5.01071 9.41419C5.01071 8.46919 5.71013 7.69919 6.57175 7.69919C7.43336 7.69919 8.13279 8.46919 8.13279 9.41419C8.13279 10.0384 8.60414 10.5459 9.18699 10.5459C9.76985 10.5459 10.2412 10.0384 10.2412 9.41419C10.2412 7.21502 8.594 5.43002 6.56668 5.43002C5.12728 5.43002 3.80952 6.35169 3.21653 7.78086C3.01886 8.25336 2.9175 8.80752 2.9175 9.41419C2.9175 9.86919 2.95297 10.5867 3.25707 11.52C3.30776 11.6717 3.24187 11.8409 3.11009 11.8934C2.97832 11.9517 2.83134 11.87 2.78572 11.7242C2.5415 10.9865 2.41612 10.2037 2.41573 9.41419C2.41573 8.71419 2.5323 8.07836 2.76038 7.52419C3.43446 5.89669 4.92962 4.84086 6.56668 4.84086C8.87276 4.84086 10.748 6.88836 10.748 9.40836C10.748 10.3534 10.0486 11.1234 9.18699 11.1234C8.32538 11.1234 7.62596 10.3534 7.62596 9.40836C7.62596 8.78419 7.1546 8.27669 6.57175 8.27669C5.98889 8.27669 5.51754 8.78419 5.51754 9.40836C5.51754 10.4059 5.85205 11.3392 6.46531 12.0392C6.9468 12.5875 7.40802 12.8909 8.12265 13.1184C8.25949 13.1592 8.33552 13.3225 8.30004 13.4742C8.2747 13.6084 8.16826 13.6959 8.06183 13.6959Z" fill="url(#paint0_linear_44_320)"/>
<defs>
<linearGradient id="paint0_linear_44_320" x1="6.5792" y1="2.02919" x2="6.5792" y2="13.6959" gradientUnits="userSpaceOnUse">
<stop stop-color="#7D7D7D"/>
<stop offset="1" stop-color="#1E1E1E"/>
</linearGradient>
</defs>
</svg>
