<svg width="22" height="21" viewBox="0 0 22 21" fill="none" xmlns="http://www.w3.org/2000/svg">
<g clip-path="url(#clip0_337_1410)">
<path d="M6.04724 5.16931L6.70529 5.80992C4.48696 8.18535 4.48713 11.9465 6.70579 14.3217L6.0473 14.9618C3.48425 12.2297 3.48423 7.90143 6.04724 5.16931ZM15.2947 14.3211C17.513 11.9457 17.5129 8.18461 15.2942 5.80939L15.9527 5.16924C18.5157 7.90134 18.5158 12.2296 15.9528 14.9618L15.2947 14.3211ZM11 7.6072C10.348 7.6072 9.72272 7.8662 9.2617 8.32723C8.80067 8.78826 8.54167 9.41354 8.54167 10.0655C8.54167 10.7175 8.80067 11.3428 9.2617 11.8038C9.72272 12.2649 10.348 12.5239 11 12.5239C11.652 12.5239 12.2773 12.2649 12.7383 11.8038C13.1993 11.3428 13.4583 10.7175 13.4583 10.0655C13.4583 9.41354 13.1993 8.78826 12.7383 8.32723C12.2773 7.8662 11.652 7.6072 11 7.6072ZM7.625 10.0655C7.625 9.17043 7.98058 8.31198 8.61351 7.67905C9.24645 7.04611 10.1049 6.69053 11 6.69053C11.8951 6.69053 12.7536 7.04611 13.3865 7.67905C14.0194 8.31198 14.375 9.17043 14.375 10.0655C14.375 10.9606 14.0194 11.8191 13.3865 12.452C12.7536 13.085 11.8951 13.4405 11 13.4405C10.1049 13.4405 9.24645 13.085 8.61351 12.452C7.98058 11.8191 7.625 10.9606 7.625 10.0655Z" fill="black" stroke="#F8F8F8" stroke-width="0.25"/>
<path d="M4.22347 3.47876C3.38683 4.33582 2.72085 5.34472 2.26155 6.45168C1.78626 7.59717 1.54161 8.82517 1.54161 10.0653C1.54161 11.3055 1.78626 12.5335 2.26155 13.679C2.72085 14.786 3.38683 15.7949 4.22347 16.6519L3.57524 17.3011C2.65322 16.3588 1.9195 15.2487 1.41396 14.0303C0.892461 12.7735 0.624023 11.4261 0.624023 10.0653C0.624023 8.70459 0.892461 7.3572 1.41396 6.10035C1.9195 4.88197 2.65322 3.77187 3.57524 2.82961L4.22347 3.47876ZM17.7756 16.6519C18.6122 15.7949 19.2782 14.786 19.7375 13.679C20.2128 12.5335 20.4575 11.3055 20.4575 10.0653C20.4575 8.82517 20.2128 7.59717 19.7375 6.45168C19.2782 5.34472 18.6122 4.33582 17.7756 3.47876L18.4238 2.82961C19.3459 3.77187 20.0796 4.88197 20.5851 6.10035C21.1066 7.3572 21.3751 8.70459 21.3751 10.0653C21.3751 11.4261 21.1066 12.7735 20.5851 14.0303C20.0796 15.2487 19.3459 16.3588 18.4238 17.3011L17.7756 16.6519Z" fill="black" stroke="#F8F8F8" stroke-width="0.25"/>
</g>
<defs>
<clipPath id="clip0_337_1410">
<rect width="21" height="21" fill="white" transform="translate(0.5)"/>
</clipPath>
</defs>
</svg>
