<svg width="12" height="16" viewBox="0 0 12 16" fill="none" xmlns="http://www.w3.org/2000/svg">
<path d="M10.8879 7.59723C12.1233 10.5057 12.0621 12.7279 10.59 14.2035C10.1536 14.6411 9.62117 14.9717 9.04214 15.1891C6.84026 16.0159 4.71478 15.9527 2.67633 14.8754C2.21153 14.6297 1.82262 14.2624 1.54996 13.8136L0.775269 12.5681C0.558942 12.2121 0.573791 11.7264 0.88515 11.4482C1.20069 11.1663 1.70824 11.1847 2.29336 11.407C2.9275 11.6013 3.4879 12.0573 3.87759 12.6264C4.43895 12.4033 4.90333 12.3292 5.26404 12.4148C5.94836 11.7683 6.04193 10.9557 5.71396 10.0246L4.53067 9.31866C4.08606 9.70514 3.59825 9.8822 3.05858 9.80904C2.60925 10.7661 1.87774 11.3009 0.897816 11.3231C0.757237 11.3264 0.628377 11.2468 0.56558 11.1215C0.195872 10.3841 0.493652 9.33874 1.28461 8.20084C1.46221 7.94531 1.68709 7.72522 1.9478 7.55509C3.2059 6.73368 3.90105 6.61035 5.53897 7.09855C3.9005 6.16659 3.0282 5.38053 1.68823 4.16578C1.49417 3.98987 1.34721 3.76561 1.27798 3.51327C1.18404 3.17051 1.2304 2.82411 1.44543 2.47324C1.72341 2.17777 2.03967 2.05826 2.38857 2.0871C2.5659 2.10171 2.73672 2.15653 2.89129 2.24227C3.04074 2.32519 3.18795 2.41241 3.33829 2.49381C3.99194 2.84772 4.567 3.36866 5.11276 3.95202C4.46168 2.99611 3.89816 2.05118 4.19035 1.05611C4.29987 0.683288 4.68769 0.469282 5.05963 0.583526C5.94036 0.85389 6.72913 2.05313 7.56635 3.77422C7.44229 2.96295 7.44291 2.23431 7.92082 1.82266C8.06711 1.69671 8.26379 1.6498 8.44994 1.70036C8.6737 1.76111 8.87648 1.90024 9.06196 2.10437C9.28953 2.35467 9.44822 2.65949 9.5357 2.98596L10.3677 6.09103C10.5054 6.60477 10.6795 7.10809 10.8875 7.5975L10.8879 7.59723Z" fill="#1E1E1E"/>
</svg>
