<svg width="15" height="14" viewBox="0 0 15 14" fill="none" xmlns="http://www.w3.org/2000/svg">
<g clip-path="url(#clip0_91_273)">
<path d="M11.4071 7.88938C11.3776 7.75988 11.306 7.63759 11.1928 7.53882C11.0792 7.44075 10.9404 7.3816 10.7964 7.35983L8.48266 6.91211L9.15207 7.3564L8.09528 10.6691L7.50021 8.20844L6.90486 10.6691L5.84856 7.35647L6.51769 6.91218L4.20391 7.3599C4.05999 7.38167 3.92125 7.44075 3.80743 7.53889C3.69431 7.63766 3.62263 7.75995 3.59323 7.88945L2.90723 10.9027L4.20132 11.3517C4.63091 11.7983 5.83351 12.1268 7.27586 12.1581H7.72442C9.16677 12.1269 10.3692 11.7983 10.799 11.3517L12.0931 10.9027L11.4071 7.88938Z" fill="#1E1E1E"/>
<path d="M7.5 7.24839L6.96667 7.43935L7.5 8.2083L8.03347 7.43935L7.5 7.24839ZM9.48023 4.28116C9.48023 2.91357 8.91743 1.8418 7.5 1.8418C6.08243 1.8418 5.51991 2.91364 5.51991 4.28116C5.37165 4.35851 5.27428 4.54002 5.41988 4.92901C5.49331 5.12431 5.62274 5.28797 5.73257 5.37365C6.13654 6.37941 6.93097 7.15585 7.5 7.15585C8.06903 7.15585 8.86353 6.37941 9.26729 5.37365C9.37726 5.28797 9.50648 5.12424 9.58012 4.92901C9.72572 4.53995 9.62842 4.35851 9.48023 4.28116ZM2.73692 10.2153C2.0764 10.1372 1.55574 9.95872 1.33909 9.7336L0.5 9.4424L0.94478 7.48877C0.96389 7.40484 1.01044 7.32546 1.08373 7.26155C1.15674 7.19938 1.24586 7.15915 1.34077 7.14549L2.96582 6.7733C2.72131 6.56421 2.48394 6.23633 2.33211 5.8577C2.26085 5.80226 2.17692 5.69614 2.12925 5.56944C2.03475 5.31737 2.09789 5.1997 2.19407 5.14944C2.19407 4.26282 2.55863 3.56793 3.4778 3.56793H3.47801C4.39697 3.56793 4.76174 4.26282 4.76174 5.14944C4.85792 5.1997 4.92106 5.31737 4.8267 5.56944C4.77896 5.69614 4.69503 5.80226 4.62377 5.8577C4.47194 6.23626 4.2345 6.56414 3.99006 6.7733L4.70861 6.93794L4.14924 7.04609C3.94274 7.07829 3.75255 7.16544 3.59799 7.29893C3.43734 7.43928 3.32814 7.6189 3.28257 7.81854L2.73692 10.2153ZM14.0552 7.4887C14.036 7.40477 13.9896 7.32539 13.9163 7.26148C13.8426 7.19792 13.7527 7.15942 13.6592 7.14542L12.0342 6.77323C12.2788 6.56414 12.5161 6.23626 12.6681 5.85763C12.7394 5.80219 12.8231 5.69607 12.8708 5.56937C12.9653 5.3173 12.9022 5.19963 12.8061 5.14937C12.8061 4.26275 12.4411 3.56786 11.5221 3.56786C10.603 3.56786 10.2382 4.26275 10.2382 5.14937C10.1421 5.19963 10.0789 5.3173 10.1734 5.56937C10.221 5.69607 10.3049 5.80219 10.3762 5.85763C10.5281 6.23619 10.7655 6.56407 11.01 6.77323L10.2913 6.93787L10.8507 7.04602C11.0571 7.07822 11.2474 7.16537 11.4006 7.2976C11.5626 7.43914 11.6716 7.61883 11.7171 7.81819L12.2629 10.2153C12.9234 10.1372 13.444 9.95872 13.6608 9.7336L14.4998 9.4424L14.0552 7.4887Z" fill="#1E1E1E"/>
</g>
<defs>
<clipPath id="clip0_91_273">
<rect width="14" height="14" fill="white" transform="translate(0.5)"/>
</clipPath>
</defs>
</svg>
