<svg width="25" height="25" viewBox="0 0 25 25" fill="none" xmlns="http://www.w3.org/2000/svg">
<path d="M20.4456 6.98098L14.6896 2.94524C13.1207 1.84368 10.7106 1.90128 9.19947 3.06978L4.18558 6.97478C3.1848 7.75379 2.39321 9.353 2.39196 10.613L2.38508 17.513C2.38254 20.063 4.45047 22.1451 7.00047 22.1476L17.7805 22.1583C20.3305 22.1609 22.4025 20.0929 22.4051 17.5429L22.4118 10.7629C22.4132 9.41294 21.5448 7.75207 20.4456 6.98098ZM13.1445 18.1537C13.144 18.5637 12.8037 18.9034 12.3937 18.903C11.9837 18.9026 11.644 18.5622 11.6445 18.1522L11.6474 15.1522C11.6478 14.7422 11.9882 14.4026 12.3982 14.403C12.8082 14.4034 13.1478 14.7437 13.1474 15.1537L13.1445 18.1537Z" fill="#1E1E1E"/>
</svg>
