<svg width="21" height="21" viewBox="0 0 21 21" fill="none" xmlns="http://www.w3.org/2000/svg">
<g clip-path="url(#clip0_619_3118)">
<path d="M5.57157 20.896C4.79798 20.8874 4.03167 20.7455 3.30627 20.4766C2.77656 20.2808 2.2973 19.9691 1.90353 19.5642C1.4976 19.1713 1.18543 18.6919 0.990196 18.1617C0.72152 17.4363 0.57984 16.6701 0.571373 15.8966C0.511961 14.6107 0.5 14.225 0.5 10.9668C0.5 7.70856 0.513137 7.32425 0.570784 6.03738C0.580279 5.2642 0.722134 4.49836 0.990196 3.77307C1.18638 3.24327 1.49811 2.76381 1.90275 2.36954C2.29602 1.96398 2.77551 1.6521 3.30569 1.45699C4.03108 1.18809 4.7974 1.04621 5.57098 1.03758C6.85725 0.978758 7.24353 0.966797 10.5 0.966797C13.7565 0.966797 14.1425 0.979934 15.4294 1.03758C16.2028 1.04701 16.9688 1.18886 17.6943 1.45699C18.2243 1.65235 18.7036 1.96413 19.0971 2.36935C19.5024 2.76292 19.8143 3.2424 20.0098 3.77248C20.2788 4.49787 20.4207 5.26418 20.4294 6.03778C20.4882 7.32464 20.5002 7.70993 20.5002 10.9672C20.5002 14.2244 20.4882 14.6097 20.4294 15.8966C20.4201 16.6701 20.2781 17.4362 20.0098 18.1617C19.8068 18.6878 19.4959 19.1656 19.0971 19.5643C18.6983 19.963 18.2205 20.2738 17.6943 20.4766C16.9689 20.7456 16.2026 20.8875 15.429 20.8962C14.1433 20.955 13.7569 20.967 10.4996 20.967C7.24235 20.967 6.85706 20.9556 5.57137 20.8962" fill="url(#paint0_radial_619_3118)"/>
<path d="M5.57157 20.896C4.79798 20.8874 4.03167 20.7455 3.30627 20.4766C2.77656 20.2808 2.2973 19.9691 1.90353 19.5642C1.4976 19.1713 1.18543 18.6919 0.990196 18.1617C0.72152 17.4363 0.57984 16.6701 0.571373 15.8966C0.511961 14.6107 0.5 14.225 0.5 10.9668C0.5 7.70856 0.513137 7.32425 0.570784 6.03738C0.580279 5.2642 0.722134 4.49836 0.990196 3.77307C1.18638 3.24327 1.49811 2.76381 1.90275 2.36954C2.29602 1.96398 2.77551 1.6521 3.30569 1.45699C4.03108 1.18809 4.7974 1.04621 5.57098 1.03758C6.85725 0.978758 7.24353 0.966797 10.5 0.966797C13.7565 0.966797 14.1425 0.979934 15.4294 1.03758C16.2028 1.04701 16.9688 1.18886 17.6943 1.45699C18.2243 1.65235 18.7036 1.96413 19.0971 2.36935C19.5024 2.76292 19.8143 3.2424 20.0098 3.77248C20.2788 4.49787 20.4207 5.26418 20.4294 6.03778C20.4882 7.32464 20.5002 7.70993 20.5002 10.9672C20.5002 14.2244 20.4882 14.6097 20.4294 15.8966C20.4201 16.6701 20.2781 17.4362 20.0098 18.1617C19.8068 18.6878 19.4959 19.1656 19.0971 19.5643C18.6983 19.963 18.2205 20.2738 17.6943 20.4766C16.9689 20.7456 16.2026 20.8875 15.429 20.8962C14.1433 20.955 13.7569 20.967 10.4996 20.967C7.24235 20.967 6.85706 20.9556 5.57137 20.8962" fill="#1E1E1E"/>
<path d="M8.04455 11.0097C8.04458 10.5198 8.18988 10.041 8.46206 9.63374C8.73424 9.22647 9.12108 8.90906 9.57366 8.72165C10.0262 8.53424 10.5242 8.48524 11.0047 8.58086C11.4851 8.67647 11.9264 8.91241 12.2727 9.25882C12.619 9.60524 12.8548 10.0466 12.9504 10.527C13.0459 11.0075 12.9967 11.5054 12.8092 11.958C12.6217 12.4105 12.3042 12.7973 11.8969 13.0694C11.4895 13.3414 11.0107 13.4866 10.5208 13.4865C9.864 13.4864 9.23412 13.2254 8.76974 12.7609C8.30535 12.2964 8.04449 11.6665 8.04455 11.0097ZM6.70553 11.0097C6.70553 11.7643 6.92929 12.5019 7.34852 13.1293C7.76775 13.7568 8.36362 14.2458 9.06077 14.5346C9.75792 14.8233 10.5251 14.8989 11.2651 14.7517C12.0052 14.6045 12.6851 14.2411 13.2186 13.7075C13.7522 13.1739 14.1156 12.4941 14.2628 11.754C14.41 11.0139 14.3345 10.2468 14.0457 9.54964C13.7569 8.85248 13.2679 8.25661 12.6405 7.83738C12.0131 7.41815 11.2754 7.19439 10.5208 7.19439C10.0198 7.19437 9.52364 7.29303 9.06074 7.48476C8.59784 7.67649 8.17723 7.95752 7.82294 8.31181C7.46865 8.6661 7.18762 9.0867 6.99589 9.54961C6.80417 10.0125 6.7055 10.5086 6.70553 11.0097ZM13.5955 7.04322C13.5954 7.21955 13.6477 7.39195 13.7456 7.53861C13.8435 7.68527 13.9827 7.79961 14.1455 7.86716C14.3084 7.93471 14.4877 7.95245 14.6606 7.91812C14.8336 7.8838 14.9925 7.79895 15.1173 7.67432C15.242 7.54969 15.327 7.39086 15.3615 7.21793C15.3959 7.045 15.3784 6.86572 15.3109 6.70278C15.2435 6.53984 15.1293 6.40054 14.9827 6.30251C14.8362 6.20448 14.6638 6.15212 14.4875 6.15204C14.2511 6.15214 14.0245 6.24606 13.8573 6.41315C13.6901 6.58024 13.5961 6.80686 13.5959 7.04322M7.51945 17.0577C7.04829 17.0525 6.58155 16.9663 6.13964 16.8028C5.81917 16.6793 5.52811 16.49 5.2852 16.2472C5.04229 16.0044 4.85291 15.7134 4.72925 15.393C4.56568 14.9511 4.47945 14.4844 4.47435 14.0132C4.43827 13.2301 4.43121 12.9948 4.43121 11.0107C4.43121 9.02655 4.43906 8.79184 4.47435 8.00792C4.48007 7.53682 4.56627 7.07017 4.72925 6.62812C4.85277 6.30754 5.04209 6.01641 5.28501 5.77349C5.52794 5.53056 5.81907 5.34124 6.13964 5.21772C6.58153 5.05415 7.04829 4.96793 7.51945 4.96282C8.30258 4.92674 8.53788 4.91969 10.5212 4.91969C12.5045 4.91969 12.74 4.92733 13.524 4.96302C13.9951 4.96874 14.4617 5.05494 14.9038 5.21792C15.2243 5.34145 15.5155 5.53077 15.7584 5.77369C16.0013 6.01662 16.1906 6.30774 16.3142 6.62831C16.4777 7.0702 16.5639 7.53696 16.5691 8.00812C16.6051 8.79243 16.6122 9.02655 16.6122 11.0109C16.6122 12.9952 16.6049 13.2297 16.5691 14.0136C16.5636 14.4847 16.4774 14.9514 16.3142 15.3934C16.1905 15.7138 16.0011 16.0048 15.7582 16.2476C15.5153 16.4904 15.2242 16.6797 14.9038 16.8032C14.4619 16.9668 13.9951 17.053 13.524 17.0581C12.7408 17.0942 12.5055 17.1013 10.5212 17.1013C8.5369 17.1013 8.30239 17.094 7.51945 17.0581M7.45788 3.62498C6.84138 3.6371 6.2314 3.75379 5.65396 3.97008C5.16033 4.16093 4.71203 4.45283 4.3378 4.82706C3.96358 5.20129 3.67168 5.64959 3.48082 6.14322C3.26456 6.72067 3.14787 7.33064 3.13572 7.94714C3.09906 8.73929 3.09082 8.99263 3.09082 11.0105C3.09082 13.0283 3.09925 13.2815 3.13572 14.0738C3.14787 14.6903 3.26456 15.3003 3.48082 15.8777C3.67169 16.3713 3.96359 16.8196 4.33782 17.1939C4.71204 17.5681 5.16034 17.86 5.65396 18.0509C6.23143 18.267 6.84139 18.3837 7.45788 18.396C8.25043 18.432 8.50337 18.4409 10.5212 18.4409C12.5391 18.4409 12.7922 18.4324 13.5845 18.396C14.201 18.3838 14.811 18.2671 15.3885 18.0509C15.8821 17.86 16.3304 17.5681 16.7046 17.1939C17.0788 16.8196 17.3707 16.3713 17.5616 15.8777C17.7781 15.3004 17.8948 14.6903 17.9067 14.0738C17.9428 13.2811 17.951 13.0283 17.951 11.0105C17.951 8.99263 17.9426 8.73949 17.9067 7.94714C17.8946 7.33063 17.7779 6.72066 17.5616 6.14322C17.3707 5.64968 17.0789 5.20145 16.7048 4.82724C16.3307 4.45302 15.8825 4.16107 15.3891 3.97008C14.8116 3.75365 14.2017 3.63696 13.5851 3.62498C12.7928 3.58871 12.5396 3.58008 10.5222 3.58008C8.50474 3.58008 8.25102 3.58851 7.45827 3.62498" fill="white"/>
</g>
<defs>
<radialGradient id="paint0_radial_619_3118" cx="0" cy="0" r="1" gradientUnits="userSpaceOnUse" gradientTransform="translate(1.79431 20.5288) scale(25.3925)">
<stop offset="0.09" stop-color="#FA8F21"/>
<stop offset="0.78" stop-color="#D82D7E"/>
</radialGradient>
<clipPath id="clip0_619_3118">
<rect width="20" height="20" fill="white" transform="translate(0.5 0.966797)"/>
</clipPath>
</defs>
</svg>
