<svg width="18" height="16" viewBox="0 0 18 16" fill="none" xmlns="http://www.w3.org/2000/svg">
<path d="M9.23082 2.2619C9.50793 1.97281 9.76651 1.6689 10.0603 1.40205C11.647 -0.0405937 13.7795 -0.326899 15.4357 0.669147C17.1419 1.69577 18.0001 3.85464 17.4922 5.89862C17.0316 7.75451 15.9111 9.2194 14.6461 10.5879C13.0992 12.2613 11.3124 13.6576 9.47457 14.9909C9.35964 15.0743 9.102 15.116 9.00654 15.0465C6.48196 13.2082 4.02411 11.2912 2.21594 8.69034C1.40593 7.52658 0.792393 6.27017 0.763662 4.81085C0.725664 2.88732 1.81094 1.12687 3.44487 0.421757C5.08436 -0.286131 7.06491 0.147497 8.46622 1.52065C8.70626 1.756 8.94908 1.98856 9.23082 2.2619Z" fill="#FE0135"/>
</svg>
