<svg width="21" height="21" viewBox="0 0 21 21" fill="none" xmlns="http://www.w3.org/2000/svg">
<path d="M16.0109 0.966797H4.98909C2.50983 0.966797 0.5 2.97663 0.5 5.45589V16.4777C0.5 18.957 2.50983 20.9668 4.98909 20.9668H16.0109C18.4902 20.9668 20.5 18.957 20.5 16.4777V5.45589C20.5 2.97663 18.4902 0.966797 16.0109 0.966797Z" fill="#1E1E1E"/>
<path d="M6.04198 9.27944H8.12027V15.9854H6.04198V9.27944ZM7.10191 5.94727C7.34002 5.94727 7.57279 6.01779 7.77087 6.14994C7.96894 6.28209 8.12344 6.46994 8.21488 6.6898C8.30631 6.90965 8.33058 7.15166 8.28463 7.3853C8.23868 7.61893 8.12456 7.83372 7.95668 8.00257C7.78879 8.17142 7.57466 8.28677 7.34129 8.33406C7.10792 8.38135 6.86578 8.35847 6.6454 8.26829C6.42502 8.17812 6.23629 8.0247 6.10301 7.82739C5.96973 7.63007 5.89787 7.3977 5.8965 7.1596C5.89559 7.00072 5.9261 6.84323 5.98626 6.69618C6.04643 6.54913 6.13508 6.41543 6.2471 6.30277C6.35912 6.1901 6.49231 6.10069 6.63901 6.03968C6.78571 5.97867 6.94303 5.94726 7.10191 5.94727Z" fill="white"/>
<path d="M9.45029 9.28024H11.4524V10.1947C11.6528 9.85267 11.9423 9.57149 12.29 9.38115C12.6377 9.19082 13.0306 9.09848 13.4267 9.11398C15.505 9.11398 15.9276 10.4995 15.9276 12.3076V15.9862H13.8493V12.744C13.8493 11.9682 13.8493 10.9637 12.7686 10.9637C11.6879 10.9637 11.5216 11.8088 11.5216 12.6817V16H9.44336L9.45029 9.28024Z" fill="white"/>
</svg>
