<svg width="36" height="41" viewBox="0 0 36 41" fill="none" xmlns="http://www.w3.org/2000/svg">
<path d="M26.4279 8.31264C26.312 8.31264 26.1962 8.27931 26.0948 8.21264C23.3145 6.56264 20.9107 5.86264 18.029 5.86264C15.1617 5.86264 12.4393 6.64598 9.96311 8.21264C9.60108 8.42931 9.16666 8.27931 8.96393 7.87931C8.87361 7.68439 8.85336 7.45646 8.90752 7.24453C8.96167 7.0326 9.08592 6.85359 9.25354 6.74598C11.947 5.06264 14.9011 4.19598 18.029 4.19598C21.1134 4.19598 23.8068 4.97931 26.7609 6.72931C27.123 6.94598 27.2533 7.44598 27.065 7.84598C27.0078 7.98491 26.9176 8.10242 26.8049 8.18498C26.6922 8.26754 26.5615 8.31179 26.4279 8.31264ZM5.69125 17.0626C5.55776 17.0641 5.42655 17.0229 5.31215 16.9438C5.19775 16.8646 5.10464 16.7505 5.04315 16.6141C4.98165 16.4777 4.95419 16.3244 4.96379 16.1712C4.97338 16.018 5.01968 15.8708 5.09753 15.746C6.53114 13.4126 8.35573 11.5793 10.5279 10.296C15.0749 7.59598 20.8962 7.57931 25.4577 10.2793C27.6298 11.5626 29.4544 13.3793 30.888 15.696C30.9435 15.7855 30.9831 15.8869 31.0045 15.9942C31.0258 16.1014 31.0285 16.2125 31.0123 16.321C30.9962 16.4295 30.9615 16.5332 30.9104 16.6261C30.8592 16.7191 30.7925 16.7995 30.7142 16.8626C30.3812 17.1293 29.9322 17.046 29.7006 16.6626C28.4324 14.5966 26.748 12.9152 24.7915 11.7626C20.6355 9.31264 15.321 9.31264 11.1795 11.7793C9.2101 12.946 7.55928 14.6126 6.256 16.7126C6.14015 16.946 5.92294 17.0626 5.69125 17.0626ZM14.7418 37.1793C14.6468 37.1806 14.5527 37.1591 14.4654 37.116C14.3781 37.073 14.2996 37.0094 14.235 36.9293C12.9751 35.4793 12.2945 34.546 11.3243 32.5293C10.3251 30.4793 9.80382 27.9793 9.80382 25.296C9.80382 20.346 13.482 16.3126 18 16.3126C22.518 16.3126 26.1962 20.346 26.1962 25.296C26.1962 25.7626 25.8776 26.1293 25.4721 26.1293C25.0667 26.1293 24.7481 25.7626 24.7481 25.296C24.7481 21.2626 21.7216 17.9793 18 17.9793C14.2784 17.9793 11.2519 21.2626 11.2519 25.296C11.2519 27.696 11.7153 29.9126 12.5986 31.7126C13.5254 33.6293 14.1626 34.446 15.2776 35.746C15.5527 36.0793 15.5527 36.596 15.2776 36.9293C15.1183 37.096 14.93 37.1793 14.7418 37.1793ZM25.1391 34.096C23.4158 34.096 21.8954 33.596 20.65 32.6126C18.4923 30.9293 17.2035 28.196 17.2035 25.296C17.2035 24.8293 17.5221 24.4626 17.9276 24.4626C18.3331 24.4626 18.6516 24.8293 18.6516 25.296C18.6516 27.646 19.6943 29.8626 21.4609 31.2293C22.4891 32.0293 23.691 32.4126 25.1391 32.4126C25.4866 32.4126 26.0658 32.3626 26.6451 32.246C27.0361 32.1626 27.4126 32.4626 27.485 32.9293C27.5574 33.3793 27.2967 33.8126 26.8913 33.896C26.0658 34.0793 25.3418 34.096 25.1391 34.096ZM22.2284 37.5293C22.1705 37.5293 22.0981 37.5126 22.0402 37.496C19.7377 36.7626 18.2317 35.7793 16.6533 33.996C15.6531 32.8593 14.8599 31.5043 14.3204 30.0104C13.7808 28.5166 13.5056 26.9138 13.5109 25.296C13.5109 22.596 15.5093 20.396 17.971 20.396C20.4328 20.396 22.4311 22.596 22.4311 25.296C22.4311 27.0793 23.7779 28.5293 25.4432 28.5293C27.1085 28.5293 28.4552 27.0793 28.4552 25.296C28.4552 19.0126 23.7489 13.9126 17.9566 13.9126C13.844 13.9126 10.079 16.546 8.38469 20.6293C7.81994 21.9793 7.53032 23.5626 7.53032 25.296C7.53032 26.596 7.63168 28.646 8.50054 31.3126C8.64535 31.746 8.4571 32.2293 8.08059 32.3793C7.70409 32.546 7.28414 32.3126 7.15382 31.896C6.45604 29.7881 6.09782 27.5516 6.09671 25.296C6.09671 23.296 6.42977 21.4793 7.08141 19.896C9.00737 15.246 13.2792 12.2293 17.9566 12.2293C24.5454 12.2293 29.9033 18.0793 29.9033 25.2793C29.9033 27.9793 27.9049 30.1793 25.4432 30.1793C22.9814 30.1793 20.9831 27.9793 20.9831 25.2793C20.9831 23.496 19.6363 22.046 17.971 22.046C16.3057 22.046 14.959 23.496 14.959 25.2793C14.959 28.1293 15.9148 30.796 17.6669 32.796C19.0426 34.3626 20.3604 35.2293 22.4022 35.8793C22.7932 35.996 23.0104 36.4626 22.909 36.896C22.8366 37.2793 22.5325 37.5293 22.2284 37.5293Z" fill="url(#paint0_linear_44_302)"/>
<defs>
<linearGradient id="paint0_linear_44_302" x1="17.9923" y1="4.19598" x2="17.9923" y2="37.5293" gradientUnits="userSpaceOnUse">
<stop stop-color="#7D7D7D"/>
<stop offset="1" stop-color="#1E1E1E"/>
</linearGradient>
</defs>
</svg>
