<svg width="9" height="8" viewBox="0 0 9 8" fill="none" xmlns="http://www.w3.org/2000/svg">
<path d="M7.70866 4.00033C7.70866 5.77224 6.27224 7.20866 4.50033 7.20866H4.49448H4.4886H4.48269H4.47675H4.47078H4.46478H4.45875H4.45269H4.4466H4.44048H4.43433H4.42816H4.42195H4.41572H4.40946H4.40317H4.39685H4.39051H4.38413H4.37773H4.3713H4.36485H4.35836H4.35185H4.34532H4.33875H4.33216H4.32555H4.3189H4.31224H4.30554H4.29882H4.29208H4.28531H4.27851H4.27169H4.26485H4.25798H4.25108H4.24416H4.23722H4.23025H4.22326H4.21625H4.20921H4.20215H4.19507H4.18796H4.18083H4.17368H4.1665H4.15931H4.15209H4.14484H4.13758H4.1303H4.12299H4.11566H4.10831H4.10094H4.09355H4.08614H4.07871H4.07125H4.06378H4.05629H4.04878H4.04124H4.03369H4.02612H4.01853H4.01092H4.00329H3.99565H3.98798H3.9803H3.97259H3.96487H3.95714H3.94938H3.94161H3.93382H3.92601H3.91818H3.91034H3.90248H3.89461H3.88671H3.87881H3.87088H3.86294H3.85499H3.84702H3.83903H3.83103H3.82301H3.81498H3.80693H3.79887H3.79079H3.7827H3.7746H3.76648H3.75835H3.7502H3.74205H3.73387H3.72569H3.71749H3.70928H3.70106H3.69282H3.68457H3.67631H3.66804H3.65975H3.65146H3.64315H3.63483H3.6265H3.61816H3.60981H3.60145H3.59307H3.58469H3.5763H3.56789H3.55948H3.55106H3.54263H3.53418H3.52573H3.51727H3.5088H3.50033H3.49184H3.48335H3.47484H3.46633H3.45782H3.44929H3.44076H3.43222H3.42367H3.41511H3.40655H3.39798H3.38941H3.38083H3.37224H3.36364H3.35504H3.34644H3.33783H3.32921H3.32059H3.31196H3.30333H3.2947H3.28606H3.27741H3.26876H3.26011H3.25145H3.24279H3.23412H3.22546H3.21678H3.20811H3.19943H3.19075H3.18207H3.17338H3.1647H3.15601H3.14732H3.13862H3.12993H3.12123H3.11253H3.10384H3.09514H3.08644H3.07774H3.06903H3.06033H3.05163H3.04293H3.03423H3.02553H3.01683H3.00813H2.99943H2.99073H2.98203H2.97334H2.96464H2.95595H2.94726H2.93857H2.92988H2.9212H2.91252H2.90384H2.89517H2.88649H2.87782H2.86916H2.86049H2.85183H2.84318H2.83453H2.82588H2.81724H2.8086H2.79997H2.79134H2.78271H2.77409H2.76548H2.75687H2.74827H2.73967H2.73108H2.7225H2.71392H2.70535H2.69678H2.68822H2.67967H2.67113H2.66259H2.65406H2.64554H2.63703H2.62852H2.62002H2.61153H2.60305H2.59458H2.58611H2.57766H2.56921H2.56078H2.55235H2.54393H2.53552H2.52712H2.51874H2.51036H2.50199H2.49363H2.48529H2.47695H2.46863H2.46031H2.45201H2.44372H2.43545H2.42718H2.41892H2.41068H2.40245H2.39424H2.38603H2.37784H2.36966H2.3615H2.35334H2.34521H2.33708H2.32897H2.32087H2.31279H2.30472H2.29667H2.28863H2.2806H2.2726H2.2646H2.25662H2.24866H2.24071H2.23278H2.22486H2.21696H2.20908H2.20121H2.19336H2.18553H2.17772H2.16992H2.16213H2.15437H2.14662H2.13889H2.13118H2.12349H2.11582H2.10816H2.10052H2.0929H2.08531H2.07772H2.07016H2.06262H2.0551H2.0476H2.04011H2.03265H2.02521H2.01779H2.01039H2.00301H1.99565H1.98831H1.98099H1.9737H1.96642H1.95917H1.95194H1.94473H1.93755H1.93038H1.92324H1.91613H1.90903H1.90196H1.89491H1.88788H1.88088H1.8739H1.86695H1.86002H1.85311H1.84623H1.83938H1.83254H1.82574H1.81895H1.8122H1.80546H1.79876H1.79208H1.78542H1.77879H1.77219H1.76562H1.75907H1.75254H1.74605H1.73958H1.73314H1.72672H1.72033H1.71398H1.70764H1.70134H1.69507H1.68882H1.6826H1.67641H1.67025H1.66412H1.65801H1.65194H1.6459H1.63988H1.6339H1.62794H1.62202H1.61613H1.61026H1.60443H1.59863H1.59286H1.58712H1.58141H1.57573H1.57008H1.56447H1.55889H1.55334H1.54782H1.54234H1.53688H1.53146H1.52608H1.52072H1.5154H1.51012H1.50486H1.49964H1.49446H1.48931H1.48419H1.47911H1.47406H1.46905H1.46407H1.45912H1.45422H1.44934H1.44451H1.4397H1.43494H1.43021H1.42552H1.42086H1.41624H1.41166H1.40711H1.4026H1.39813H1.39369H1.38929H1.38493H1.38061H1.37633H1.37208H1.36788H1.36371H1.35958H1.35549H1.35143H1.34742H1.34345H1.33951H1.33562H1.33177H1.32795H1.32418H1.32044H1.31675H1.3131H1.30948H1.30591H1.30238H1.2989H1.29545H1.29204H1.29199V7.20821V7.2047V7.20114V7.19754V7.1939V7.19021V7.18648V7.18271V7.17889V7.17504V7.17113V7.16719V7.16321V7.15918V7.15511V7.151V7.14684V7.14265V7.13842V7.13414V7.12982V7.12547V7.12107V7.11663V7.11215V7.10764V7.10308V7.09848V7.09385V7.08917V7.08446V7.07971V7.07492V7.07009V7.06522V7.06032V7.05537V7.05039V7.04538V7.04032V7.03523V7.0301V7.02494V7.01974V7.0145V7.00922V7.00391V6.99857V6.99319V6.98777V6.98232V6.97683V6.97131V6.96576V6.96017V6.95454V6.94888V6.94319V6.93746V6.9317V6.92591V6.92009V6.91423V6.90833V6.90241V6.89645V6.89046V6.88444V6.87839V6.87231V6.86619V6.86004V6.85387V6.84766V6.84142V6.83515V6.82885V6.82251V6.81615V6.80976V6.80334V6.79689V6.79041V6.78391V6.77737V6.7708V6.76421V6.75759V6.75094V6.74426V6.73755V6.73082V6.72406V6.71727V6.71045V6.70361V6.69674V6.68984V6.68292V6.67597V6.669V6.662V6.65498V6.64792V6.64085V6.63375V6.62662V6.61947V6.6123V6.6051V6.59788V6.59063V6.58336V6.57606V6.56875V6.56141V6.55404V6.54666V6.53925V6.53182V6.52436V6.51689V6.50939V6.50187V6.49433V6.48677V6.47918V6.47158V6.46396V6.45631V6.44864V6.44096V6.43325V6.42553V6.41778V6.41002V6.40223V6.39443V6.38661V6.37877V6.37091V6.36303V6.35513V6.34722V6.33929V6.33134V6.32337V6.31539V6.30739V6.29937V6.29133V6.28328V6.27521V6.26713V6.25903V6.25092V6.24278V6.23464V6.22648V6.2183V6.21011V6.2019V6.19368V6.18545V6.1772V6.16894V6.16066V6.15237V6.14407V6.13575V6.12742V6.11908V6.11072V6.10235V6.09397V6.08558V6.07718V6.06876V6.06034V6.0519V6.04345V6.03499V6.02652V6.01803V6.00954V6.00104V5.99253V5.984V5.97547V5.96693V5.95838V5.94982V5.94125V5.93267V5.92409V5.91549V5.90689V5.89828V5.88966V5.88103V5.8724V5.86376V5.85511V5.84646V5.83779V5.82912V5.82045V5.81177V5.80308V5.79439V5.78569V5.77699V5.76828V5.75957V5.75085V5.74212V5.7334V5.72466V5.71593V5.70719V5.69844V5.68969V5.68094V5.67219V5.66343V5.65467V5.64591V5.63714V5.62837V5.61961V5.61083V5.60206V5.59329V5.58451V5.57573V5.56695V5.55817V5.54939V5.54061V5.53183V5.52305V5.51427V5.50549V5.49671V5.48793V5.47915V5.47038V5.4616V5.45283V5.44405V5.43528V5.42651V5.41774V5.40898V5.40022V5.39146V5.3827V5.37395V5.3652V5.35645V5.34771V5.33897V5.33023V5.3215V5.31277V5.30405V5.29533V5.28662V5.27791V5.26921V5.26051V5.25182V5.24313V5.23446V5.22578V5.21711V5.20845V5.1998V5.19115V5.18252V5.17388V5.16526V5.15664V5.14803V5.13943V5.13084V5.12225V5.11368V5.10511V5.09655V5.088V5.07946V5.07093V5.06241V5.0539V5.0454V5.03691V5.02843V5.01996V5.01151V5.00306V4.99462V4.9862V4.97779V4.96938V4.96099V4.95262V4.94425V4.9359V4.92756V4.91923V4.91092V4.90262V4.89433V4.88606V4.8778V4.86955V4.86132V4.8531V4.8449V4.83671V4.82854V4.82038V4.81224V4.80411V4.796V4.7879V4.77982V4.77176V4.76371V4.75568V4.74766V4.73967V4.73169V4.72372V4.71578V4.70785V4.69994V4.69205V4.68417V4.67632V4.66848V4.66066V4.65286V4.64508V4.63732V4.62958V4.62186V4.61416V4.60648V4.59881V4.59117V4.58355V4.57595V4.56837V4.56082V4.55328V4.54577V4.53827V4.5308V4.52335V4.51593V4.50852V4.50114V4.49378V4.48645V4.47913V4.47185V4.46458V4.45734V4.45012V4.44293V4.43576V4.42861V4.42149V4.4144V4.40733V4.40028V4.39326V4.38627V4.3793V4.37236V4.36544V4.35855V4.35169V4.34485V4.33804V4.33126V4.3245V4.31777V4.31107V4.3044V4.29776V4.29114V4.28455V4.27799V4.27146V4.26496V4.25849V4.25204V4.24563V4.23924V4.23289V4.22657V4.22027V4.21401V4.20777V4.20157V4.1954V4.18926V4.18315V4.17707V4.17103V4.16501V4.15903V4.15308V4.14716V4.14128V4.13543V4.12961V4.12382V4.11807V4.11235V4.10666V4.10101V4.0954V4.08981V4.08426V4.07875V4.07327V4.06783V4.06242V4.05705V4.05171V4.04641V4.04114V4.03591V4.03072V4.02556V4.02044V4.01535V4.01031V4.0053V4.00033C1.29199 2.22841 2.72841 0.791992 4.50033 0.791992C6.27224 0.791992 7.70866 2.22841 7.70866 4.00033Z" stroke="white" stroke-width="0.25" stroke-linecap="round" stroke-linejoin="round"/>
<path d="M2.83398 3H5.83398" stroke="white" stroke-width="0.25" stroke-linecap="round" stroke-linejoin="round"/>
<path d="M2.83398 4.3335H5.83398" stroke="white" stroke-width="0.25" stroke-linecap="round" stroke-linejoin="round"/>
<path d="M2.83398 5.6665H4.50065" stroke="white" stroke-width="0.25" stroke-linecap="round" stroke-linejoin="round"/>
</svg>
