<svg width="7" height="8" viewBox="0 0 7 8" fill="none" xmlns="http://www.w3.org/2000/svg">
<path d="M5.68239 7.20313H5.80288H5.80303C6.02425 7.20345 6.23784 7.12228 6.40303 6.97513C6.49787 6.89026 6.57363 6.78625 6.62532 6.66995C6.67703 6.55359 6.70347 6.42759 6.70288 6.30026L6.70288 6.29979L6.70288 5.30071C6.69902 5.09263 6.62315 4.89231 6.4882 4.73386C6.3548 4.57724 6.17183 4.47111 5.96982 4.43301C5.90108 4.43145 5.82922 4.4138 5.77235 4.39983C5.75863 4.39646 5.74578 4.3933 5.73405 4.39064L5.75621 4.29313M5.68239 7.20313L4.58272 4.54038C4.64423 4.41479 4.75001 4.31637 4.87971 4.26407C5.00924 4.21184 5.15349 4.20929 5.28478 4.25689C5.43132 4.31232 5.58169 4.35707 5.73469 4.39078L5.75621 4.29313M5.68239 7.20313C4.30966 7.03227 3.03269 6.40962 2.05268 5.43317C1.07122 4.45527 0.443522 3.17826 0.268746 1.80384L0.268752 1.80384L0.268606 1.80279C0.25093 1.67471 0.261059 1.54432 0.298303 1.4205C0.335547 1.29669 0.399032 1.18235 0.484436 1.08527C0.569839 0.988198 0.675157 0.910663 0.793219 0.857948C0.911281 0.805233 1.03932 0.778575 1.16861 0.779789V0.779793H1.16955H2.16955V0.779804L2.171 0.779783C2.38541 0.776665 2.59388 0.850204 2.75889 0.987154C2.92338 1.12368 3.03389 1.31429 3.07066 1.52484M5.68239 7.20313L3.07066 1.52484M5.75621 4.29313C5.60771 4.2604 5.46177 4.21695 5.31955 4.16313L6.56433 4.66901C6.41417 4.49272 6.20748 4.374 5.97955 4.33313C5.92134 4.33313 5.86104 4.31843 5.80197 4.30403C5.78661 4.30029 5.77134 4.29657 5.75621 4.29313ZM3.11203 1.75859C3.14662 1.91105 3.19127 2.06106 3.24568 2.20763C3.29339 2.33898 3.29086 2.48334 3.2386 2.61296C3.18629 2.74268 3.08786 2.84847 2.96224 2.90998L2.96185 2.90918L2.95074 2.91659L2.81074 3.00992L2.73397 3.0611L2.77882 3.14174C2.96388 3.4744 3.19372 3.78009 3.46191 4.05025L3.46243 4.05076C3.73258 4.31895 4.03827 4.54879 4.37093 4.73385L4.46307 4.78511L4.50938 4.69038L4.58269 4.54043L3.11203 1.75859ZM3.11203 1.75859C3.09475 1.68257 3.08099 1.60355 3.07066 1.52484M3.11203 1.75859L3.07066 1.52484M2.09621 3.06313L2.18691 3.02102C2.17397 2.99314 2.16667 2.96299 2.16541 2.93228C2.16416 2.90158 2.16898 2.87093 2.1796 2.8421C2.19023 2.81326 2.20644 2.78681 2.22732 2.76426C2.24819 2.7417 2.27332 2.7235 2.30125 2.71068L2.30166 2.71049L2.76832 2.49383L2.8526 2.4547L2.81976 2.36778C2.75789 2.20405 2.70803 2.03603 2.67056 1.86505L2.67044 1.86451C2.651 1.77812 2.63479 1.69061 2.62182 1.60198L2.62204 1.60195L2.62065 1.59548C2.59951 1.49693 2.54468 1.40883 2.46558 1.34635C2.3868 1.28411 2.28886 1.25117 2.18851 1.25313L1.18955 1.25313L1.18942 1.25313C1.12789 1.2532 1.06709 1.26638 1.01105 1.29179C0.955012 1.31719 0.905026 1.35424 0.864419 1.40046L0.864403 1.40045L0.863066 1.40203C0.822714 1.44993 0.792491 1.50552 0.774226 1.56543C0.755961 1.62534 0.750032 1.68833 0.756797 1.75059L0.756787 1.7506L0.756965 1.75204C0.913822 3.0232 1.4894 4.20596 2.39291 5.11377C3.29641 6.02157 4.47643 6.60276 5.74683 6.76565L5.74712 6.76568C5.80994 6.77355 5.87371 6.76807 5.93427 6.74961C5.99482 6.73115 6.0508 6.70012 6.09855 6.65854L6.09888 6.65825C6.1451 6.61765 6.18215 6.56766 6.20755 6.51162C6.23295 6.45558 6.24613 6.39478 6.24622 6.33325L6.24621 6.33249L6.23955 5.29382C6.24143 5.19358 6.20849 5.09578 6.14632 5.01709C6.08384 4.938 5.99574 4.88316 5.89719 4.86202L5.89723 4.8618L5.89069 4.86085C5.80206 4.84788 5.71455 4.83167 5.62816 4.81223C5.45366 4.77262 5.28171 4.72255 5.11322 4.6623L5.02573 4.63101L4.98811 4.71597L4.78185 5.18172C4.76884 5.20944 4.7505 5.23433 4.72787 5.25498C4.70504 5.27581 4.6783 5.29189 4.6492 5.3023L4.64916 5.3022L4.64488 5.30396C4.58874 5.32703 4.52584 5.3273 4.46954 5.30477C3.4643 4.83481 2.65627 4.02637 2.18682 3.02082L2.09621 3.06313ZM2.09621 3.06313C2.07773 3.02331 2.06729 2.98023 2.06549 2.93637C2.0637 2.8925 2.07059 2.84872 2.08577 2.80752C2.10095 2.76633 2.12411 2.72854 2.15393 2.69633C2.18375 2.66411 2.21964 2.6381 2.25955 2.61979L2.72621 2.40313L2.09621 3.06313ZM2.16955 0.679793H1.16955C1.02589 0.678444 0.883629 0.708064 0.752449 0.766637C0.621268 0.825209 0.504249 0.911359 0.409355 1.01922C0.314462 1.12708 0.243924 1.25412 0.202541 1.3917C0.161159 1.52927 0.149905 1.67415 0.169545 1.81646C0.347125 3.21292 0.984888 4.51042 1.9821 5.504C2.9793 6.49759 4.27912 7.13063 5.67621 7.30313L2.16955 0.679793Z" fill="white" stroke="#1E1E1E" stroke-width="0.2"/>
</svg>
