<svg width="50" height="51" viewBox="0 0 50 51" fill="none" xmlns="http://www.w3.org/2000/svg">
<rect x="-0.0078125" y="0.754883" width="50" height="50" rx="12" fill="#1E1E1E"/>
<path d="M27.0176 22.308C27.4217 21.904 27.7797 21.5459 28.0911 21.2346C28.4015 20.9241 28.6975 20.6513 28.9775 20.418C29.2576 20.1845 29.5376 19.9441 29.8177 19.6946C30.4395 19.1662 30.9529 18.7928 31.3575 18.5748C31.7613 18.3574 32.1507 18.2481 32.5241 18.2481C33.0525 18.2481 33.5274 18.4429 33.9472 18.8314C34.3672 19.2207 34.5771 19.6642 34.5771 20.1614C34.5771 20.5347 34.4759 20.916 34.2738 21.3047C34.0712 21.6941 33.706 22.2307 33.1772 22.9145C30.7508 26.0877 29.5376 28.1409 29.5376 29.0741C29.5376 29.4788 29.7396 29.6808 30.1441 29.6808C30.4548 29.6808 30.7975 29.5487 31.1709 29.284C31.544 29.0202 32.026 28.5607 32.6174 27.9075C32.9279 27.5655 33.3093 27.0988 33.7605 26.5076C34.2113 25.9169 34.6078 25.3725 34.9505 24.8744C35.2926 24.3771 35.5805 24.0344 35.8138 23.8479C36.0471 23.6612 36.3191 23.5679 36.6304 23.5679C36.9411 23.5679 37.2057 23.6772 37.4236 23.8943C37.641 24.1123 37.7503 24.3771 37.7503 24.6878C37.7503 25.2791 37.4777 26.0644 36.9337 27.0442C36.3891 28.0241 35.681 29.0274 34.8104 30.054C33.7213 31.3605 32.6093 32.3719 31.4742 33.087C30.3382 33.8025 29.3042 34.1605 28.3711 34.1605C27.4997 34.1605 26.7845 33.8723 26.2244 33.2972C25.6644 32.7219 25.3846 31.9832 25.3846 31.0807C25.3846 30.6139 25.4232 30.1707 25.5012 29.7507C25.5786 29.3307 25.6951 28.8955 25.851 28.4441C26.0064 27.9935 26.2244 27.511 26.5045 26.9975C26.7838 26.4854 27.14 25.9196 27.5745 25.2989C27.5766 25.2959 27.5772 25.2953 27.5788 25.2921C27.6151 25.2196 27.5336 25.1409 27.4712 25.1925C26.7774 25.7671 26.09 26.4618 25.4078 27.2777C24.6147 28.2268 23.8133 29.4475 23.0047 30.9406C22.4132 31.9366 21.9621 32.5972 21.6514 32.9238C21.3401 33.2505 20.9516 33.4137 20.4849 33.4137C19.9869 33.4137 19.5749 33.2352 19.2482 32.8772C18.9215 32.5198 18.7583 32.0765 18.7583 31.5472C18.7583 31.2054 18.7969 30.8706 18.8748 30.5439C18.9522 30.2174 19.1157 29.7741 19.365 29.2142C19.5201 28.7788 19.7221 28.3042 19.9716 27.7907C20.2202 27.2777 20.4382 26.8808 20.6249 26.601L21.5037 25.0744C21.5088 25.0656 21.5097 25.063 21.5167 25.0556C21.6027 24.9649 21.478 24.8515 21.3832 24.9329C20.9029 25.3454 20.4324 25.8004 19.9716 26.2976C19.3801 26.9356 18.8122 27.5968 18.2684 28.2809C17.7237 28.9654 17.2418 29.6574 16.8218 30.3574C16.4018 31.0573 16.0518 31.7338 15.7719 32.3872C15.3985 33.2584 15.0645 33.8411 14.7685 34.1371C14.4734 34.4324 14.0919 34.5803 13.6252 34.5803C13.1587 34.5803 12.7701 34.3936 12.4587 34.0205C12.1482 33.6472 11.9922 33.1651 11.9922 32.5739C11.9922 31.392 12.568 29.3541 13.7186 26.461C14.372 24.8124 15.0799 23.2878 15.8417 21.888C16.6038 20.4881 17.3584 19.2908 18.1049 18.2947C18.5403 17.7349 18.9137 17.3382 19.225 17.105C19.5355 16.8716 19.8782 16.7549 20.2516 16.7549C20.6556 16.7549 21.0055 16.8949 21.3015 17.1749C21.5968 17.4549 21.7447 17.7976 21.7447 18.2015C21.7447 18.5128 21.6749 18.8395 21.5349 19.1815C21.3949 19.5242 21.06 20.1147 20.5315 20.9546C20.4382 21.1108 20.2982 21.3513 20.1115 21.6778C19.9249 22.0045 19.6915 22.4173 19.4117 22.9145C19.341 23.0559 19.5344 23.1827 19.6366 23.0621C20.2687 22.3159 20.8392 21.6602 21.3481 21.0946C22.048 20.3173 22.662 19.6946 23.1913 19.2282C23.7201 18.7615 24.1947 18.4194 24.6147 18.2015C25.0344 17.9843 25.4151 17.875 25.7578 17.875C26.1931 17.875 26.5665 18.0229 26.8778 18.3182C27.1884 18.6142 27.3443 18.9795 27.3443 19.4146C27.3443 19.6946 27.2816 20.006 27.1577 20.348C27.033 20.6907 26.7683 21.2193 26.3645 21.9346L25.3846 23.7079C25.3284 23.8133 25.4682 23.9126 25.5493 23.8248L25.571 23.8012C26.1311 23.2105 26.6132 22.7124 27.0176 22.308Z" fill="white"/>
</svg>
