<svg width="13" height="12" viewBox="0 0 13 12" fill="none" xmlns="http://www.w3.org/2000/svg">
<path d="M3.90732 2.83801C3.90732 2.32528 4.05936 1.82406 4.34422 1.39773C4.62909 0.971408 5.03397 0.639129 5.50767 0.442914C5.98138 0.246698 6.50263 0.195359 7.00551 0.295389C7.5084 0.395419 7.97033 0.642324 8.33289 1.00488C8.69544 1.36744 8.94235 1.82937 9.04238 2.33225C9.14241 2.83514 9.09107 3.35639 8.89485 3.83009C8.69864 4.3038 8.36636 4.70868 7.94004 4.99354C7.51371 5.2784 7.01249 5.43045 6.49976 5.43045C5.8122 5.43045 5.1528 5.15732 4.66663 4.67114C4.18045 4.18496 3.90732 3.52557 3.90732 2.83801ZM10.8205 11.4795H2.17903C1.83525 11.4795 1.50555 11.3429 1.26247 11.0998C1.01938 10.8567 0.882813 10.527 0.882812 10.1832C0.882813 9.15191 1.29251 8.16282 2.02177 7.43355C2.75104 6.70429 3.74013 6.29459 4.77147 6.29459H8.22805C9.25938 6.29459 10.2485 6.70429 10.9777 7.43355C11.707 8.16282 12.1167 9.15191 12.1167 10.1832C12.1167 10.527 11.9801 10.8567 11.737 11.0998C11.494 11.3429 11.1643 11.4795 10.8205 11.4795Z" fill="#1E1E1E"/>
</svg>
