<svg width="18" height="19" viewBox="0 0 18 19" fill="none" xmlns="http://www.w3.org/2000/svg">
<path d="M9.91472 15.1408C10.2529 15.1519 10.5849 15.2349 10.8883 15.3842C10.9885 15.5026 10.9956 15.6775 10.8981 15.8045L10.8929 15.8113L10.888 15.8183C10.5281 16.3344 9.95241 16.6598 9.32303 16.7022L9.31353 16.7029L9.30408 16.704C8.63871 16.783 7.96903 16.5974 7.44002 16.1876L7.43184 16.1812L7.42333 16.1754C7.20729 16.0263 7.06512 15.7935 7.03089 15.5349C7.03479 15.4813 7.05777 15.4413 7.11436 15.3972C7.18846 15.3394 7.30586 15.2904 7.44907 15.2576C7.82352 15.179 8.20514 15.1394 8.5878 15.1394L9.91472 15.1408ZM13.9742 7.14757L13.976 7.16988L13.9804 7.19182C14.1309 7.9452 14.476 8.64602 14.9814 9.22496C15.227 9.59982 15.3697 10.0324 15.3955 10.4795L15.3953 10.6324L15.3953 10.6347C15.3985 11.251 15.1788 11.8479 14.7765 12.3157C14.2502 12.877 13.5379 13.2295 12.771 13.3075L12.7709 13.3074L12.7614 13.3086C10.2538 13.6291 7.71538 13.6266 5.20847 13.3011L5.2085 13.3009L5.19562 13.2997C4.42116 13.2262 3.70063 12.8729 3.16936 12.3068C2.78319 11.8352 2.58131 11.2401 2.60112 10.6315L2.60131 10.6315L2.60132 10.6197L2.60147 10.4664C2.62724 10.0204 2.76634 9.58841 3.00562 9.21092C3.51242 8.63394 3.86258 7.93669 4.0223 7.18573L4.02736 7.16192L4.0293 7.13767C4.05214 6.85265 4.05242 6.5682 4.05269 6.3007L4.0527 6.29386C4.05297 6.02103 4.05342 5.76536 4.07332 5.5139C4.32505 3.15114 6.62113 1.46946 8.96464 1.47179L9.03592 1.47186C11.3547 1.47417 13.6936 3.16361 13.9334 5.52338C13.9528 5.77131 13.9528 6.0269 13.9525 6.30105L13.9525 6.30797C13.9522 6.57629 13.952 6.86251 13.9742 7.14757Z" stroke="#BDBDBD" stroke-width="0.75"/>
</svg>
