<svg width="15" height="15" viewBox="0 0 15 15" fill="none" xmlns="http://www.w3.org/2000/svg">
<path d="M10.2138 6.37001V5.37499C10.2138 3.98195 9.01979 2.88743 7.50012 2.88743C5.98045 2.88743 4.78642 3.98195 4.78642 5.37499V6.37001C3.86376 6.37001 3.1582 7.01677 3.1582 7.86254V11.3451C3.1582 12.1909 3.86376 12.8377 4.78642 12.8377H10.2138C11.1365 12.8377 11.842 12.1909 11.842 11.3451V7.86254C11.842 7.01677 11.1365 6.37001 10.2138 6.37001ZM5.8719 5.37499C5.8719 4.52922 6.57746 3.88245 7.50012 3.88245C8.42278 3.88245 9.12834 4.52922 9.12834 5.37499V6.37001H5.8719V5.37499ZM8.04286 10.3501C8.04286 10.6486 7.82577 10.8476 7.50012 10.8476C7.17448 10.8476 6.95738 10.6486 6.95738 10.3501V8.85757C6.95738 8.55906 7.17448 8.36005 7.50012 8.36005C7.82577 8.36005 8.04286 8.55906 8.04286 8.85757V10.3501Z" fill="#1E1E1E"/>
</svg>
