<svg width="22" height="19" viewBox="0 0 22 19" fill="none" xmlns="http://www.w3.org/2000/svg">
<path d="M15.2213 6.80782V6.80777C15.2212 6.40227 15.0601 6.0134 14.7733 5.7267C14.4865 5.43999 14.0976 5.27894 13.6921 5.27897C13.2866 5.279 12.8977 5.4401 12.611 5.72685C12.3243 6.01359 12.1632 6.40249 12.1632 6.80799C12.1632 7.21349 12.3243 7.60238 12.611 7.88912C12.8977 8.17587 13.2866 8.33697 13.6921 8.337C14.0976 8.33703 14.4865 8.17598 14.7733 7.88928C15.0601 7.60258 15.2212 7.21371 15.2213 6.8082V6.80815V6.80782ZM21.375 2.57704V2.57661C21.3744 2.06942 21.1727 1.58317 20.814 1.22453C20.4554 0.865892 19.9692 0.664155 19.462 0.663574H19.4615L2.53846 0.663574L2.53803 0.663574C2.03084 0.664155 1.54459 0.865892 1.18596 1.22453C0.827318 1.58317 0.625581 2.06942 0.625 2.57661V2.57704L0.625 16.4232L0.625 16.4236C0.625581 16.9308 0.827318 17.4171 1.18596 17.7757C1.54459 18.1343 2.03084 18.3361 2.53803 18.3367H2.53846H19.4615H19.462C19.9692 18.3361 20.4554 18.1343 20.814 17.7757C21.1727 17.4171 21.3744 16.9308 21.375 16.4236V16.4232V2.57704ZM2.91346 10.5838V2.95204H19.0866L19.0873 12.123L16.9685 10.0042L16.9682 10.0039C16.6091 9.64567 16.1226 9.44449 15.6154 9.44449C15.1082 9.44449 14.6217 9.64567 14.2627 10.0039L14.2624 10.0042L12.5386 11.7281L8.50694 7.69651L8.50663 7.6962C8.14758 7.33797 7.66109 7.13679 7.15389 7.13679C6.6467 7.13679 6.16021 7.33797 5.80115 7.6962L5.80085 7.6965L2.91346 10.5838Z" stroke="#1E1E1E" stroke-width="0.75"/>
</svg>
