<svg width="55" height="48" viewBox="0 0 55 48" fill="none" xmlns="http://www.w3.org/2000/svg">
<g filter="url(#filter0_b_343_4174)">
<rect x="7.5" y="6.75488" width="35" height="27" rx="5" fill="#1E1E1E" fill-opacity="0.15"/>
</g>
<g clip-path="url(#clip0_343_4174)">
<path d="M36.7502 23.3799V23.3804C36.7501 23.8778 36.5525 24.3547 36.2008 24.7063C35.8491 25.058 35.3721 25.2555 34.8748 25.2554C34.3774 25.2554 33.9005 25.0578 33.5488 24.7061C33.1972 24.3545 32.9996 23.8775 32.9996 23.3802C32.9996 22.8828 33.1972 22.4059 33.5488 22.0542C33.9005 21.7025 34.3774 21.5049 34.8748 21.5049C35.3721 21.5049 35.8491 21.7024 36.2008 22.054C36.5525 22.4056 36.7501 22.8826 36.7502 23.3799ZM46.75 16.5049V39.0049C46.7492 39.6677 46.4856 40.3031 46.0169 40.7718C45.5483 41.2405 44.9128 41.5041 44.25 41.5049H16.75C16.0872 41.5041 15.4517 41.2405 14.9831 40.7718C14.5144 40.3031 14.2508 39.6677 14.25 39.0049V16.5049C14.2508 15.8421 14.5144 15.2066 14.9831 14.738C15.4517 14.2693 16.0872 14.0056 16.75 14.0049H44.25C44.9128 14.0056 45.5483 14.2693 46.0169 14.738C46.4856 15.2066 46.7492 15.8421 46.75 16.5049ZM40.8367 30.0737C42.0967 31.3337 44.2511 30.4412 44.2509 28.6594L44.2502 18.5047C44.2501 17.4002 43.3547 16.5049 42.2502 16.5049H18.75C17.6454 16.5049 16.75 17.4003 16.75 18.5049V26.1587C16.75 27.9405 18.9043 28.8328 20.1642 27.5729L22.4823 25.2549C22.9515 24.7868 23.5873 24.5239 24.2501 24.5239C24.9129 24.5239 25.5487 24.7868 26.0179 25.2549L31.5859 30.823C32.367 31.604 33.6333 31.604 34.4144 30.8229L36.2323 29.0049C36.7015 28.5368 37.3373 28.2739 38.0001 28.2739C38.6629 28.2739 39.2987 28.5368 39.7679 29.0049L40.8367 30.0737Z" fill="#1E1E1E"/>
</g>
<defs>
<filter id="filter0_b_343_4174" x="-1.61093" y="-2.35605" width="53.2219" height="45.2219" filterUnits="userSpaceOnUse" color-interpolation-filters="sRGB">
<feFlood flood-opacity="0" result="BackgroundImageFix"/>
<feGaussianBlur in="BackgroundImageFix" stdDeviation="4.55546"/>
<feComposite in2="SourceAlpha" operator="in" result="effect1_backgroundBlur_343_4174"/>
<feBlend mode="normal" in="SourceGraphic" in2="effect1_backgroundBlur_343_4174" result="shape"/>
</filter>
<clipPath id="clip0_343_4174">
<rect width="40" height="40" fill="white" transform="translate(10.5 7.75488)"/>
</clipPath>
</defs>
</svg>
