<svg width="30" height="30" viewBox="0 0 30 30" fill="none" xmlns="http://www.w3.org/2000/svg">
<path d="M26.1564 13.7252C25.8236 13.2561 25.5673 12.7371 25.3971 12.1877C25.2847 11.6231 25.2563 11.045 25.3127 10.4721C25.3812 10.0219 25.3394 9.56187 25.1908 9.13144C24.8873 8.78352 24.5047 8.51347 24.0752 8.34395C23.5527 8.10526 23.0691 7.78921 22.6408 7.40645C22.2581 6.97812 21.942 6.49457 21.7033 5.97207C21.5338 5.54258 21.2637 5.16001 20.9158 4.85645C20.4749 4.68434 19.9977 4.62629 19.5283 4.6877C18.9553 4.73959 18.3779 4.71119 17.8127 4.60332C17.2731 4.43039 16.7638 4.17417 16.3033 3.84395C15.9242 3.54457 15.4762 3.34476 15.0002 3.2627C14.534 3.34919 14.0962 3.54878 13.7252 3.84395C13.2561 4.1768 12.7371 4.43311 12.1877 4.60332C11.6231 4.71571 11.045 4.74414 10.4721 4.6877C10.0219 4.6192 9.56187 4.66102 9.13144 4.80957C8.77981 5.12108 8.5095 5.51369 8.34395 5.95332C8.10526 6.47582 7.78921 6.95937 7.40645 7.3877C6.97812 7.77046 6.49457 8.08651 5.97207 8.3252C5.54258 8.49472 5.16001 8.76477 4.85645 9.1127C4.68902 9.54499 4.63105 10.012 4.6877 10.4721C4.74414 11.045 4.71571 11.6231 4.60332 12.1877C4.43039 12.7273 4.17417 13.2366 3.84395 13.6971C3.54457 14.0762 3.34476 14.5242 3.2627 15.0002C3.34919 15.4664 3.54878 15.9042 3.84395 16.2752C4.1768 16.7443 4.43311 17.2633 4.60332 17.8127C4.71571 18.3773 4.74414 18.9554 4.6877 19.5283C4.6192 19.9785 4.66102 20.4385 4.80957 20.8689C5.11313 21.2169 5.49571 21.4869 5.9252 21.6564C6.44769 21.8951 6.93124 22.2112 7.35957 22.5939C7.74234 23.0223 8.05838 23.5058 8.29707 24.0283C8.4666 24.4578 8.73665 24.8404 9.08457 25.1439C9.51499 25.2925 9.97504 25.3343 10.4252 25.2658H11.0346C11.4165 25.2552 11.798 25.2962 12.1689 25.3877C12.7086 25.5606 13.2178 25.8168 13.6783 26.1471C14.0494 26.4422 14.4872 26.6418 14.9533 26.7283C15.4195 26.6418 15.8573 26.4422 16.2283 26.1471C16.7124 25.813 17.2475 25.5597 17.8127 25.3971C18.3773 25.2847 18.9554 25.2563 19.5283 25.3127C19.9785 25.3812 20.4385 25.3394 20.8689 25.1908C21.2169 24.8873 21.4869 24.5047 21.6564 24.0752C21.8951 23.5527 22.2112 23.0691 22.5939 22.6408C23.0223 22.2581 23.5058 21.942 24.0283 21.7033C24.4578 21.5338 24.8404 21.2637 25.1439 20.9158C25.3161 20.4749 25.3741 19.9977 25.3127 19.5283C25.2563 18.9554 25.2847 18.3773 25.3971 17.8127C25.57 17.2731 25.8262 16.7638 26.1564 16.3033C26.4558 15.9242 26.6556 15.4762 26.7377 15.0002C26.6512 14.534 26.4516 14.0962 26.1564 13.7252ZM17.8127 16.4533L18.4596 20.2502L15.0002 18.4596L11.5877 20.2502L12.2346 16.4533L9.47832 13.7627L13.2939 13.2096L15.0002 9.7502L16.7064 13.2096L20.5221 13.7627L17.8127 16.4533Z" fill="url(#paint0_linear_1087_771)"/>
<defs>
<linearGradient id="paint0_linear_1087_771" x1="7.5" y1="7" x2="21.5" y2="24.5" gradientUnits="userSpaceOnUse">
<stop stop-color="#FEC93C"/>
<stop offset="1" stop-color="#FFB900"/>
</linearGradient>
</defs>
</svg>
