<svg width="17" height="21" viewBox="0 0 17 21" fill="none" xmlns="http://www.w3.org/2000/svg">
<path d="M6.46468 14.3691L6.46469 14.3692L6.47409 14.3684C7.89382 14.2554 9.31997 14.2569 10.7395 14.3727L10.7395 14.3728L10.7478 14.3733C11.5145 14.4187 12.2776 14.5154 13.0322 14.6626C14.6809 14.9984 15.6145 15.5213 15.9971 16.2488C16.2919 16.8357 16.2912 17.5343 15.9952 18.1206C15.6091 18.8516 14.7102 19.4053 13.0182 19.6994L13.0182 19.6992L13.0087 19.7012C12.2548 19.8524 11.4917 19.9505 10.7248 19.9946L10.7152 19.9952L10.7056 19.9962C10.0027 20.073 9.29663 20.0726 8.55785 20.0719L7.25789 20.0706C6.97831 20.0353 6.70549 20.0171 6.43958 20.0164C5.67674 19.9759 4.91767 19.8795 4.16813 19.7279L4.16478 19.7273C2.52059 19.4102 1.58373 18.8695 1.20101 18.1393C1.04903 17.8481 0.968758 17.5222 0.967798 17.1905L0.967781 17.1885C0.965026 16.8554 1.04338 16.5274 1.19517 16.2345L1.19538 16.2341C1.57099 15.5071 2.50696 14.9595 4.16726 14.6547L4.16726 14.6547L4.17142 14.6539C4.92877 14.506 5.69493 14.4109 6.46468 14.3691ZM8.61162 0.821935C11.2949 0.824608 13.4857 3.06676 13.4829 5.85215C13.4802 8.63753 11.2849 10.8753 8.60161 10.8726C5.91833 10.87 3.72753 8.62782 3.73031 5.84243C3.73308 3.05704 5.92834 0.819263 8.61162 0.821935Z" stroke="#BDBDBD" stroke-width="0.75"/>
</svg>
