<svg width="20" height="20" viewBox="0 0 20 20" fill="none" xmlns="http://www.w3.org/2000/svg">
<g clip-path="url(#clip0_619_5283)">
<path d="M0.625 10.625C0.79076 10.625 0.949732 10.5592 1.06694 10.4419C1.18415 10.3247 1.25 10.1658 1.25 10C1.25 7.66281 2.16031 5.46562 3.81312 3.81312C5.46562 2.16031 7.66281 1.25 10 1.25C12.3066 1.25 14.4759 2.13812 16.1209 3.75L14.375 3.75C14.2092 3.75 14.0503 3.81585 13.9331 3.93306C13.8158 4.05027 13.75 4.20924 13.75 4.375C13.75 4.54076 13.8158 4.69973 13.9331 4.81694C14.0503 4.93415 14.2092 5 14.375 5L18.125 5L18.125 1.25C18.125 1.08424 18.0592 0.925267 17.9419 0.808057C17.8247 0.690847 17.6658 0.624999 17.5 0.624999C17.3342 0.624999 17.1753 0.690847 17.0581 0.808057C16.9408 0.925267 16.875 1.08424 16.875 1.25L16.875 2.7425C15.01 0.973438 12.5803 -5.49903e-07 10 -4.37114e-07C7.32906 -3.20363e-07 4.81781 1.04031 2.92906 2.92938C1.04031 4.81781 -1.4407e-07 7.32906 -2.73196e-08 10C-2.0074e-08 10.1658 0.065848 10.3247 0.183058 10.4419C0.300268 10.5592 0.45924 10.625 0.625 10.625Z" fill="white"/>
<path d="M17.0709 17.0706C18.9597 15.1822 20 12.6709 20 10C20 9.83424 19.9342 9.67527 19.8169 9.55806C19.6997 9.44085 19.5408 9.375 19.375 9.375C19.2092 9.375 19.0503 9.44085 18.9331 9.55806C18.8158 9.67527 18.75 9.83424 18.75 10C18.75 12.3372 17.8397 14.5344 16.1869 16.1869C14.5344 17.8397 12.3372 18.75 10 18.75C7.69344 18.75 5.52406 17.8619 3.87906 16.25L5.625 16.25C5.79076 16.25 5.94973 16.1842 6.06694 16.0669C6.18415 15.9497 6.25 15.7908 6.25 15.625C6.25 15.4592 6.18415 15.3003 6.06694 15.1831C5.94973 15.0658 5.79076 15 5.625 15L1.875 15L1.875 18.75C1.875 18.9158 1.94085 19.0747 2.05806 19.1919C2.17527 19.3092 2.33424 19.375 2.5 19.375C2.66576 19.375 2.82473 19.3092 2.94194 19.1919C3.05915 19.0747 3.125 18.9158 3.125 18.75L3.125 17.2575C4.99 19.0266 7.41969 20 10 20C12.6709 20 15.1822 18.9597 17.0709 17.0706Z" fill="white"/>
</g>
<defs>
<clipPath id="clip0_619_5283">
<rect width="20" height="20" fill="white" transform="translate(0 20) rotate(-90)"/>
</clipPath>
</defs>
</svg>
