<svg width="17" height="16" viewBox="0 0 17 16" fill="none" xmlns="http://www.w3.org/2000/svg">
<path d="M11.1113 0.912509L16.3289 5.64768C16.3793 5.69342 16.4194 5.74822 16.4468 5.80881C16.4742 5.8694 16.4883 5.93455 16.4883 6.00037C16.4883 6.06618 16.4742 6.13133 16.4468 6.19192C16.4194 6.25251 16.3793 6.30731 16.3289 6.35305L11.1113 11.0882C11.0636 11.1323 11.0071 11.1672 10.945 11.1907C10.8829 11.2143 10.8165 11.226 10.7496 11.2254C10.6112 11.2254 10.4785 11.1738 10.3806 11.0819C10.2828 10.99 10.2278 10.8654 10.2278 10.7355V8.29284C5.56675 8.46918 3.60493 10.9184 3.52145 11.0229C3.45503 11.105 3.36335 11.1659 3.25883 11.1975C3.15431 11.229 3.04199 11.2296 2.93707 11.1993C2.83243 11.1676 2.7411 11.1057 2.67614 11.0224C2.61117 10.9392 2.57589 10.8388 2.57532 10.7355C2.57532 5.49746 7.15985 3.89077 10.2278 3.72748V1.2652C10.228 1.16886 10.2585 1.07473 10.3154 0.994568C10.3724 0.91441 10.4532 0.85179 10.5478 0.81454C10.6415 0.776603 10.7451 0.765661 10.8454 0.783105C10.9458 0.800548 11.0383 0.845589 11.1113 0.912509ZM11.2713 7.79646V9.56644L15.2158 6.00037L11.2713 2.42123V4.20427C11.2695 4.33366 11.214 4.45727 11.1165 4.54877C11.019 4.64027 10.8874 4.69242 10.7496 4.69411C10.0748 4.69411 4.59279 4.8378 3.73015 9.44887C5.73094 7.98579 8.21486 7.22773 10.7496 7.30662C10.8874 7.30831 11.019 7.36046 11.1165 7.45196C11.214 7.54346 11.2695 7.66707 11.2713 7.79646ZM14.2092 11.371C14.3065 11.2795 14.438 11.2272 14.5758 11.2254C14.7136 11.2271 14.8453 11.2792 14.9427 11.3707C15.0402 11.4622 15.0958 11.5858 15.0976 11.7152V12.0418C15.0976 12.8646 14.7494 13.6537 14.1297 14.2355C13.51 14.8173 12.6695 15.1441 11.7931 15.1441H3.79276C2.91636 15.1441 2.07585 14.8173 1.45614 14.2355C0.836431 13.6537 0.488281 12.8646 0.488281 12.0418V4.53083C0.488281 3.70804 0.836431 2.91894 1.45614 2.33714C2.07585 1.75533 2.91636 1.42848 3.79276 1.42848H6.92332C7.0617 1.42848 7.19441 1.48009 7.29226 1.57195C7.39011 1.66381 7.44508 1.78841 7.44508 1.91832C7.44508 2.04824 7.39011 2.17283 7.29226 2.2647C7.19441 2.35656 7.0617 2.40817 6.92332 2.40817H3.79276C3.19368 2.40989 2.61966 2.63408 2.19605 3.03179C1.77243 3.42949 1.53364 3.9684 1.5318 4.53083V12.0418C1.53364 12.6042 1.77243 13.1431 2.19605 13.5408C2.61966 13.9385 3.19368 14.1627 3.79276 14.1644H11.7931C12.3922 14.1627 12.9662 13.9385 13.3898 13.5408C13.8134 13.1431 14.0522 12.6042 14.054 12.0418V11.7152C14.056 11.5859 14.1117 11.4624 14.2092 11.371Z" fill="#1E1E1E"/>
</svg>
