<svg width="21" height="19" viewBox="0 0 21 19" fill="none" xmlns="http://www.w3.org/2000/svg">
<path d="M12.6357 2.5347L17.8533 7.26987C17.9037 7.31561 17.9438 7.37041 17.9712 7.431C17.9986 7.49159 18.0127 7.55674 18.0127 7.62256C18.0127 7.68838 17.9986 7.75352 17.9712 7.81411C17.9438 7.87471 17.9037 7.9295 17.8533 7.97525L12.6357 12.7104C12.588 12.7545 12.5315 12.7894 12.4694 12.8129C12.4074 12.8364 12.3409 12.8482 12.274 12.8476C12.1356 12.8476 12.0029 12.796 11.905 12.7041C11.8072 12.6122 11.7522 12.4876 11.7522 12.3577V9.91503C7.09116 10.0914 5.12934 12.5406 5.04586 12.6451C4.97944 12.7272 4.88777 12.7881 4.78325 12.8196C4.67872 12.8512 4.5664 12.8518 4.46149 12.8214C4.35684 12.7898 4.26551 12.7279 4.20055 12.6446C4.13559 12.5614 4.1003 12.4609 4.09974 12.3577C4.09974 7.11965 8.68427 5.51296 11.7522 5.34968V2.88739C11.7524 2.79105 11.7829 2.69692 11.8398 2.61676C11.8968 2.5366 11.9776 2.47398 12.0722 2.43673C12.1659 2.3988 12.2695 2.38785 12.3698 2.4053C12.4702 2.42274 12.5627 2.46778 12.6357 2.5347ZM12.7957 9.41866V11.1886L16.7402 7.62256L12.7957 4.04342V5.82646C12.7939 5.95585 12.7384 6.07946 12.6409 6.17096C12.5435 6.26246 12.4118 6.31461 12.274 6.3163C11.5992 6.3163 6.11721 6.45999 5.25456 11.0711C7.25535 9.60799 9.73927 8.84992 12.274 8.92881C12.4118 8.9305 12.5435 8.98265 12.6409 9.07415C12.7384 9.16565 12.7939 9.28927 12.7957 9.41866ZM15.7336 12.9932C15.8309 12.9017 15.9625 12.8494 16.1002 12.8476C16.238 12.8493 16.3697 12.9014 16.4672 12.9929C16.5646 13.0844 16.6202 13.208 16.622 13.3374V13.664C16.622 14.4868 16.2738 15.2759 15.6541 15.8577C15.0344 16.4395 14.1939 16.7663 13.3175 16.7663H5.31718C4.44077 16.7663 3.60027 16.4395 2.98056 15.8577C2.36085 15.2759 2.0127 14.4868 2.0127 13.664V6.15302C2.0127 5.33023 2.36085 4.54113 2.98056 3.95933C3.60027 3.37753 4.44077 3.05067 5.31718 3.05067H8.44774C8.58611 3.05067 8.71883 3.10228 8.81668 3.19414C8.91452 3.28601 8.9695 3.4106 8.9695 3.54052C8.9695 3.67043 8.91452 3.79503 8.81668 3.88689C8.71883 3.97875 8.58611 4.03036 8.44774 4.03036H5.31718C4.7181 4.03208 4.14408 4.25627 3.72046 4.65398C3.29685 5.05168 3.05805 5.59059 3.05622 6.15302V13.664C3.05805 14.2264 3.29685 14.7653 3.72046 15.163C4.14408 15.5607 4.7181 15.7849 5.31718 15.7866H13.3175C13.9166 15.7849 14.4906 15.5607 14.9142 15.163C15.3378 14.7653 15.5766 14.2264 15.5785 13.664V13.3374C15.5804 13.2081 15.6361 13.0846 15.7336 12.9932Z" fill="#1E1E1E"/>
</svg>
