<svg width="176" height="216" viewBox="0 0 176 216" fill="none" xmlns="http://www.w3.org/2000/svg">
<path d="M3.61816 214.71C3.62954 214.47 3.83612 214.282 4.07872 214.295C4.41609 214.312 4.75345 214.328 5.09082 214.339C5.33152 214.348 5.52105 214.551 5.51158 214.792C5.5021 215.033 5.2993 215.222 5.0586 215.213C4.71744 215.201 4.37629 215.186 4.03513 215.169C3.79443 215.158 3.60869 214.951 3.62006 214.71H3.61816ZM6.6696 214.818C6.6696 214.578 6.86861 214.383 7.11121 214.384C7.78783 214.39 8.46067 214.388 9.1354 214.377C9.3761 214.373 9.5751 214.564 9.58079 214.807C9.58647 215.05 9.39315 215.249 9.15055 215.252C8.46825 215.264 7.78594 215.266 7.10363 215.26C6.86103 215.258 6.66771 215.059 6.6696 214.818ZM10.7388 214.771C10.7274 214.53 10.9151 214.326 11.1577 214.314C11.8324 214.284 12.5052 214.246 13.1781 214.197C13.4188 214.18 13.6292 214.36 13.6462 214.6C13.6633 214.841 13.4832 215.052 13.2425 215.069C12.5621 215.118 11.8798 215.158 11.1975 215.188C10.9568 215.199 10.7521 215.012 10.7407 214.771H10.7388ZM14.8005 214.502C14.7777 214.261 14.9521 214.047 15.1928 214.022C15.8637 213.956 16.5347 213.878 17.2037 213.793C17.4444 213.763 17.6643 213.931 17.6946 214.172C17.7249 214.413 17.5562 214.631 17.3155 214.661C16.6389 214.748 15.9604 214.826 15.2819 214.892C15.0412 214.917 14.827 214.741 14.8024 214.502H14.8005ZM18.8412 214.007C18.8052 213.768 18.9682 213.545 19.207 213.507C19.8742 213.403 20.5375 213.289 21.2009 213.166C21.4378 213.122 21.6671 213.279 21.7107 213.516C21.7562 213.753 21.597 213.983 21.3601 214.026C20.6892 214.151 20.0163 214.267 19.3416 214.371C19.1028 214.409 18.8791 214.246 18.8412 214.007ZM22.8479 213.289C22.7967 213.052 22.9484 212.819 23.1834 212.77C23.8411 212.629 24.4987 212.478 25.1545 212.319C25.3895 212.262 25.6264 212.406 25.6833 212.641C25.7401 212.876 25.5961 213.113 25.3611 213.17C24.6977 213.331 24.0325 213.482 23.3653 213.626C23.1284 213.677 22.8953 213.526 22.846 213.291L22.8479 213.289ZM26.8072 212.349C26.7447 212.116 26.8811 211.875 27.1142 211.811C27.7643 211.634 28.4125 211.447 29.0588 211.251C29.29 211.181 29.5345 211.312 29.6047 211.543C29.6748 211.775 29.544 212.019 29.3128 212.089C28.6589 212.286 28.0031 212.476 27.3455 212.656C27.1124 212.72 26.8716 212.582 26.8072 212.349ZM30.7096 211.193C30.6338 210.963 30.757 210.715 30.9863 210.639C31.3066 210.533 31.6251 210.423 31.9435 210.313C32.2505 210.207 32.5594 210.093 32.8722 209.974C33.0977 209.887 33.3517 210.001 33.437 210.226C33.5242 210.452 33.4104 210.706 33.1849 210.791C32.8646 210.912 32.5481 211.03 32.2316 211.138C31.9094 211.251 31.5872 211.359 31.2631 211.468C31.0337 211.545 30.7854 211.42 30.7096 211.191V211.193ZM34.4794 209.794C34.3808 209.574 34.4794 209.314 34.7011 209.216C35.2944 208.951 35.8933 208.666 36.4922 208.365C36.7083 208.255 36.9717 208.342 37.0797 208.558C37.1878 208.774 37.1025 209.038 36.8864 209.146C36.2742 209.455 35.664 209.745 35.0575 210.016C34.8376 210.114 34.5779 210.016 34.4794 209.794ZM38.0767 208.026C37.9592 207.815 38.0331 207.548 38.2453 207.429C38.8158 207.108 39.3844 206.773 39.9549 206.42C40.1615 206.293 40.4306 206.356 40.5576 206.562C40.6846 206.769 40.6202 207.038 40.4155 207.165C39.8374 207.523 39.2556 207.866 38.6756 208.192C38.4652 208.31 38.198 208.236 38.0786 208.026H38.0767ZM41.5053 205.95C41.3707 205.749 41.4238 205.478 41.6228 205.342C42.1686 204.974 42.7107 204.593 43.2471 204.199C43.4423 204.057 43.7171 204.099 43.8592 204.294C44.0014 204.489 43.9597 204.762 43.7645 204.906C43.2186 205.306 42.6671 205.694 42.1118 206.068C41.9109 206.202 41.6398 206.149 41.5034 205.95H41.5053ZM44.7576 203.608C44.6079 203.418 44.6382 203.143 44.8277 202.994C45.3452 202.582 45.8569 202.16 46.3591 201.728C46.543 201.57 46.8178 201.589 46.977 201.773C47.1362 201.957 47.1154 202.232 46.9315 202.391C46.4198 202.831 45.9005 203.261 45.3736 203.68C45.1841 203.829 44.9092 203.797 44.7576 203.61V203.608ZM47.8166 201.019C47.6517 200.842 47.6612 200.566 47.8375 200.399C48.3208 199.948 48.7965 199.485 49.2609 199.013C49.4295 198.841 49.7081 198.839 49.8806 199.01C50.0531 199.18 50.055 199.457 49.8844 199.629C49.4125 200.109 48.9292 200.579 48.4364 201.04C48.2601 201.204 47.9815 201.195 47.8166 201.019ZM50.6558 198.189C50.4757 198.028 50.4606 197.749 50.6236 197.569C51.069 197.076 51.4992 196.574 51.9181 196.066C52.0716 195.881 52.3464 195.852 52.534 196.006C52.7217 196.159 52.7482 196.434 52.5947 196.622C52.1683 197.141 51.7285 197.655 51.2737 198.157C51.1126 198.337 50.8359 198.35 50.6558 198.189ZM53.2277 195.115C53.0325 194.971 52.9927 194.698 53.1349 194.503C53.5291 193.968 53.9081 193.426 54.2683 192.88C54.4009 192.677 54.672 192.623 54.8748 192.755C55.0775 192.888 55.1325 193.159 55.0017 193.362C54.6321 193.923 54.2455 194.478 53.8418 195.024C53.6978 195.219 53.4248 195.259 53.2296 195.115H53.2277ZM55.468 191.792C55.2595 191.671 55.1856 191.404 55.3069 191.195C55.6367 190.619 55.9456 190.037 56.2337 189.452C56.3398 189.234 56.6014 189.145 56.8193 189.251C57.0373 189.357 57.1264 189.618 57.0202 189.836C56.7246 190.441 56.4062 191.04 56.0669 191.631C55.9456 191.84 55.6784 191.914 55.4699 191.792H55.468ZM57.278 188.22C57.0525 188.129 56.9444 187.875 57.0335 187.651C57.2799 187.037 57.4997 186.417 57.6893 185.796C57.7594 185.564 58.0058 185.436 58.237 185.506C58.4682 185.576 58.5971 185.822 58.527 186.053C58.328 186.698 58.1006 187.34 57.8466 187.975C57.7556 188.201 57.5016 188.309 57.278 188.22ZM58.5213 184.414C58.2844 184.365 58.1328 184.132 58.1839 183.897C58.2522 183.576 58.3109 183.254 58.3621 182.932C58.4114 182.621 58.4512 182.312 58.4815 182.003C58.5043 181.762 58.7203 181.586 58.961 181.611C59.2017 181.635 59.3761 181.85 59.3533 182.09C59.3211 182.416 59.2794 182.744 59.2264 183.07C59.1733 183.406 59.1108 183.741 59.0406 184.077C58.9913 184.313 58.7582 184.465 58.5232 184.414H58.5213ZM59.0008 180.563C58.7601 180.566 58.5592 180.375 58.5554 180.134C58.5441 179.509 58.4967 178.883 58.4171 178.264C58.3867 178.023 58.5554 177.803 58.7961 177.773C59.0349 177.742 59.2548 177.911 59.2851 178.152C59.3685 178.804 59.4197 179.46 59.4311 180.117C59.4348 180.358 59.2434 180.559 59.0027 180.563H59.0008ZM58.6085 176.74C58.3735 176.795 58.1366 176.647 58.0835 176.412C57.9432 175.804 57.7727 175.197 57.5774 174.596C57.5016 174.367 57.6267 174.119 57.858 174.045C58.0873 173.969 58.3356 174.094 58.4095 174.325C58.6142 174.951 58.7905 175.58 58.9383 176.215C58.9932 176.45 58.8454 176.687 58.6104 176.74H58.6085ZM57.4922 173.061C57.2685 173.154 57.0126 173.048 56.9198 172.824C56.6791 172.244 56.4175 171.67 56.1351 171.099C56.029 170.883 56.1162 170.62 56.3341 170.514C56.5502 170.408 56.8136 170.495 56.9198 170.711C57.2098 171.297 57.4808 171.892 57.7272 172.491C57.82 172.714 57.7139 172.97 57.4903 173.063L57.4922 173.061ZM33.8672 168.728C33.8293 168.967 33.6057 169.13 33.3668 169.094C32.7509 168.999 32.1406 168.888 31.5379 168.759C31.301 168.709 31.1493 168.476 31.2005 168.239C31.2498 168.002 31.4829 167.853 31.7198 167.902C32.3055 168.027 32.9006 168.135 33.5014 168.228C33.7402 168.266 33.9032 168.49 33.8672 168.728ZM34.8187 168.853C34.8452 168.613 35.0612 168.438 35.302 168.465C35.9028 168.529 36.5074 168.582 37.1139 168.624C37.3546 168.641 37.5384 168.85 37.5214 169.09C37.5043 169.331 37.2958 169.513 37.0551 169.498C36.4372 169.456 35.8232 169.403 35.2091 169.337C34.9684 169.31 34.7959 169.096 34.8205 168.855L34.8187 168.853ZM30.268 168.012C30.2017 168.245 29.961 168.38 29.7279 168.315C29.4265 168.232 29.1289 168.143 28.8333 168.048C28.4808 167.936 28.1396 167.807 27.8098 167.667C27.5881 167.572 27.4857 167.314 27.5805 167.093C27.6753 166.871 27.933 166.769 28.1548 166.863C28.458 166.992 28.7726 167.112 29.0986 167.216C29.3848 167.307 29.6729 167.392 29.9629 167.474C30.196 167.538 30.3306 167.781 30.2661 168.014L30.268 168.012ZM38.4785 169.138C38.4861 168.897 38.6889 168.708 38.9296 168.715C39.538 168.736 40.1463 168.747 40.7528 168.749C40.9935 168.749 41.1888 168.946 41.1888 169.189C41.1888 169.43 40.9898 169.625 40.7491 169.625C40.135 169.621 39.519 169.612 38.9011 169.591C38.6604 169.583 38.469 169.38 38.4785 169.138ZM42.1478 169.181C42.144 168.941 42.3354 168.74 42.578 168.736C43.1902 168.725 43.8005 168.706 44.4032 168.681C44.6439 168.672 44.8486 168.859 44.8581 169.102C44.8675 169.342 44.6799 169.547 44.4373 169.557C43.8289 169.579 43.2129 169.6 42.5932 169.612C42.3525 169.617 42.1516 169.424 42.1459 169.183L42.1478 169.181ZM26.5115 166.496C26.3713 166.693 26.0984 166.74 25.9012 166.6C25.2947 166.17 24.7489 165.683 24.2637 165.144C24.1007 164.964 24.1159 164.688 24.2959 164.526C24.476 164.363 24.7527 164.379 24.9138 164.559C25.3573 165.05 25.8558 165.493 26.4073 165.885C26.6044 166.026 26.6518 166.299 26.5115 166.496ZM45.8171 169.056C45.8038 168.816 45.9896 168.609 46.2303 168.596C46.5373 168.579 46.8406 168.562 47.1419 168.543C47.4736 168.522 47.8072 168.501 48.1407 168.48C48.3814 168.465 48.5899 168.647 48.607 168.888C48.6221 169.128 48.4402 169.337 48.1976 169.354C47.864 169.375 47.5286 169.396 47.1969 169.416C46.8936 169.435 46.5866 169.452 46.2776 169.469C46.0369 169.483 45.8304 169.297 45.8171 169.056ZM49.7328 168.81C49.7138 168.569 49.8939 168.359 50.1346 168.34C50.7961 168.291 51.4594 168.236 52.1266 168.175C52.3673 168.154 52.5795 168.33 52.6023 168.571C52.6231 168.812 52.4469 169.026 52.2062 169.047C51.5352 169.107 50.8662 169.162 50.2028 169.212C49.9621 169.231 49.7517 169.051 49.7328 168.808V168.81ZM55.8376 169.591C55.6291 169.71 55.3599 169.636 55.2405 169.428C55.1174 169.21 54.9904 168.994 54.8615 168.78C54.6435 168.804 54.4256 168.829 54.2057 168.852C53.965 168.876 53.7489 168.704 53.7243 168.463C53.6997 168.222 53.8721 168.006 54.1128 167.98C54.1924 167.972 54.2739 167.963 54.3535 167.953C54.3213 167.902 54.2872 167.851 54.255 167.798C54.1242 167.595 54.1849 167.324 54.3877 167.193C54.5924 167.062 54.8615 167.123 54.9923 167.326C55.1022 167.498 55.2102 167.669 55.3163 167.841C55.576 167.811 55.8338 167.779 56.0934 167.745C56.3341 167.712 56.5521 167.883 56.5843 168.122C56.6146 168.363 56.4459 168.582 56.2052 168.613C56.0745 168.63 55.9418 168.647 55.811 168.662C55.8755 168.77 55.938 168.88 56.0006 168.99C56.12 169.198 56.046 169.468 55.8376 169.587V169.591ZM23.5757 163.537C23.3672 163.658 23.0981 163.586 22.9787 163.376C22.6186 162.752 22.3172 162.089 22.0765 161.394C21.9969 161.166 22.1182 160.916 22.3457 160.836C22.575 160.757 22.8233 160.878 22.9029 161.105C23.1265 161.75 23.4051 162.364 23.7368 162.938C23.8581 163.147 23.7861 163.416 23.5757 163.535V163.537ZM57.7044 167.966C57.6665 167.728 57.8314 167.504 58.0702 167.466C58.726 167.364 59.3818 167.254 60.0338 167.133C60.2726 167.089 60.5 167.246 60.5436 167.483C60.5872 167.722 60.4299 167.949 60.193 167.993C59.5315 168.114 58.8681 168.226 58.2048 168.328C57.966 168.366 57.7423 168.203 57.7063 167.963L57.7044 167.966ZM53.8058 166.323C53.6087 166.462 53.3339 166.414 53.1955 166.217C52.8297 165.698 52.4526 165.182 52.0678 164.678C51.9219 164.485 51.9579 164.212 52.1512 164.064C52.3426 163.918 52.6174 163.954 52.7634 164.147C53.1557 164.661 53.5386 165.182 53.9119 165.713C54.0503 165.91 54.0029 166.185 53.8058 166.323ZM61.6505 167.263C61.5993 167.026 61.749 166.793 61.984 166.742C62.6322 166.6 63.2785 166.446 63.9172 166.282C64.1523 166.221 64.3892 166.361 64.4517 166.596C64.5124 166.829 64.3721 167.068 64.1371 167.129C63.4851 167.297 62.8293 167.453 62.1717 167.599C61.9367 167.65 61.7016 167.5 61.6505 167.265V167.263ZM65.5377 166.289C65.4676 166.058 65.5984 165.813 65.8296 165.743C66.4645 165.55 67.0919 165.343 67.7135 165.122C67.941 165.04 68.1912 165.16 68.2727 165.387C68.3541 165.614 68.2347 165.865 68.0073 165.946C67.3743 166.173 66.7318 166.384 66.0855 166.581C65.8542 166.651 65.6097 166.52 65.5396 166.289H65.5377ZM22.0443 159.65C21.8055 159.69 21.58 159.53 21.5383 159.292C21.4776 158.939 21.4302 158.581 21.3961 158.219C21.362 157.847 21.3525 157.489 21.3715 157.142C21.3847 156.902 21.5894 156.716 21.832 156.729C22.0727 156.741 22.2585 156.947 22.2452 157.188C22.23 157.489 22.2357 157.806 22.2679 158.136C22.3002 158.477 22.3438 158.814 22.4006 159.144C22.4404 159.383 22.2812 159.608 22.0424 159.65H22.0443ZM51.5011 163.241C51.3135 163.393 51.0387 163.367 50.8851 163.179C50.4795 162.682 50.0683 162.195 49.6551 161.716C49.4959 161.532 49.5167 161.257 49.6987 161.098C49.8825 160.939 50.1592 160.96 50.3165 161.141C50.7373 161.627 51.1543 162.119 51.5655 162.624C51.7172 162.811 51.6906 163.086 51.503 163.24L51.5011 163.241ZM69.3245 164.978C69.2317 164.754 69.3359 164.498 69.5596 164.405C69.8647 164.278 70.1661 164.146 70.4674 164.009C70.7403 163.886 71.0133 163.759 71.2862 163.628C71.5041 163.524 71.7657 163.617 71.8699 163.835C71.9742 164.053 71.8813 164.314 71.6633 164.418C71.3847 164.551 71.1061 164.682 70.8275 164.809C70.5205 164.947 70.2096 165.084 69.8969 165.214C69.6733 165.307 69.4174 165.203 69.3245 164.979V164.978ZM48.9993 160.315C48.8212 160.478 48.5444 160.465 48.3814 160.287C47.9455 159.809 47.5096 159.343 47.0756 158.886C46.9088 158.712 46.9145 158.433 47.0907 158.266C47.2651 158.1 47.5437 158.105 47.7105 158.281C48.1483 158.742 48.5899 159.212 49.0296 159.695C49.1926 159.873 49.1794 160.15 49.0012 160.313L48.9993 160.315ZM72.7171 163.406C72.6034 163.192 72.6868 162.929 72.901 162.815C73.4298 162.535 73.9586 162.243 74.4855 161.939C74.6939 161.818 74.9631 161.892 75.0825 162.1C75.2019 162.309 75.1299 162.578 74.9214 162.698C74.385 163.006 73.8486 163.302 73.3085 163.588C73.0943 163.702 72.8289 163.619 72.7171 163.404V163.406ZM22.0841 155.607C21.8624 155.512 21.7581 155.255 21.8529 155.033C22.1429 154.354 22.5485 153.752 23.0374 153.223C23.2023 153.045 23.479 153.035 23.6572 153.2C23.8354 153.365 23.8448 153.642 23.68 153.818C23.2516 154.28 22.9029 154.798 22.6584 155.376C22.5636 155.598 22.3059 155.702 22.0841 155.607ZM46.3591 157.516C46.1867 157.686 45.91 157.684 45.7394 157.512C45.512 157.283 45.2864 157.055 45.0628 156.833C44.8619 156.634 44.6553 156.435 44.4449 156.242C44.2667 156.077 44.2554 155.8 44.4203 155.622C44.5832 155.444 44.8619 155.435 45.0381 155.598C45.2561 155.8 45.4721 156.005 45.6806 156.214C45.9062 156.439 46.1317 156.667 46.361 156.898C46.5316 157.07 46.5297 157.347 46.3573 157.518L46.3591 157.516ZM75.8975 161.611C75.7705 161.407 75.833 161.136 76.0377 161.009C76.5475 160.692 77.0574 160.364 77.5634 160.029C77.7643 159.894 78.0354 159.949 78.1699 160.152C78.3045 160.353 78.2495 160.624 78.0467 160.759C77.5331 161.1 77.0176 161.431 76.5002 161.754C76.2936 161.881 76.0244 161.818 75.8975 161.613V161.611ZM24.5537 152.476C24.4248 152.271 24.4855 152.002 24.692 151.873C25.2777 151.506 25.9126 151.195 26.5741 150.935C26.7996 150.846 27.0536 150.958 27.1408 151.184C27.2299 151.409 27.118 151.663 26.8925 151.75C26.2746 151.993 25.689 152.279 25.1564 152.614C24.9517 152.743 24.6826 152.681 24.5537 152.476ZM43.7645 155.056C43.6147 155.245 43.338 155.275 43.1485 155.126C42.705 154.773 42.2444 154.434 41.7687 154.112C41.5697 153.975 41.5167 153.704 41.6531 153.503C41.7896 153.302 42.0625 153.251 42.2615 153.388C42.7543 153.721 43.2319 154.074 43.6925 154.442C43.882 154.591 43.9123 154.866 43.7626 155.058L43.7645 155.056ZM78.9546 159.614C78.8162 159.417 78.8617 159.144 79.0588 159.004C79.5516 158.655 80.0387 158.299 80.5239 157.935C80.7172 157.789 80.992 157.828 81.1361 158.022C81.282 158.215 81.2422 158.49 81.0489 158.634C80.558 159.002 80.0614 159.364 79.563 159.716C79.3659 159.856 79.0929 159.809 78.9527 159.612L78.9546 159.614ZM40.9158 153.043C40.7964 153.253 40.5292 153.325 40.3188 153.206C39.8241 152.923 39.3181 152.66 38.8026 152.419C38.5827 152.317 38.488 152.057 38.5903 151.837C38.6926 151.618 38.9542 151.523 39.1722 151.625C39.7104 151.877 40.2373 152.152 40.7528 152.446C40.9632 152.565 41.0352 152.832 40.9158 153.043ZM28.2382 150.844C28.1813 150.609 28.3291 150.372 28.5623 150.317C28.8996 150.238 29.2408 150.168 29.58 150.109C29.8776 150.058 30.1751 150.016 30.4746 149.984C30.7153 149.959 30.9295 150.134 30.956 150.374C30.9807 150.615 30.8063 150.829 30.5656 150.856C30.287 150.886 30.0084 150.924 29.7298 150.971C29.4076 151.028 29.0854 151.093 28.7651 151.168C28.53 151.223 28.2931 151.077 28.2382 150.844ZM37.7867 151.502C37.7052 151.729 37.4531 151.847 37.2257 151.765C36.6893 151.57 36.1473 151.401 35.6014 151.263C35.3664 151.202 35.2261 150.964 35.2849 150.731C35.3436 150.497 35.5843 150.355 35.8175 150.416C36.3936 150.564 36.9641 150.74 37.5251 150.945C37.7526 151.026 37.8701 151.278 37.7886 151.506L37.7867 151.502ZM31.8222 150.34C31.8279 150.099 32.0288 149.906 32.2695 149.914C32.8684 149.927 33.4654 149.98 34.0586 150.063C34.2974 150.098 34.4642 150.319 34.4301 150.558C34.396 150.797 34.1742 150.964 33.9354 150.93C33.3744 150.848 32.8115 150.801 32.2486 150.787C32.0079 150.782 31.8165 150.581 31.8222 150.338V150.34ZM81.8885 157.442C81.7388 157.252 81.771 156.977 81.9586 156.828C82.4325 156.452 82.9025 156.07 83.3668 155.683C83.5526 155.528 83.8274 155.552 83.9828 155.738C84.1382 155.924 84.1136 156.198 83.9278 156.354C83.4578 156.746 82.9821 157.133 82.5026 157.514C82.313 157.664 82.0382 157.631 81.8885 157.442ZM84.7049 155.118C84.5457 154.936 84.5628 154.66 84.7447 154.5C85.1996 154.1 85.6507 153.695 86.0942 153.285C86.2704 153.122 86.5491 153.134 86.7121 153.31C86.875 153.486 86.8656 153.765 86.6874 153.928C86.2382 154.341 85.7833 154.752 85.3228 155.158C85.1408 155.317 84.8641 155.3 84.7049 155.118ZM87.4038 152.658C87.2352 152.486 87.2408 152.207 87.4133 152.038C87.8492 151.616 88.2795 151.187 88.7002 150.759C88.8689 150.586 89.1475 150.585 89.32 150.753C89.4925 150.924 89.4944 151.201 89.3257 151.373C88.8992 151.809 88.4633 152.239 88.0236 152.668C87.8511 152.836 87.5725 152.831 87.4038 152.658ZM89.9777 150.067C89.8014 149.902 89.7919 149.626 89.9568 149.447C90.3719 149.002 90.7794 148.555 91.1774 148.106C91.3385 147.924 91.6152 147.908 91.7953 148.068C91.9772 148.229 91.9924 148.505 91.8332 148.686C91.4314 149.14 91.0182 149.593 90.5974 150.044C90.4325 150.221 90.1558 150.23 89.9777 150.065V150.067ZM92.415 147.349C92.2312 147.194 92.2065 146.917 92.362 146.733C92.5572 146.5 92.7505 146.267 92.94 146.034C93.1466 145.782 93.3494 145.524 93.5484 145.266C93.6962 145.075 93.9711 145.041 94.1625 145.187C94.3539 145.335 94.388 145.609 94.2421 145.801C94.0374 146.066 93.8289 146.328 93.6185 146.586C93.4252 146.821 93.23 147.057 93.0329 147.294C92.8775 147.478 92.6008 147.503 92.415 147.347V147.349ZM94.8164 144.296C94.6193 144.158 94.57 143.885 94.7083 143.688C95.0836 143.151 95.4437 142.605 95.7962 142.054C95.9251 141.849 96.1962 141.79 96.4008 141.919C96.6055 142.048 96.6662 142.319 96.5354 142.524C96.1791 143.087 95.8095 143.642 95.4267 144.19C95.2883 144.387 95.0154 144.436 94.8183 144.298L94.8164 144.296ZM96.9751 140.972C96.7666 140.85 96.6946 140.581 96.8159 140.375C97.1457 139.808 97.466 139.236 97.7787 138.657C97.8943 138.445 98.1578 138.366 98.372 138.479C98.5842 138.595 98.6638 138.858 98.5501 139.073C98.2336 139.658 97.9095 140.24 97.574 140.814C97.4527 141.023 97.1836 141.093 96.977 140.972H96.9751ZM98.8818 137.498C98.6657 137.389 98.5785 137.126 98.6866 136.91C98.8344 136.616 98.9803 136.322 99.1244 136.027C99.2305 135.809 99.4921 135.72 99.71 135.826C99.928 135.932 100.017 136.194 99.9109 136.412C99.765 136.709 99.6172 137.007 99.4693 137.304C99.3613 137.52 99.0979 137.607 98.8818 137.499V137.498Z" fill="#1E1E1E"/>
<path d="M91.1648 114.833C91.2103 115.071 91.0549 115.301 90.818 115.346C90.4901 115.411 90.1527 115.449 89.8135 115.466C89.5728 115.477 89.3662 115.291 89.3548 115.051C89.3434 114.81 89.5292 114.603 89.7699 114.592C90.0712 114.579 90.365 114.544 90.6493 114.488C90.8862 114.442 91.1155 114.596 91.1629 114.833H91.1648ZM88.3332 114.977C88.2953 115.215 88.0698 115.378 87.831 115.339C87.1979 115.234 86.5573 115.077 85.9262 114.882C85.695 114.81 85.5661 114.565 85.6381 114.334C85.7082 114.103 85.9546 113.974 86.1858 114.046C86.7867 114.232 87.3856 114.38 87.9731 114.474C88.2119 114.512 88.373 114.738 88.3351 114.977H88.3332ZM84.6772 113.982C84.5843 114.203 84.3284 114.309 84.1048 114.217C83.5021 113.965 82.9146 113.69 82.3535 113.405C82.1375 113.297 82.0503 113.034 82.1602 112.818C82.2683 112.602 82.5317 112.515 82.7478 112.625C83.2936 112.899 83.8622 113.165 84.4441 113.409C84.6677 113.502 84.7719 113.758 84.6791 113.982H84.6772ZM81.2599 112.331C81.1387 112.539 80.8714 112.611 80.6629 112.492C80.3748 112.325 80.1 112.162 79.8366 112.003C79.5447 111.825 79.2566 111.647 78.9723 111.463C78.7676 111.332 78.7089 111.061 78.8396 110.858C78.9704 110.653 79.2414 110.595 79.4442 110.725C79.7229 110.904 80.0053 111.08 80.2915 111.254C80.5473 111.41 80.8183 111.571 81.0988 111.732C81.3092 111.853 81.3812 112.12 81.2599 112.329V112.331ZM77.8958 110.218C77.7536 110.413 77.4807 110.456 77.2855 110.314C76.7264 109.91 76.1881 109.492 75.6707 109.059C75.485 108.904 75.4603 108.627 75.6157 108.442C75.7711 108.258 76.046 108.231 76.2317 108.387C76.734 108.806 77.2552 109.211 77.7991 109.605C77.9943 109.747 78.0379 110.02 77.8958 110.218ZM74.7685 107.678C74.5998 107.85 74.3212 107.852 74.1488 107.684C73.656 107.2 73.1897 106.698 72.75 106.177C72.5946 105.993 72.6174 105.716 72.8012 105.561C72.985 105.405 73.2618 105.428 73.4191 105.612C73.8398 106.11 74.289 106.594 74.7628 107.06C74.9353 107.231 74.9372 107.507 74.7685 107.68V107.678ZM72.1113 104.653C71.9123 104.789 71.6394 104.736 71.5029 104.537C71.1163 103.969 70.7619 103.379 70.4396 102.767C70.3278 102.553 70.4093 102.288 70.6235 102.176C70.8377 102.062 71.103 102.145 71.2148 102.36C71.52 102.941 71.8592 103.502 72.2269 104.045C72.3634 104.245 72.3103 104.516 72.1113 104.653ZM70.1554 101.137C69.9298 101.222 69.6758 101.111 69.5906 100.885C69.348 100.252 69.1395 99.5963 68.9651 98.9158C68.9064 98.6827 69.0466 98.4439 69.2816 98.3833C69.5147 98.3245 69.7536 98.4648 69.8142 98.6998C69.9791 99.3461 70.1781 99.9696 70.4093 100.572C70.4965 100.798 70.3828 101.052 70.1573 101.137H70.1554ZM69.0599 97.265C68.8211 97.2991 68.5993 97.1324 68.5652 96.8936C68.5178 96.5581 68.478 96.215 68.4477 95.8682C68.423 95.5896 68.4155 95.311 68.4249 95.0342C67.8488 94.8826 67.2934 94.7234 66.7798 94.568C66.5486 94.4979 66.4178 94.2534 66.4879 94.0222C66.5581 93.7909 66.8026 93.6601 67.0338 93.7303C67.6592 93.9198 68.3416 94.1131 69.0504 94.2932C69.2854 94.352 69.4276 94.5907 69.3688 94.8239C69.3555 94.8769 69.3347 94.9262 69.3044 94.9679C69.2911 95.2408 69.2949 95.5157 69.3195 95.7924C69.3499 96.124 69.3878 96.4519 69.4332 96.7722C69.4674 97.0111 69.3006 97.2328 69.0618 97.2669L69.0599 97.265ZM75.159 95.0077C75.9114 94.9205 76.5122 94.7272 76.9311 94.4202C77.1263 94.278 77.4011 94.3197 77.5433 94.5149C77.6854 94.7102 77.6437 94.985 77.4485 95.1271C76.8591 95.5593 76.0914 95.7829 75.2594 95.8777C75.0187 95.9061 74.8007 95.7336 74.7742 95.4929C74.7477 95.2522 74.9183 95.0343 75.159 95.0077ZM73.5385 95.4872C73.5195 95.7279 73.3092 95.908 73.0666 95.889C72.3691 95.8322 71.647 95.7298 70.9286 95.5991C70.6898 95.5555 70.5325 95.328 70.5761 95.0892C70.6197 94.8504 70.8471 94.695 71.086 94.7367C71.7834 94.8637 72.4752 94.9622 73.1367 95.0153C73.3774 95.0343 73.5574 95.2446 73.5385 95.4853V95.4872ZM78.0948 93.3986C77.8541 93.3853 77.6683 93.1807 77.6797 92.9399C77.693 92.6651 77.6702 92.3505 77.6001 91.9904C77.5565 91.7649 77.4883 91.5658 77.4011 91.3915C77.2931 91.1754 77.3803 90.912 77.5982 90.8058C77.8143 90.6978 78.0777 90.785 78.1839 91.0011C78.309 91.2493 78.4018 91.5242 78.4606 91.8236C78.5402 92.2406 78.5724 92.6272 78.5535 92.9854C78.5421 93.2261 78.3355 93.4119 78.0929 93.4005L78.0948 93.3986ZM69.1793 93.2261C68.9575 93.1314 68.8533 92.8736 68.9499 92.6519C69.2399 91.9696 69.6474 91.346 70.1554 90.8191C70.324 90.6447 70.6008 90.6391 70.7751 90.8077C70.9495 90.9745 70.9552 91.2531 70.7865 91.4275C70.3563 91.8748 70.0075 92.4074 69.7554 92.9968C69.6607 93.2185 69.4029 93.3228 69.1812 93.2261H69.1793ZM65.3072 93.6355C65.2276 93.8629 64.9774 93.9824 64.75 93.9028C64.3008 93.7454 63.9577 93.6166 63.7511 93.537C63.4138 93.4062 63.0802 93.2716 62.7504 93.1333C62.5286 93.0404 62.4225 92.7826 62.5173 92.559C62.6101 92.3353 62.8679 92.2311 63.0916 92.3259C63.4119 92.4604 63.7379 92.5912 64.0676 92.7201C64.2629 92.7959 64.6002 92.921 65.0399 93.0764C65.2674 93.156 65.3868 93.4062 65.3072 93.6355ZM77.149 90.3453C77.0258 90.5538 76.7567 90.622 76.5501 90.4969C76.1881 90.2827 75.7579 90.1406 75.2916 90.0629C75.0528 90.0231 74.8917 89.7975 74.9315 89.5587C74.9713 89.3199 75.1969 89.1588 75.4357 89.1986C75.9796 89.2896 76.5217 89.4602 76.9974 89.7445C77.204 89.8677 77.2722 90.1368 77.149 90.3434V90.3453ZM71.7398 90.1387C71.647 89.915 71.7512 89.6592 71.9749 89.5644C72.3103 89.4242 72.6666 89.3142 73.04 89.2422C73.2921 89.1948 73.5574 89.1569 73.8323 89.1361C74.073 89.1171 74.2833 89.2972 74.3023 89.5379C74.3212 89.7786 74.1412 89.989 73.9005 90.0079C73.6579 90.0269 73.4248 90.0591 73.2068 90.1008C72.8941 90.1614 72.5965 90.2524 72.3141 90.3699C72.0905 90.4628 71.8346 90.3585 71.7398 90.1368V90.1387ZM61.3744 92.0359C61.2664 92.252 61.0029 92.3391 60.7869 92.2311C60.133 91.9051 59.5 91.5602 58.8859 91.1925C58.6793 91.0693 58.6111 90.8002 58.7361 90.5936C58.8612 90.387 59.1285 90.3187 59.337 90.4419C59.9302 90.7982 60.5443 91.1318 61.1792 91.4483C61.3953 91.5564 61.4824 91.8198 61.3744 92.0359ZM57.6861 89.9018C57.544 90.097 57.2711 90.1406 57.0759 90.0003C56.4883 89.5758 55.9216 89.1247 55.3758 88.6452C55.1938 88.486 55.1768 88.2093 55.336 88.0273C55.4952 87.8454 55.7719 87.8283 55.9538 87.9875C56.4769 88.4481 57.0228 88.8821 57.5876 89.2915C57.7828 89.4336 57.8283 89.7066 57.6861 89.9037V89.9018ZM54.4338 87.1498C54.2575 87.3147 53.9808 87.3052 53.8159 87.1289C53.327 86.6058 52.8588 86.0524 52.4115 85.4706C52.2637 85.2772 52.3016 85.0043 52.493 84.8565C52.6844 84.7086 52.9593 84.7447 53.1071 84.9361C53.5373 85.4971 53.9884 86.0278 54.4566 86.5319C54.6214 86.7082 54.612 86.9849 54.4338 87.1498ZM51.7728 83.8235C51.5681 83.9524 51.299 83.8918 51.1682 83.6871C50.9768 83.3857 50.791 83.0749 50.6091 82.7565C50.4499 82.4817 50.2964 82.2049 50.1428 81.9282C50.0272 81.716 50.1049 81.4506 50.3153 81.3331C50.5276 81.2175 50.7929 81.2952 50.9104 81.5056C51.0602 81.7785 51.2137 82.0495 51.3691 82.3206C51.5454 82.6276 51.7254 82.9271 51.9093 83.2189C52.0381 83.4236 51.9775 83.6928 51.7728 83.8216V83.8235ZM49.8472 80.4385C49.6311 80.5466 49.3677 80.4594 49.2596 80.2433C48.9772 79.6766 48.7043 79.1042 48.4427 78.5243C48.3442 78.3044 48.4427 78.0448 48.6626 77.9462C48.8825 77.8476 49.1421 77.9462 49.2407 78.1661C49.4965 78.7347 49.7638 79.2976 50.0424 79.8548C50.1504 80.0708 50.0632 80.3343 49.8472 80.4404V80.4385ZM48.2684 77.0137C48.0447 77.1047 47.7889 76.9948 47.6998 76.7711C47.4629 76.1817 47.2392 75.5884 47.0289 74.9895C46.9493 74.7602 47.0686 74.5119 47.2961 74.4304C47.5235 74.3508 47.7737 74.4702 47.8552 74.6977C48.0618 75.2833 48.2797 75.8671 48.5129 76.4451C48.6038 76.6688 48.4939 76.9246 48.2703 77.0137H48.2684ZM46.9815 73.4695C46.7502 73.5396 46.5057 73.4088 46.4356 73.1776C46.2518 72.5692 46.0812 71.957 45.9258 71.3411C45.867 71.1061 46.0073 70.8691 46.2423 70.8104C46.4754 70.7516 46.7142 70.8919 46.773 71.1269C46.9246 71.7296 47.0933 72.3285 47.2733 72.9236C47.3435 73.1549 47.2127 73.3994 46.9815 73.4695ZM46.0168 69.8248C45.7798 69.8722 45.5486 69.7206 45.5012 69.4818C45.3743 68.8582 45.2643 68.2328 45.1696 67.6035C45.1335 67.3647 45.2965 67.143 45.5372 67.1051C45.778 67.0691 45.9997 67.234 46.0357 67.4728C46.1286 68.0868 46.2366 68.699 46.3598 69.3093C46.4072 69.5462 46.2556 69.7774 46.0168 69.8248ZM45.4122 66.1025C45.1714 66.1252 44.9573 65.9508 44.9345 65.7101C44.872 65.0771 44.8284 64.4422 44.8 63.8053C44.7886 63.5646 44.9762 63.36 45.2188 63.3486C45.4595 63.3372 45.6642 63.5248 45.6756 63.7674C45.7021 64.3872 45.7457 65.007 45.8064 65.6248C45.8291 65.8655 45.6548 66.0797 45.414 66.1025H45.4122ZM45.2037 62.3384C44.963 62.3346 44.7677 62.1356 44.7715 61.8949C44.7753 61.5765 44.7848 61.2581 44.7981 60.9396C44.8094 60.6989 45.0122 60.5113 45.2548 60.5208C45.4955 60.5303 45.6832 60.735 45.6737 60.9776C45.6604 61.2884 45.651 61.5973 45.6472 61.9081C45.6434 62.1488 45.4444 62.3441 45.2037 62.3403V62.3384Z" fill="#1E1E1E"/>
<path d="M145.153 31.3994C144.912 31.46 144.667 31.5377 144.417 31.6306C144.192 31.7159 143.938 31.6022 143.854 31.3766C143.769 31.1511 143.883 30.8971 144.108 30.8118C144.385 30.7076 144.664 30.6185 144.94 30.5503C145.175 30.4915 145.412 30.6337 145.471 30.8687C145.528 31.1037 145.386 31.3406 145.151 31.3994H145.153ZM143.163 31.714C143.282 31.9244 143.208 32.1916 142.998 32.311C142.549 32.5669 142.096 32.8569 141.644 33.1715C141.447 33.3098 141.173 33.2625 141.036 33.0634C140.898 32.8644 140.945 32.5934 141.144 32.455C141.61 32.1291 142.086 31.822 142.566 31.551C142.776 31.4316 143.043 31.5055 143.163 31.7159V31.714ZM140.42 33.524C140.57 33.7135 140.538 33.9884 140.348 34.1381C139.918 34.4792 139.497 34.828 139.093 35.1748C138.91 35.3321 138.633 35.3094 138.476 35.1274C138.318 34.9436 138.339 34.6669 138.523 34.5096C138.934 34.1589 139.363 33.8007 139.804 33.452C139.994 33.3023 140.268 33.3345 140.42 33.524ZM137.897 35.6354C138.059 35.8154 138.041 36.0921 137.86 36.2532C137.803 36.3044 137.746 36.3556 137.689 36.4049C137.537 36.5413 137.388 36.6721 137.244 36.7991C137.064 36.9583 136.859 37.1365 136.633 37.3298C136.575 37.381 136.516 37.434 136.453 37.4852C136.271 37.6444 135.995 37.6235 135.835 37.4416C135.676 37.2596 135.697 36.9829 135.879 36.8237C135.94 36.7707 136 36.7176 136.059 36.6664C136.285 36.4712 136.485 36.2968 136.664 36.1395C136.806 36.0125 136.954 35.8837 137.107 35.7472C137.164 35.6979 137.221 35.6467 137.28 35.5956C137.46 35.4345 137.736 35.4515 137.897 35.6335V35.6354ZM134.918 38.2528C135.079 38.431 135.068 38.7077 134.888 38.8707C134.404 39.3085 133.893 39.788 133.373 40.2978C133.201 40.4684 132.924 40.4646 132.754 40.2921C132.583 40.1197 132.587 39.843 132.759 39.6724C133.288 39.1512 133.807 38.666 134.298 38.2225C134.476 38.0595 134.753 38.0727 134.916 38.2528H134.918ZM131.904 41.1716C132.083 41.3346 132.096 41.6113 131.931 41.7894C131.47 42.2955 131.016 42.8186 130.587 43.3606C130.438 43.5502 130.161 43.5805 129.971 43.4289C129.782 43.2791 129.751 43.0043 129.901 42.8148C130.347 42.2557 130.813 41.7155 131.287 41.1981C131.45 41.0199 131.726 41.0067 131.904 41.1716ZM129.251 44.4182C129.454 44.5509 129.511 44.8219 129.378 45.0247C128.999 45.6085 128.658 46.1998 128.374 46.7968C128.269 47.0148 128.008 47.1077 127.79 47.0034C127.572 46.8992 127.479 46.6376 127.583 46.4197C127.888 45.7828 128.248 45.1555 128.646 44.5471C128.779 44.3443 129.05 44.2874 129.253 44.4201L129.251 44.4182ZM120.07 50.6386C119.739 50.7144 119.416 50.794 119.106 50.8755C118.783 50.9589 118.469 51.048 118.16 51.1371C117.929 51.2053 117.684 51.0726 117.616 50.8414C117.548 50.6102 117.68 50.3657 117.913 50.2975C118.232 50.2046 118.554 50.1136 118.884 50.0283C119.202 49.9449 119.532 49.8634 119.871 49.7857C120.106 49.7308 120.343 49.8786 120.396 50.1136C120.451 50.3486 120.303 50.5836 120.068 50.6386H120.07ZM121.52 49.8843C121.477 49.6455 121.636 49.418 121.875 49.3763C122.528 49.2588 123.201 49.1527 123.889 49.0617C124.13 49.0295 124.348 49.1982 124.382 49.437C124.414 49.6777 124.246 49.8975 124.005 49.9298C123.332 50.0188 122.671 50.1231 122.03 50.2387C121.791 50.2804 121.564 50.1231 121.522 49.8843H121.52ZM127.36 48.1482C127.595 48.2088 127.735 48.4476 127.674 48.6808C127.67 48.6959 127.665 48.713 127.663 48.73C127.759 48.7262 127.858 48.7225 127.955 48.7187C128.195 48.7111 128.398 48.9006 128.406 49.1432C128.413 49.3839 128.224 49.5867 127.981 49.5943C127.818 49.5981 127.655 49.6057 127.49 49.6133C127.445 49.9563 127.426 50.2974 127.433 50.6367C127.439 50.8774 127.25 51.0783 127.007 51.084C126.766 51.0897 126.564 50.9002 126.558 50.6576C126.55 50.3259 126.565 49.9942 126.601 49.6644C126.397 49.6777 126.192 49.6947 125.987 49.7118C125.747 49.7326 125.534 49.5526 125.514 49.3119C125.493 49.0712 125.673 48.8589 125.913 48.8381C126.192 48.8153 126.471 48.7945 126.749 48.7755C126.772 48.6713 126.797 48.5651 126.823 48.4609C126.884 48.2278 127.123 48.0856 127.356 48.1463L127.36 48.1482ZM116.562 51.1901C116.645 51.4176 116.53 51.6678 116.302 51.753C115.677 51.9824 115.076 52.2326 114.5 52.4979C114.28 52.5984 114.02 52.5036 113.92 52.2837C113.818 52.0639 113.914 51.8042 114.134 51.7019C114.733 51.4271 115.355 51.1693 116.001 50.9324C116.228 50.849 116.481 50.9646 116.564 51.192L116.562 51.1901ZM112.933 52.7898C113.052 53.0002 112.98 53.2674 112.771 53.3868C112.203 53.7128 111.659 54.0596 111.132 54.433C110.935 54.5714 110.662 54.5259 110.522 54.3288C110.383 54.1317 110.429 53.8587 110.626 53.7185C111.174 53.3299 111.742 52.9679 112.334 52.6287C112.544 52.5093 112.811 52.5813 112.931 52.7898H112.933ZM129.547 49.1432C129.556 48.9025 129.757 48.713 130 48.7206C130.703 48.7433 131.391 48.7945 132.052 48.876C132.293 48.9044 132.464 49.1243 132.433 49.3631C132.405 49.6038 132.185 49.7744 131.946 49.744C131.313 49.6663 130.65 49.617 129.969 49.5943C129.729 49.5848 129.539 49.3839 129.547 49.1413V49.1432ZM109.646 55.0111C109.803 55.1949 109.783 55.4716 109.599 55.6289C109.112 56.0478 108.64 56.4913 108.179 56.9613C108.01 57.1338 107.734 57.1376 107.559 56.9689C107.387 56.8002 107.383 56.5216 107.552 56.3492C108.029 55.8621 108.52 55.3996 109.028 54.9656C109.212 54.8083 109.487 54.8291 109.646 55.0111ZM133.557 49.564C133.616 49.3308 133.855 49.1887 134.09 49.2475C134.808 49.4313 135.477 49.6644 136.074 49.962C136.29 50.07 136.379 50.3316 136.271 50.5495C136.163 50.7656 135.902 50.8547 135.686 50.7466C135.155 50.4832 134.547 50.2671 133.876 50.0966C133.641 50.0378 133.5 49.799 133.559 49.564H133.557ZM127.238 52.2875C127.466 52.2022 127.718 52.3159 127.803 52.5434C127.915 52.8409 128.053 53.1347 128.222 53.4285C128.385 53.7128 128.573 53.9914 128.779 54.2605C128.927 54.452 128.891 54.7268 128.7 54.8746C128.508 55.0225 128.233 54.9864 128.085 54.7931C127.856 54.4956 127.648 54.1847 127.464 53.8644C127.272 53.5308 127.113 53.1935 126.984 52.8523C126.899 52.6249 127.013 52.3728 127.238 52.2875ZM106.816 57.7934C107 57.9488 107.025 58.2255 106.871 58.4094C106.462 58.8983 106.06 59.4101 105.664 59.9502C105.52 60.1455 105.247 60.1872 105.052 60.0431C104.857 59.8991 104.815 59.6261 104.959 59.4309C105.365 58.8775 105.778 58.3506 106.2 57.8465C106.356 57.6607 106.633 57.638 106.818 57.7915L106.816 57.7934ZM137.204 51.2186C137.384 51.0575 137.661 51.0745 137.822 51.2546C138.316 51.8118 138.659 52.4733 138.809 53.2465C138.855 53.4835 138.699 53.7128 138.462 53.7602C138.223 53.8057 137.994 53.6502 137.949 53.4133C137.831 52.8012 137.562 52.2799 137.168 51.8364C137.007 51.6545 137.024 51.3778 137.204 51.2186ZM104.419 60.9566C104.62 61.0893 104.677 61.3603 104.544 61.5631C104.366 61.8342 104.188 62.109 104.011 62.3914C103.841 62.6643 103.676 62.9391 103.517 63.2158C103.397 63.4262 103.128 63.4983 102.92 63.377C102.709 63.2576 102.637 62.9903 102.757 62.7799C102.922 62.4937 103.09 62.2075 103.268 61.927C103.448 61.639 103.629 61.3585 103.81 61.0817C103.943 60.8808 104.214 60.824 104.417 60.9566H104.419ZM129.569 55.7692C129.725 55.5835 130 55.5588 130.185 55.7142C130.71 56.1539 131.281 56.5406 131.865 56.8571C132.077 56.9727 132.157 57.2381 132.041 57.4503C131.925 57.6626 131.66 57.7422 131.448 57.6266C130.813 57.2816 130.195 56.8628 129.623 56.3852C129.439 56.2298 129.414 55.9549 129.568 55.7692H129.569ZM138.417 54.903C138.654 54.9523 138.805 55.1854 138.756 55.4205C138.688 55.7521 138.593 56.0952 138.47 56.4515C138.33 56.8609 138.134 57.2134 137.89 57.5129C137.738 57.7005 137.462 57.7289 137.274 57.5754C137.086 57.4219 137.058 57.1471 137.211 56.9595C137.384 56.7472 137.532 56.4856 137.642 56.1672C137.753 55.8431 137.839 55.5342 137.899 55.2423C137.949 55.0054 138.18 54.8538 138.417 54.903ZM102.427 64.3284C102.645 64.4307 102.74 64.6923 102.635 64.9103C102.362 65.4902 102.114 66.0759 101.889 66.6691C101.803 66.8946 101.549 67.0084 101.324 66.9231C101.098 66.8378 100.985 66.5838 101.07 66.3583C101.303 65.7442 101.561 65.1377 101.843 64.5369C101.945 64.3189 102.207 64.2242 102.425 64.3284H102.427ZM133.197 57.9261C133.26 57.6929 133.498 57.5527 133.733 57.6152C134.433 57.801 135.09 57.8578 135.663 57.7782C135.902 57.7441 136.123 57.9109 136.158 58.1516C136.192 58.3904 136.025 58.6122 135.786 58.6463C135.072 58.7467 134.293 58.669 133.512 58.4624C133.279 58.3999 133.138 58.1611 133.201 57.9261H133.197ZM100.983 67.939C101.214 68.0072 101.347 68.2517 101.278 68.4829C101.096 69.0951 100.937 69.713 100.799 70.3365C100.746 70.5734 100.513 70.7213 100.278 70.6701C100.041 70.617 99.8929 70.3839 99.944 70.1489C100.086 69.5064 100.251 68.8677 100.439 68.2346C100.507 68.0034 100.751 67.8707 100.983 67.939ZM100.08 71.722C100.319 71.758 100.484 71.9816 100.448 72.2204C100.352 72.8516 100.274 73.4865 100.215 74.1271C100.192 74.3678 99.9801 74.5441 99.7393 74.5232C99.4986 74.5005 99.3205 74.2882 99.3432 74.0475C99.4039 73.3917 99.4816 72.7379 99.582 72.0897C99.618 71.8509 99.8417 71.6879 100.08 71.7239V71.722ZM99.6692 75.5922C99.9099 75.6017 100.099 75.8045 100.092 76.0452C100.069 76.6839 100.062 77.3264 100.071 77.9689C100.075 78.2096 99.8815 78.4086 99.6389 78.4124C99.3963 78.4162 99.1992 78.2229 99.1954 77.9803C99.1859 77.3226 99.1935 76.6668 99.2162 76.0111C99.2257 75.7704 99.4285 75.5808 99.6692 75.5903V75.5922ZM99.6806 79.4852C99.9213 79.47 100.128 79.6557 100.143 79.8964C100.181 80.537 100.234 81.1777 100.298 81.8183C100.323 82.059 100.149 82.2732 99.908 82.2978C99.6673 82.3224 99.4532 82.1481 99.4285 81.9074C99.3622 81.2554 99.3091 80.6015 99.2693 79.9495C99.256 79.7088 99.4399 79.5022 99.6806 79.487V79.4852ZM100.037 83.361C100.278 83.3269 100.497 83.4956 100.532 83.7344C100.621 84.3732 100.721 85.01 100.831 85.643C100.873 85.8818 100.714 86.1074 100.475 86.1491C100.236 86.1908 100.01 86.0315 99.9687 85.7927C99.855 85.1483 99.7545 84.502 99.6635 83.8538C99.6294 83.6131 99.7981 83.3933 100.037 83.3591V83.361ZM100.676 87.2028C100.913 87.1536 101.144 87.3071 101.193 87.544C101.324 88.177 101.462 88.8082 101.61 89.4336C101.665 89.6686 101.519 89.9055 101.284 89.9605C101.049 90.0155 100.814 89.8695 100.757 89.6345C100.609 89.0015 100.469 88.3628 100.336 87.7202C100.287 87.4833 100.439 87.2521 100.676 87.2028ZM101.542 90.9991C101.775 90.9385 102.014 91.0787 102.076 91.3119C102.239 91.9411 102.41 92.5647 102.584 93.1825C102.651 93.4156 102.516 93.6563 102.283 93.7227C102.052 93.789 101.809 93.6545 101.743 93.4213C101.566 92.7978 101.394 92.1685 101.229 91.5336C101.168 91.3005 101.309 91.0617 101.542 91.001V90.9991ZM102.586 94.75C102.817 94.6798 103.062 94.8106 103.132 95.0418C103.321 95.6673 103.515 96.2832 103.712 96.8935C103.786 97.1229 103.659 97.3712 103.429 97.4451C103.2 97.519 102.952 97.392 102.878 97.1627C102.681 96.5486 102.486 95.9269 102.292 95.2977C102.222 95.0665 102.353 94.822 102.584 94.7518L102.586 94.75ZM103.767 98.4628C103.996 98.3851 104.244 98.5083 104.322 98.7377C104.531 99.3593 104.743 99.9734 104.953 100.576C105.033 100.804 104.912 101.054 104.684 101.133C104.457 101.213 104.207 101.092 104.127 100.864C103.915 100.26 103.702 99.6436 103.492 99.0163C103.414 98.787 103.538 98.5387 103.767 98.4628ZM105.042 102.142C105.27 102.06 105.52 102.18 105.602 102.407C105.825 103.031 106.045 103.641 106.259 104.234C106.341 104.461 106.225 104.714 105.996 104.795C105.768 104.877 105.518 104.761 105.435 104.532C105.219 103.936 104.999 103.326 104.775 102.701C104.694 102.473 104.811 102.221 105.039 102.14L105.042 102.142ZM106.362 105.8C106.589 105.718 106.839 105.836 106.921 106.063C107.15 106.702 107.37 107.318 107.576 107.911C107.656 108.14 107.535 108.389 107.307 108.468C107.08 108.548 106.83 108.426 106.75 108.199C106.545 107.611 106.326 106.997 106.096 106.361C106.015 106.133 106.132 105.883 106.36 105.801L106.362 105.8ZM107.648 109.476C107.878 109.403 108.126 109.53 108.2 109.759C108.418 110.434 108.609 111.069 108.765 111.654C108.827 111.887 108.687 112.128 108.454 112.191C108.221 112.253 107.98 112.113 107.918 111.88C107.768 111.313 107.582 110.693 107.366 110.028C107.292 109.799 107.417 109.55 107.648 109.476ZM108.683 113.237C108.924 113.205 109.142 113.375 109.172 113.616C109.22 113.985 109.24 114.33 109.229 114.647C109.22 114.888 109.017 115.077 108.774 115.068C108.534 115.058 108.344 114.855 108.353 114.613C108.363 114.359 108.346 114.065 108.302 113.728C108.272 113.487 108.441 113.269 108.681 113.239L108.683 113.237Z" fill="#1E1E1E"/>
<path d="M121.273 148.955L82.8936 169.133L106.602 133.475L121.273 148.957V148.955Z" fill="#0B0B0B"/>
<path d="M165.518 94.3004L54.1689 116.434L77.3409 133.535L165.518 94.2985V94.3004Z" fill="#434343"/>
<path d="M130.112 180.242L92.4443 144.873L165.512 94.3011L130.11 180.242H130.112Z" fill="#434343"/>
<path d="M82.8989 169.131L77.3457 133.538L165.523 94.3011L82.9008 169.131H82.8989Z" fill="#1E1E1E"/>
<path d="M32.6826 57.8677L57.3879 71.4153L39.9473 46.24L32.6826 57.8677Z" fill="#484848"/>
<path d="M0.978516 19.3794L69.2359 32.3053L57.3372 45.5327L0.978516 19.3794Z" fill="#434343"/>
<path d="M30.3559 80.7763L49.4189 54.0942L1.24219 19.4916L30.3559 80.7763Z" fill="#434343"/>
<path d="M57.3772 71.4039L57.3337 45.4573L1.24219 19.4916L57.3754 71.4039H57.3772Z" fill="#1E1E1E"/>
<path d="M158.577 30.9217L143.031 43.6222L151.534 24.1081L158.577 30.9217Z" fill="#484848"/>
<path d="M175.014 0.489517L128.187 19.0256L138.971 26.133L175.014 0.491414V0.489517Z" fill="#434343"/>
<path d="M163.875 46.0741L146.002 30.7866L175.021 0.488228L163.875 46.0722V46.0741Z" fill="#434343"/>
<path d="M143.04 43.6234L138.963 26.0881L175.015 0.488228L143.038 43.6234H143.04Z" fill="#1E1E1E"/>
</svg>
