<svg width="9" height="8" viewBox="0 0 9 8" fill="none" xmlns="http://www.w3.org/2000/svg">
<g clip-path="url(#clip0_148_346)">
<path d="M6.43513 2.97891L6.22115 3.19574V2.89111V2.22705C6.22115 1.67751 5.84144 1.26114 5.42308 1.26114H1.42308C1.00472 1.26114 0.625 1.67751 0.625 2.22705V5.13614C0.625 5.68568 1.00472 6.10205 1.42308 6.10205H5.42308C5.84144 6.10205 6.22115 5.68568 6.22115 5.13614V4.47208V4.16745L6.43513 4.38428L7.84737 5.81537C7.93924 5.90843 8.06183 5.9159 8.17228 5.85586C8.28445 5.79489 8.375 5.66609 8.375 5.49978V1.86341C8.375 1.69697 8.28451 1.56801 8.1724 1.50702C8.06217 1.44705 7.93938 1.45462 7.84737 1.54782L6.43513 2.97891Z" stroke="white" stroke-width="0.25"/>
</g>
<defs>
<clipPath id="clip0_148_346">
<rect width="8" height="8" fill="white" transform="matrix(1 0 0 -1 0.5 8)"/>
</clipPath>
</defs>
</svg>
