<svg width="21" height="21" viewBox="0 0 21 21" fill="none" xmlns="http://www.w3.org/2000/svg">
<path d="M10.0127 11.832C10.7031 11.832 11.2627 11.2724 11.2627 10.582C11.2627 9.89168 10.7031 9.33203 10.0127 9.33203C9.32234 9.33203 8.7627 9.89168 8.7627 10.582C8.7627 11.2724 9.32234 11.832 10.0127 11.832Z" fill="#1E1E1E"/>
<path d="M12.8533 8.68381L12.4375 8.96159L12.8533 8.68381C12.4779 8.12194 11.9442 7.68402 11.3199 7.42542C10.6956 7.16682 10.0086 7.09916 9.34587 7.23099C8.6831 7.36282 8.07431 7.68823 7.59648 8.16606C7.11865 8.64389 6.79324 9.25268 6.66141 9.91545C6.52958 10.5782 6.59724 11.2652 6.85584 11.8895C7.11444 12.5138 7.55236 13.0474 8.11423 13.4229C8.6761 13.7983 9.33667 13.9987 10.0124 13.9987C10.9186 13.9987 11.7876 13.6387 12.4284 12.998C13.0691 12.3572 13.4291 11.4882 13.4291 10.582C13.4291 9.90625 13.2287 9.24567 12.8533 8.68381ZM4.59862 13.6756C3.27306 12.485 2.47065 11.1815 2.22044 10.7487L17.8037 10.75C17.4601 11.3492 16.6438 12.6239 15.3651 13.7579C14.0899 14.8887 12.3795 15.8592 10.231 15.9153H10.0291C7.73801 15.9153 5.92273 14.865 4.59862 13.6756Z" stroke="#1E1E1E"/>
</svg>
