<svg width="107" height="31" viewBox="0 0 107 31" fill="none" xmlns="http://www.w3.org/2000/svg">
<path fill-rule="evenodd" clip-rule="evenodd" d="M13.7161 3.10994C12.9881 3.19488 12.4325 3.78612 12.3807 4.53196C12.3586 4.85306 12.3654 4.87515 13.0942 6.74994C14.7516 11.0143 15.1534 12.0413 15.2205 12.1857C15.3845 12.5357 15.6138 12.8645 15.9018 13.1601C16.1227 13.3869 16.2679 13.5084 16.5135 13.6732C16.9458 13.962 17.1608 14.0418 18.8428 14.5396C20.4814 15.0247 21.3768 15.3475 22.149 15.7306C23.1488 16.2267 23.8463 16.7908 24.2871 17.461C24.604 17.9418 24.8843 18.8032 25.0058 19.6705C25.0534 20.0094 25.0542 20.7587 25.0067 21.0653C24.9039 21.7305 24.6983 22.2877 24.384 22.7541C24.2166 23.0021 24.2753 22.9605 24.5182 22.6581C25.2063 21.8027 25.9071 20.3407 26.2648 19.0147C26.6972 17.41 26.7566 15.6873 26.4338 14.0563C25.806 10.8801 23.8012 8.13969 20.9775 6.59789C20.8 6.50105 20.1246 6.14682 19.208 5.67026C19.0687 5.59805 18.8793 5.49866 18.7867 5.45024C18.6941 5.40182 18.5047 5.30243 18.3653 5.23023C18.226 5.15802 17.8259 4.94905 17.4759 4.76726C17.1259 4.58463 16.7343 4.38075 16.6052 4.31364C16.2127 4.10892 15.9494 3.9713 15.7532 3.86852C14.8451 3.39366 14.4611 3.20083 14.3515 3.1677C14.2368 3.13287 13.9446 3.08785 13.8715 3.09379C13.8562 3.09379 13.7866 3.10229 13.7161 3.10994Z" fill="url(#paint0_radial_347_4694)"/>
<path d="M15.6945 19.0309C15.6444 19.0606 15.5738 19.1039 15.5373 19.1269C15.5016 19.1498 15.4209 19.1999 15.3598 19.2373C15.133 19.3766 14.5298 19.7478 14.0116 20.0681C13.671 20.2779 13.6209 20.3093 13.1876 20.5778C13.033 20.6738 12.8691 20.7749 12.8223 20.802C12.7756 20.8301 12.5777 20.9516 12.3823 21.073C12.1869 21.1945 11.8454 21.4052 11.6237 21.5411C11.402 21.677 11.0061 21.9217 10.7436 22.0839C10.4811 22.2462 10.1354 22.4594 9.9757 22.5571C9.816 22.6548 9.66903 22.749 9.64779 22.7669C9.61721 22.7932 8.19771 23.6724 7.48499 24.1065C6.94386 24.4361 6.31779 24.6561 5.67727 24.7428C5.3791 24.7827 4.81419 24.7835 4.51687 24.7428C3.7107 24.634 2.96739 24.3333 2.33112 23.8585C2.08137 23.6724 1.61161 23.2027 1.43236 22.9597C1.00932 22.388 0.734931 21.7755 0.593066 21.0815C0.560785 20.9218 0.529353 20.7868 0.524256 20.7817C0.510664 20.7681 0.5353 21.0093 0.577774 21.3245C0.622797 21.6524 0.718789 22.1264 0.821578 22.5324C1.61925 25.6712 3.88909 28.2239 6.96255 29.4387C7.84772 29.7887 8.74054 30.0087 9.71236 30.1166C10.0776 30.1573 11.1106 30.1735 11.492 30.1446C13.2394 30.0121 14.7609 29.4981 16.3214 28.5119C16.4607 28.4244 16.7215 28.2596 16.9016 28.1458C17.0817 28.0319 17.3094 27.8884 17.4071 27.8255C17.5047 27.7627 17.6228 27.6888 17.6695 27.6607C17.7163 27.6327 17.8089 27.5749 17.8751 27.5316C17.9422 27.4883 18.2285 27.3073 18.5114 27.1289L19.6438 26.4137L20.0328 26.1682L20.0464 26.1597L20.0889 26.1325L20.1093 26.1198L20.3956 25.9388L21.3852 25.3136C22.6459 24.5219 23.0213 24.2433 23.6075 23.6699C23.8513 23.4312 24.22 23.0226 24.2378 22.9708C24.2412 22.9606 24.3066 22.8595 24.3831 22.7465C24.6931 22.2878 24.8996 21.7263 25.0024 21.0637C25.0499 20.757 25.0491 20.0078 25.0015 19.6688C24.9089 19.013 24.6999 18.2698 24.474 17.7966C24.1036 17.0202 23.3153 16.3151 22.182 15.7468C21.8694 15.5897 21.5458 15.4461 21.5101 15.4486C21.4931 15.4495 20.4389 16.0942 19.1663 16.8809C17.8947 17.6675 16.7912 18.3505 16.7139 18.3989C16.6366 18.4464 16.504 18.528 16.4191 18.579L15.6945 19.0309Z" fill="url(#paint1_radial_347_4694)"/>
<path d="M0.507645 15.2558L0.512742 20.7366L0.5841 21.0552C0.805817 22.0499 1.19064 22.7677 1.85834 23.4346C2.17265 23.748 2.41305 23.9366 2.7537 24.1388C3.47407 24.5652 4.24965 24.7759 5.09915 24.775C5.98856 24.7742 6.75905 24.5525 7.55163 24.0674C7.68585 23.9859 8.20998 23.6631 8.71713 23.3496L9.63883 22.7805V16.2777V9.77498V13.2091C9.63883 9.41361 9.63203 7.15995 9.61929 6.9824C9.54368 5.87129 9.07901 4.84937 8.29748 4.07719C8.05792 3.84019 7.85235 3.68134 7.24241 3.2617C6.9383 3.05273 6.38273 2.66961 6.0064 2.41052C5.63093 2.15143 5.01165 1.72499 4.63023 1.4625C4.24881 1.20002 3.70598 0.825398 3.42225 0.630018C2.8327 0.223119 2.78598 0.195087 2.60759 0.131376C2.37568 0.0481274 2.13017 0.0175455 1.89571 0.0430298C1.21442 0.116934 0.669048 0.608781 0.527183 1.27732C0.505096 1.38096 0.500849 2.7656 0.500849 10.2792V9.77583H0.5L0.507645 15.2558Z" fill="url(#paint2_linear_347_4694)"/>
<path d="M40.7934 9.8968H41.9934L37.0334 21.0968H35.8654L30.9054 9.8968H32.1854L36.4734 19.6248L40.7934 9.8968ZM43.908 10.8408C43.444 10.8408 43.076 10.4728 43.076 10.0248C43.076 9.5928 43.444 9.2248 43.908 9.2248C44.372 9.2248 44.74 9.5768 44.74 10.0088C44.74 10.4728 44.388 10.8408 43.908 10.8408ZM43.332 21.0968V12.6808H44.468V21.0968H43.332ZM47.6289 21.0968V9.2248H48.7649V21.0968H47.6289ZM51.9258 21.0968V9.2248H53.0618V21.0968H51.9258ZM63.5667 16.8888C63.5667 16.9848 63.5507 17.1128 63.5507 17.2408H56.5107C56.6387 19.0008 57.9827 20.1688 59.8227 20.1688C60.8467 20.1688 61.7587 19.8008 62.3987 19.0648L63.0387 19.8008C62.2867 20.6968 61.1187 21.1768 59.7907 21.1768C57.1667 21.1768 55.3747 19.3848 55.3747 16.8888C55.3747 14.3928 57.1187 12.6168 59.4867 12.6168C61.8547 12.6168 63.5667 14.3608 63.5667 16.8888ZM59.4867 13.5928C57.8547 13.5928 56.6547 14.7448 56.5107 16.3928H62.4787C62.3347 14.7448 61.1347 13.5928 59.4867 13.5928ZM76.3749 12.6168C78.4229 12.6168 79.7669 13.8008 79.7669 16.2168V21.0968H78.6309V16.3288C78.6309 14.5528 77.7349 13.6408 76.2149 13.6408C74.4869 13.6408 73.3989 14.7608 73.3989 16.6808V21.0968H72.2629V16.3288C72.2629 14.5528 71.3669 13.6408 69.8309 13.6408C68.1189 13.6408 67.0149 14.7608 67.0149 16.6808V21.0968H65.8789V12.6808H66.9669V14.2168C67.5589 13.2088 68.6469 12.6168 70.0549 12.6168C71.4469 12.6168 72.5349 13.2088 73.0469 14.3928C73.6549 13.3048 74.8549 12.6168 76.3749 12.6168ZM85.7917 12.6168C87.9677 12.6168 89.1997 13.7048 89.1997 15.8808V21.0968H88.1117V19.7848C87.5997 20.6488 86.6077 21.1768 85.2157 21.1768C83.3117 21.1768 82.1437 20.1848 82.1437 18.7288C82.1437 17.4328 82.9757 16.3448 85.3917 16.3448H88.0637V15.8328C88.0637 14.3928 87.2477 13.6088 85.6797 13.6088C84.5917 13.6088 83.5677 13.9928 82.8797 14.6008L82.3677 13.7528C83.2157 13.0328 84.4637 12.6168 85.7917 12.6168ZM85.3917 20.2808C86.6717 20.2808 87.6157 19.6728 88.0637 18.5688V17.1928H85.4237C83.7917 17.1928 83.2637 17.8328 83.2637 18.6968C83.2637 19.6728 84.0477 20.2808 85.3917 20.2808ZM93.3732 14.3288C93.9012 13.2088 94.9732 12.6168 96.5252 12.6168V13.7208C96.4292 13.7208 96.3332 13.7048 96.2532 13.7048C94.4932 13.7048 93.4212 14.8248 93.4212 16.8088V21.0968H92.2852V12.6808H93.3732V14.3288ZM101.51 12.6168C103.686 12.6168 104.918 13.7048 104.918 15.8808V21.0968H103.83V19.7848C103.318 20.6488 102.326 21.1768 100.934 21.1768C99.0304 21.1768 97.8624 20.1848 97.8624 18.7288C97.8624 17.4328 98.6944 16.3448 101.11 16.3448H103.782V15.8328C103.782 14.3928 102.966 13.6088 101.398 13.6088C100.31 13.6088 99.2864 13.9928 98.5984 14.6008L98.0864 13.7528C98.9344 13.0328 100.182 12.6168 101.51 12.6168ZM101.11 20.2808C102.39 20.2808 103.334 19.6728 103.782 18.5688V17.1928H101.142C99.5104 17.1928 98.9824 17.8328 98.9824 18.6968C98.9824 19.6728 99.7664 20.2808 101.11 20.2808Z" fill="#1E1E1E"/>
<defs>
<radialGradient id="paint0_radial_347_4694" cx="0" cy="0" r="1" gradientUnits="userSpaceOnUse" gradientTransform="translate(25.7446 18.5193) rotate(-130.909) scale(20.4132 14.6882)">
<stop stop-color="#717171"/>
<stop offset="1" stop-color="#1E1E1E"/>
</radialGradient>
<radialGradient id="paint1_radial_347_4694" cx="0" cy="0" r="1" gradientUnits="userSpaceOnUse" gradientTransform="translate(3.927 25.9581) rotate(-23.195) scale(22.08 36.7965)">
<stop stop-color="#717171"/>
<stop offset="1" stop-color="#1E1E1E"/>
</radialGradient>
<linearGradient id="paint2_linear_347_4694" x1="5.07111" y1="-9.34959" x2="5.07111" y2="24.7742" gradientUnits="userSpaceOnUse">
<stop stop-color="#717171"/>
<stop offset="1" stop-color="#1E1E1E"/>
</linearGradient>
</defs>
</svg>
