<svg width="31" height="31" viewBox="0 0 31 31" fill="none" xmlns="http://www.w3.org/2000/svg">
<path d="M15.1759 20.6272H15.1745H11.7037C11.553 20.6272 11.4083 20.5673 11.3017 20.4607C11.1951 20.3541 11.1352 20.2094 11.1352 20.0586L11.1352 16.5879L11.1352 16.5865C11.1347 16.5116 11.1491 16.4375 11.1774 16.3682C11.2056 16.2991 11.2472 16.2362 11.2997 16.1831C11.2998 16.183 11.2999 16.1829 11.3001 16.1828L16.9801 10.511L16.9805 10.5105L19.2889 8.19399L19.2893 8.19357C19.3421 8.14028 19.405 8.09798 19.4743 8.06912C19.5436 8.04025 19.6179 8.02539 19.693 8.02539C19.768 8.02539 19.8423 8.04025 19.9116 8.06912C19.9808 8.09796 20.0437 8.14021 20.0965 8.19344C20.0966 8.19349 20.0966 8.19353 20.0966 8.19357L23.5671 11.7049L23.567 11.7049L23.5688 11.7067C23.6221 11.7595 23.6644 11.8224 23.6933 11.8917C23.7221 11.961 23.737 12.0353 23.737 12.1104C23.737 12.1854 23.7221 12.2597 23.6933 12.329C23.6645 12.3981 23.6224 12.4608 23.5693 12.5135C23.5692 12.5137 23.569 12.5139 23.5688 12.514L21.2453 14.7885L21.2452 14.7885L21.2432 14.7905L15.5796 20.4623C15.5795 20.4625 15.5793 20.4626 15.5792 20.4627C15.5262 20.5152 15.4633 20.5568 15.3942 20.585C15.3249 20.6133 15.2507 20.6276 15.1759 20.6272ZM19.8697 9.57611L19.693 9.39933L19.5162 9.57611L18.3538 10.7385L18.177 10.9152L18.3538 11.092L20.6704 13.4086L20.8471 13.5853L21.0239 13.4086L22.1863 12.2462L22.3631 12.0694L22.1863 11.8927L19.8697 9.57611ZM12.3455 16.7468L12.2723 16.82V16.9235V19.2401V19.4901H12.5223H14.8389H14.9424L15.0156 19.4169L19.8697 14.5627L20.0465 14.386L19.8697 14.2092L17.5532 11.8927L17.3764 11.7159L17.1996 11.8927L12.3455 16.7468ZM10.0666 22.7643H24.8008C24.9516 22.7643 25.0962 22.8242 25.2029 22.9309C25.3095 23.0375 25.3694 23.1821 25.3694 23.3329C25.3694 23.4837 25.3095 23.6283 25.2029 23.7349C25.0962 23.8416 24.9516 23.9015 24.8008 23.9015H10.0666C9.91582 23.9015 9.7712 23.8416 9.66458 23.7349C9.55795 23.6283 9.49805 23.4837 9.49805 23.3329C9.49805 23.1821 9.55795 23.0375 9.66458 22.9309C9.7712 22.8242 9.91582 22.7643 10.0666 22.7643Z" fill="#1E1E1E" stroke="#B8BECE" stroke-width="0.5"/>
</svg>
