<svg width="16" height="17" viewBox="0 0 16 17" fill="none" xmlns="http://www.w3.org/2000/svg">
<path d="M10.3866 8.74091C10.3866 10.0609 9.31995 11.1276 7.99995 11.1276C6.67995 11.1276 5.61328 10.0609 5.61328 8.74091C5.61328 7.42091 6.67995 6.35425 7.99995 6.35425C9.31995 6.35425 10.3866 7.42091 10.3866 8.74091Z" stroke="white" stroke-linecap="round" stroke-linejoin="round"/>
<path d="M7.9999 14.2543C10.3532 14.2543 12.5466 12.8676 14.0732 10.4676C14.6732 9.52761 14.6732 7.94761 14.0732 7.00761C12.5466 4.60761 10.3532 3.22095 7.9999 3.22095C5.64656 3.22095 3.45323 4.60761 1.92656 7.00761C1.32656 7.94761 1.32656 9.52761 1.92656 10.4676C3.45323 12.8676 5.64656 14.2543 7.9999 14.2543Z" stroke="white" stroke-linecap="round" stroke-linejoin="round"/>
</svg>
